<svg height="2541" viewBox="0 0 408 2541" width="408" xmlns="http://www.w3.org/2000/svg"><path d="m178.7 1.5c64.78 39.008 110.44 74.134 136.98 105.378 45.759 53.87 75.274 116.627 80.865 152.122 5.59 35.495 9.955 66.122 9.955 94 0 95.723-7.857 128.43-17.5 164.634-12.127 37.94-41.762 80.067-85.831 111.557-6.573 4.696-45.088 29.162-66.615 35.809-235.618 72.754-235.104 178.58-235.104 630.938v335.062c0 127.777-1.013 219.029 0 313 .97 90 0 160.765 0 316 0 236.518 162.428 219.064 162.428 284.678" fill="none" stroke="#c6d3df" stroke-dasharray="6" stroke-linecap="square" stroke-width="2"/></svg>