<svg height="220" viewBox="0 0 330 220" width="330" xmlns="http://www.w3.org/2000/svg" xmlns:xlink="http://www.w3.org/1999/xlink"><defs><path id="a" d="m15.71 167.897c14.015-17.35 9.064-40.304.862-59.926-8.203-19.623-19.276-39.592-15.952-60.101 2.966-18.446 18.463-35.276 39.507-42.94 21.045-7.664 46.945-5.931 66.124 4.448 9.399 5.083 17.864 12.285 29.056 13.576 22.433 2.618 39.293-19.392 61.963-19.738 13.751-.212 25.613 7.74 34.198 16.368 8.585 8.627 15.616 18.582 26.593 25.245 11.646 7.067 26.402 9.628 39.913 14 13.512 4.37 27.215 11.842 30.468 23.28 5.046 17.735-17.123 33.853-16.573 52.05.406 13.172 12.531 24.148 16.74 36.876 6.911 20.99-12.327 45.576-38.968 48.965h-235.631c-15.791.516-33.278-4.54-41.314-15.016-8.011-10.456-5.309-26.766 3.014-37.087z"/><path id="b" d="m0 0h536.25v230.45h-536.25z"/><path id="c" d="m8.624 31.901c-2.33-4.622-3.282-6.523-4.72-10.083-2.017-4.995-2.178-5.846-2.625-7.247-.217-.68-.76-2.672-.845-3.542-.268-2.757.877-3.184 3.47-4.768 3.637-2.221 14.506-5.811 15.354-5.735 1.468.13 12.29 8.588 12.092 9.555-.025.12-11.517 1.507-15.934 3.213-.897.346-3.528.798-3.871 2.116-.353 1.354.805 4.855 1.23 6.408s1.434 5.222 2.417 8.225c.313.958.591 3.454-.66 5.22-.707 1-2.711 3.79-5.908 3.787-1.787-.002-2.701-1.095-2.701-2.74 0-1.647 3.056-3.705 2.701-4.409z"/><path id="d" d="m1.786.447c.747 0 3.165 1.421 4.322 2.018 1.157.598 1.488.654 3.405 2.33 3.99 3.49 10.11 16.58 9.087 27.343.374 2.822-.94 6.863-1.959 7.669-1.459 1.153-3.265.035-3.87-.648-.605-.682 0-4.052 0-5.04 0-.651.101-2.336.628-3.433.377-10.859-12.173-19.596-12.342-19.723-.81-.614-2.072-10.516.729-10.516z"/><path id="e" d="m2.034.38c.671-.033 2.277.922 3.492 1.732 1.216.81 2.941 2.83 4.276 4.615 3.19 4.267 7.652 17.923 6.149 30.405.25 3.366-1.02 7.915-2.012 8.848-1.474 1.386-3.298.043-3.91-.778-.61-.82 0-4.87 0-6.057 0-1.054.185-4.357 1.356-5.162-.08-12.075-10.255-21.09-10.395-21.227-.706-.685-1.473-12.253 1.044-12.376z"/><path id="f" d="m19.8-9.777c.672-.049 1.877.588 3.092 1.399 1.216.81 2.941 2.829 4.276 4.614 3.19 4.267 7.652 17.922 6.15 30.404.249 3.366-1.02 7.916-2.013 8.85-1.474 1.386-3.298.042-3.91-.778-.61-.82 0-4.87 0-6.057 0-1.054.186-4.356 1.355-5.162-.078-12.075-10.252-21.09-10.394-21.227l-.033-.033c-.395-.399-2.783-2.987-2.884-5.074-.172-3.562.047-6.624 4.361-6.936z"/><path id="g" d="m6.824 0s12.97 13.668 13.488 14.766l-5.527 9.716-14.785-14.545s4.31-7.782 5.088-8.74c.779-.957 1.736-1.197 1.736-1.197"/><path id="h" d="m4.43 0s16.382 13.848 16.9 14.945l-5.527 9.717-15.803-13.828s2.535-6.396 2.993-7.542c.599-1.496 1.437-3.292 1.437-3.292"/><path id="i" d="m33.456 7.341c1.676.879 1.89 1.364 1.89 1.364s-1.6 2.976-3.394 6.505c-1.795 3.528-8.654 17.695-9.014 18.52s-.928 1.81-.928 1.81-7.39-1.541-11.14-2.58c-3.752-1.036-9.258-3.27-10.616-3.35 0 0 2.677-8.025 4.79-13.328 3.91-9.818 7.103-16.282 7.103-16.282s19.633 6.464 21.31 7.341z"/><linearGradient id="j" x1="23.751%" x2="100%" y1="54.354%" y2="29.43%"><stop offset="0" stop-color="#1b7cb5"/><stop offset="1" stop-color="#0f72ad"/></linearGradient><linearGradient id="k" x1="50%" x2="50.531%" y1="0%" y2="86.545%"><stop offset="0" stop-color="#fff" stop-opacity=".2"/><stop offset="1" stop-color="#fff" stop-opacity="0"/></linearGradient><filter id="l" height="122.4%" width="140%" x="-20%" y="-11.2%"><feOffset in="SourceAlpha" result="shadowOffsetOuter1"/><feGaussianBlur in="shadowOffsetOuter1" result="shadowBlurOuter1" stdDeviation="4"/><feColorMatrix in="shadowBlurOuter1" result="shadowMatrixOuter1" values="0 0 0 0 0.468523551 0 0 0 0 0.467095125 0 0 0 0 0.467095125 0 0 0 0.5 0"/><feMerge><feMergeNode in="shadowMatrixOuter1"/><feMergeNode in="SourceGraphic"/></feMerge></filter><mask id="m" fill="#fff"><use fill="#fff" fill-rule="evenodd" xlink:href="#a"/></mask><mask id="n" fill="#fff"><use fill="#fff" fill-rule="evenodd" xlink:href="#b"/></mask><mask id="o" fill="#fff"><path d="m25.045 19.154c-1.97-2.979-5.609-3.968-8.112-6.42-2.288-2.242-3.454-5.521-5.235-8.262-1.782-2.742-4.816-5.114-7.744-4.108-2.986 1.025-4.23 5.076-3.849 8.483.382 3.405 1.902 6.529 2.605 9.872 1.048 4.977.591 9.965 3.775 14.082 8.114 10.492 26.476-1.678 18.56-13.647" fill="#fff" fill-rule="evenodd"/></mask><mask id="p" fill="#fff"><path d="m22.167 31.595c-3.33 6.78-15.945 11.13-20.596 2.897-2.485-4.4-1.969-11.263 1.34-15.016 2.342-2.657 5.782-4.103 8.296-6.597 2.595-2.574 4.035-6.088 6.373-8.897 2.338-2.81 6.344-4.916 9.602-3.26 2.927 1.487 3.835 5.376 3.178 8.593-.657 3.218-2.476 6.059-3.728 9.095-1.77 4.294-2.417 9.015-4.465 13.185" fill="#fff" fill-rule="evenodd"/></mask><mask id="q" fill="#fff"><path d="m17.01 21.564c1.947 4.89 5.067 12.819 1.97 18.085-2.427 4.13-7.715 5.733-11.353 4.965-4.403-.93-7.689-6.695-7.555-12.617.114-5.011 2.42-9.424 3.28-14.301.496-2.81.505-5.733.858-8.582s1.13-5.77 2.788-7.59c1.659-1.82 4.372-2.086 5.812.049 1.502 2.226 1.03 5.677 1.167 8.685.184 4.035 1.617 7.746 3.033 11.306" fill="#fff" fill-rule="evenodd"/></mask><mask id="r" fill="#fff"><path d="m42.448 31.594c0 7.438-3.825 13.983-9.617 17.772h-23.211c-5.792-3.789-9.62-10.334-9.62-17.772 0-4.008 1.111-28.276 3.045-31.476h36.36c1.931 3.2 3.043 27.468 3.043 31.476" fill="#fff" fill-rule="evenodd"/></mask><mask id="s" fill="#fff"><path d="m.13 35.913c2.42-20.407 8.8-31.079 26.4-35.753-10.34 24.586-23.1 25.246-23.1 25.246s-1.98 6.492-1.54 10.507c-1.54.933-1.76 0-1.76 0" fill="#fff" fill-rule="evenodd"/></mask><mask id="t" fill="#fff"><path d="m18.61 39.706c-.44-12.1-3.963-34.474-18.482-39.566-.88 21.526 16.28 31.206 16.28 31.206l.22 8.36h1.98" fill="#fff" fill-rule="evenodd"/></mask><mask id="u" fill="#fff"><path d="m8.283.156c-11.233 9.721-9.913 32.162-1.553 37.222l-.22 11 1.774.88s-.897-11.986 0-11.88c11.646-7.904 11.704-34.82 0-37.222" fill="#fff" fill-rule="evenodd"/></mask><mask id="v" fill="#fff"><path d="m21.674 29.786h-17.134c-.628 0-1.156-.469-1.23-1.094l-3.24-27.258c-.087-.737.49-1.383 1.231-1.383h23.611c.742 0 1.318.646 1.23 1.383l-3.238 27.258c-.074.625-.602 1.094-1.23 1.094" fill="#fff" fill-rule="evenodd"/></mask><mask id="w" fill="#fff"><path d="m10.676 12.203c1.334 2.194 3.331 9.768-1.912 7.617-2.314-.95-4.935-6.453-5.99-8.648-.862-1.8-1.527-3.696-1.974-5.642-.34-1.486-.017-4.21-.663-5.477 1.224 2.399 3.189 4.325 5.153 6.167 1.964 1.843 3.99 3.682 5.387 5.983" fill="#fff" fill-rule="evenodd"/></mask><mask id="x" fill="#fff"><path d="m9.981.149c-.146 4.084-.818 8.15-1.984 12.065-.76 2.548-1.617 6.805-3.193 8.979-1.529 2.107-4.512 1.625-4.67-1.153-.114-2.035 1.602-4.286 2.507-5.997l7.339-13.894" fill="#fff" fill-rule="evenodd"/></mask><mask id="y" fill="#fff"><path d="m13.068 9.24c-1.793 3.82-4.033 7.729-8.463 8.747-1.113.258-2.355.174-3.292-.48-2.852-1.99.276-5.48 2.063-6.857 4.534-3.489 9.07-6.98 13.604-10.472-1.21 3.06-2.514 6.083-3.913 9.062" fill="#fff" fill-rule="evenodd"/></mask><mask id="z" fill="#fff"><path d="m1.844.165c-1.029 4.178-1.626 8.462-1.78 12.762-.104 2.928.147 6.213 2.315 8.186.802.729 2.063 1.2 2.948.575 1.667-1.177-.36-7.496-.791-9.357-.757-3.263-3.484-8.95-2.692-12.166" fill="#fff" fill-rule="evenodd"/></mask><mask id="A" fill="#fff"><path d="m3.932.05c.741 2.78 4.97 22.656-1.945 19.836-3.007-1.226-1.56-6.536-1.167-8.87.345-2.045.849-4.061 1.441-6.049.305-1.022 1.924-3.966 1.67-4.917" fill="#fff" fill-rule="evenodd"/></mask><mask id="B" fill="#fff"><path d="m10.272 17.153c1.178 2.867-.52 6.572-4.06 5.309-1.998-.713-2.856-3.485-3.807-5.207-1.185-2.145-1.846-4.537-2.126-6.963-.389-3.382-.088-6.802.214-10.192 1.275 4.663 3.573 9.043 6.685 12.744 1.143 1.36 2.419 2.666 3.094 4.31" fill="#fff" fill-rule="evenodd"/></mask><mask id="C" fill="#fff"><path d="m8.928.05c.59 7.62-1.834 13.491-3.761 20.606-.5 1.843-1.588 5.544-4.3 2.787-1.267-1.285-.765-3.911-.527-5.416 1.05-6.655 4.034-13.013 8.588-17.977" fill="#fff" fill-rule="evenodd"/></mask><mask id="D" fill="#fff"><path d="m6.141 14.832c.299 1.525 1.161 15.011-3.265 13.134-2.596-1.1-2.68-10.025-2.673-12.188.01-2.846.346-5.689.93-8.473.367-1.744 2.429-5.639 2.114-7.245z" fill="#fff" fill-rule="evenodd"/></mask><mask id="E" fill="#fff"><path d="m17.397 11.928c3.324 2.816 1.79 6.693-2.514 5.558-2.721-.718-4.869-3.439-6.85-5.272-1.908-1.766-3.591-3.777-4.993-5.966-1.075-1.679-1.74-4.882-3.038-6.215 3.763 3.863 8.203 7.069 13.056 9.425 1.502.728 3.066 1.39 4.34 2.47" fill="#fff" fill-rule="evenodd"/></mask><mask id="F" fill="#fff"><path d="m32.81 8.626c0 6.695-4.007 12.45-9.753 15h-13.301c-5.747-2.55-9.756-8.306-9.756-15 0-3.096.86-5.996 2.357-8.468h28.098c1.494 2.471 2.354 5.37 2.354 8.468" fill="#fff" fill-rule="evenodd"/></mask><mask id="G" fill="#fff"><use fill="#fff" fill-rule="evenodd" xlink:href="#c"/></mask><mask id="H" fill="#fff"><path d="m69.2 2.023c6.403 3.85 10.722 14.054 8.22 29.342-1.096 6.701-3.234 11.179-6.136 14.133.31 2.054.978 4.68 1.801 7.125 1.013 3.008 1.078 3.217 2.894 9.76 1.817 6.543 3.121 13.141 3.121 20.997v1.359c-.001 6.53-.024 6.94-.386 12.091-.386 5.487-4.705 11.107-10.064 12.443-5.611 1.4-17.416 4.74-23.65 1.681-.256-.126-3.812-1.546-4.024-1.68-5.196-3.308-8.01-7.002-4.554-12.064 2.155-3.156 9.156-3.463 10.878-4.244-.59-1.622-.907-3.333-1.24-5.978-.396-3.128-.486-6.401-.493-10.193-5.428.247-11.593-.212-17.27-1.933-3.358-.339-7.618-2.378-8.365-3.518-1.109-1.692.531-3.255 1.445-3.715s4.796.846 5.965 1.052c1.038.183 4.26.939 4.85 2.231 5.026.852 9.828-.162 13.71-1.628l.072-.027c.146-.791.327-1.595.533-2.398-5.495 1.132-11.965 1.456-17.454-.06-2.844-.121-6.596-2.116-7.212-3.26-.882-1.637.532-3.221 1.31-3.699.777-.477 3.99.704 4.963.876.642.113 2.283.505 3.272 1.214 7.931 1.684 15.949-3.926 19.572-6.942.15-.319.28-.586.383-.796.538-1.1.735-2.7.805-4.458-4.001-1.238-8-4.003-11.17-8.146-2.205-2.883-4.476-10.209-4.554-15-.245-15.03 2.052-17.638 6.812-21.985 4.76-4.348 19.563-6.43 25.966-2.58z" fill="#fff" fill-rule="evenodd"/></mask><mask id="I" fill="#fff"><use fill="#fff" fill-rule="evenodd" xlink:href="#d"/></mask><mask id="J" fill="#fff"><use fill="#fff" fill-rule="evenodd" xlink:href="#e"/></mask><mask id="K" fill="#fff"><use fill="#fff" fill-rule="evenodd" xlink:href="#f"/></mask><mask id="L" fill="#fff"><use fill="#fff" fill-rule="evenodd" xlink:href="#g"/></mask><mask id="M" fill="#fff"><use fill="#fff" fill-rule="evenodd" xlink:href="#h"/></mask><mask id="N" fill="#fff"><use fill="#fff" fill-rule="evenodd" xlink:href="#i"/></mask></defs><g fill="none" fill-rule="evenodd"><use fill="#002134" xlink:href="#a"/><g mask="url(#m)"><g transform="translate(-103.4 1.1)"><use fill="#2274a5" xlink:href="#b"/><path d="m176.963 0h359.287v230.401c-94.285 1.107-169.824-16.548-226.615-52.966-56.79-36.419-101.015-95.565-132.672-177.435z" fill="url(#j)" mask="url(#n)"/></g></g><path d="m0 252.385h356.4v-75.9h-356.4z" fill="#1a5a80" mask="url(#m)"/><g mask="url(#m)"><g opacity=".6"><path d="m28.827 49.544c2.692 0 4.89 2.198 4.89 4.89v35.363c0 2.693-2.198 4.891-4.89 4.891h-21.187c-2.693 0-4.891-2.198-4.891-4.89v-35.364c0-2.693 2.198-4.891 4.89-4.891zm38.117 0c2.712 0 4.91 2.198 4.89 4.89v35.363c0 2.693-2.197 4.891-4.89 4.891h-21.186c-2.693 0-4.89-2.198-4.89-4.89v-35.364c0-2.693 2.197-4.891 4.89-4.891zm38.117 0c2.693 0 4.89 2.198 4.89 4.89v35.363c0 2.693-2.197 4.891-4.89 4.891h-21.186c-2.693 0-4.89-2.198-4.89-4.89v-35.364c0-2.693 2.197-4.891 4.89-4.891zm38.117 0c2.693 0 4.89 2.198 4.89 4.89v35.363c0 2.693-2.197 4.891-4.89 4.891h-21.186c-2.692 0-4.89-2.198-4.89-4.89v-35.364c0-2.693 2.198-4.891 4.89-4.891zm-114.351-49.544c2.692 0 4.89 2.178 4.89 4.89v35.363c0 2.693-2.198 4.891-4.89 4.891h-21.187c-2.693 0-4.891-2.198-4.891-4.89v-35.364c.001-2.692 2.199-4.89 4.891-4.89zm38.117 0c2.712 0 4.91 2.178 4.89 4.89v35.363c0 2.693-2.197 4.891-4.89 4.891h-21.186c-2.693 0-4.89-2.198-4.89-4.89v-35.364c0-2.693 2.197-4.891 4.89-4.891zm38.117 0c2.693 0 4.89 2.178 4.89 4.89v35.363c0 2.693-2.197 4.891-4.89 4.891h-21.186c-2.693 0-4.89-2.198-4.89-4.89v-35.364c0-2.693 2.197-4.891 4.89-4.891zm38.117 0c2.693 0 4.89 2.178 4.89 4.89v35.363c0 2.693-2.197 4.891-4.89 4.891h-21.186c-2.692 0-4.89-2.198-4.89-4.89v-35.364c0-2.693 2.198-4.891 4.89-4.891z" fill="#fff" fill-opacity=".2" transform="translate(89.54 -5.214)"/><path d="m202.613 39.62c3.683 0 6.673 2.99 6.673 6.672v23.958c.02 3.703-2.97 6.673-6.653 6.673h-195.782c-3.683 0-6.673-2.99-6.673-6.673v-23.958c0-3.682 2.99-6.672 6.673-6.672zm0-39.264c3.683 0 6.673 2.99 6.673 6.673v23.958c.02 3.683-2.97 6.673-6.653 6.673h-195.782c-3.683 0-6.673-2.99-6.673-6.673v-23.958c0-3.683 2.99-6.673 6.673-6.673h195.762z" fill="#224862" transform="translate(8.602 99.616)"/><path d="m39.461 56.668c.891 0 1.604.712 1.604 1.603l-.006.147c-.074.821-.756 1.457-1.598 1.457h-15.305c-.891 0-1.604-.713-1.604-1.604l.007-.146c.073-.822.755-1.457 1.597-1.457zm145.887 0c.871 0 1.604.712 1.604 1.603l-.007.147c-.073.821-.756 1.457-1.597 1.457h-15.306c-.89 0-1.603-.713-1.603-1.604l.006-.146c.073-.822.756-1.457 1.597-1.457zm-145.888-39.284c.891 0 1.604.733 1.604 1.604l-.006.147c-.074.821-.756 1.457-1.598 1.457h-15.304c-.891 0-1.604-.713-1.604-1.604l.007-.147c.073-.82.755-1.457 1.597-1.457zm145.887 0c.871 0 1.604.733 1.604 1.604l-.007.147c-.073.821-.756 1.457-1.597 1.457h-15.306c-.89 0-1.603-.713-1.603-1.604l.006-.147c.073-.82.756-1.457 1.597-1.457z" fill="#000" fill-opacity=".2" transform="translate(8.602 99.616)"/><g opacity=".304" transform="translate(11 75.9)"><rect fill="#e9e9e9" height="7.803" rx=".55" width="34.511" x=".71" y="16.164"/><rect fill="#fff" height="5.544" rx=".55" width="34.511" x="3.69" y="10.68"/><rect fill="#e9e9e9" height="5.544" rx=".55" width="34.511" y="5.5"/><rect fill="#fff" height="5.544" rx=".55" width="34.511" x=".71"/></g><path d="m25.045 19.154c-1.97-2.979-5.609-3.968-8.112-6.42-2.288-2.242-3.454-5.521-5.235-8.262-1.782-2.742-4.816-5.114-7.744-4.108-2.986 1.025-4.23 5.076-3.849 8.483.382 3.405 1.902 6.529 2.605 9.872 1.048 4.977.591 9.965 3.775 14.082 8.114 10.492 26.476-1.678 18.56-13.647" fill="#1a5a80" mask="url(#o)" transform="translate(234.3 92.07)"/><path d="m22.167 31.595c-3.33 6.78-15.945 11.13-20.596 2.897-2.485-4.4-1.969-11.263 1.34-15.016 2.342-2.657 5.782-4.103 8.296-6.597 2.595-2.574 4.035-6.088 6.373-8.897 2.338-2.81 6.344-4.916 9.602-3.26 2.927 1.487 3.835 5.376 3.178 8.593-.657 3.218-2.476 6.059-3.728 9.095-1.77 4.294-2.417 9.015-4.465 13.185" fill="#1a5a80" mask="url(#p)" transform="translate(249.7 90.97)"/><path d="m17.01 21.564c1.947 4.89 5.067 12.819 1.97 18.085-2.427 4.13-7.715 5.733-11.353 4.965-4.403-.93-7.689-6.695-7.555-12.617.114-5.011 2.42-9.424 3.28-14.301.496-2.81.505-5.733.858-8.582s1.13-5.77 2.788-7.59c1.659-1.82 4.372-2.086 5.812.049 1.502 2.226 1.03 5.677 1.167 8.685.184 4.035 1.617 7.746 3.033 11.306" fill="#224862" mask="url(#q)" transform="translate(247.94 84.59)"/><path d="m42.448 31.594c0 7.438-3.825 13.983-9.617 17.772h-23.211c-5.792-3.789-9.62-10.334-9.62-17.772 0-4.008 1.111-28.276 3.045-31.476h36.36c1.931 3.2 3.043 27.468 3.043 31.476" fill="#1a5a80" mask="url(#r)" transform="translate(234.52 127.27)"/><g fill="#224862"><path d="m.13 35.913c2.42-20.407 8.8-31.079 26.4-35.753-10.34 24.586-23.1 25.246-23.1 25.246s-1.98 6.492-1.54 10.507c-1.54.933-1.76 0-1.76 0" mask="url(#s)" transform="translate(299.86 118.91)"/><path d="m18.61 39.706c-.44-12.1-3.963-34.474-18.482-39.566-.88 21.526 16.28 31.206 16.28 31.206l.22 8.36h1.98" mask="url(#t)" transform="translate(274.78 114.07)"/><path d="m8.283.156c-11.233 9.721-9.913 32.162-1.553 37.222l-.22 11 1.774.88s-.897-11.986 0-11.88c11.646-7.904 11.704-34.82 0-37.222" mask="url(#u)" transform="translate(289.96 106.15)"/></g><path d="m21.674 29.786h-17.134c-.628 0-1.156-.469-1.23-1.094l-3.24-27.258c-.087-.737.49-1.383 1.231-1.383h23.611c.742 0 1.318.646 1.23 1.383l-3.238 27.258c-.074.625-.602 1.094-1.23 1.094" fill="#1a5a80" mask="url(#v)" transform="translate(285.78 146.85)"/></g><path d="m10.676 12.203c1.334 2.194 3.331 9.768-1.912 7.617-2.314-.95-4.935-6.453-5.99-8.648-.862-1.8-1.527-3.696-1.974-5.642-.34-1.486-.017-4.21-.663-5.477 1.224 2.399 3.189 4.325 5.153 6.167 1.964 1.843 3.99 3.682 5.387 5.983" fill="#224862" mask="url(#w)" transform="translate(259.49 149.27)"/><path d="m9.981.149c-.146 4.084-.818 8.15-1.984 12.065-.76 2.548-1.617 6.805-3.193 8.979-1.529 2.107-4.512 1.625-4.67-1.153-.114-2.035 1.602-4.286 2.507-5.997l7.339-13.894" fill="#224862" mask="url(#x)" transform="translate(279.73 147.95)"/><path d="m13.068 9.24c-1.793 3.82-4.033 7.729-8.463 8.747-1.113.258-2.355.174-3.292-.48-2.852-1.99.276-5.48 2.063-6.857 4.534-3.489 9.07-6.98 13.604-10.472-1.21 3.06-2.514 6.083-3.913 9.062" fill="#1a5a80" mask="url(#y)" transform="translate(278.19 157.85)"/><path d="m1.844.165c-1.029 4.178-1.626 8.462-1.78 12.762-.104 2.928.147 6.213 2.315 8.186.802.729 2.063 1.2 2.948.575 1.667-1.177-.36-7.496-.791-9.357-.757-3.263-3.484-8.95-2.692-12.166" fill="#224862" mask="url(#z)" transform="translate(269.17 142.67)"/><path d="m3.932.05c.741 2.78 4.97 22.656-1.945 19.836-3.007-1.226-1.56-6.536-1.167-8.87.345-2.045.849-4.061 1.441-6.049.305-1.022 1.924-3.966 1.67-4.917" fill="#224862" mask="url(#A)" transform="translate(275.99 143.77)"/><g fill="#1a5a80"><path d="m10.272 17.153c1.178 2.867-.52 6.572-4.06 5.309-1.998-.713-2.856-3.485-3.807-5.207-1.185-2.145-1.846-4.537-2.126-6.963-.389-3.382-.088-6.802.214-10.192 1.275 4.663 3.573 9.043 6.685 12.744 1.143 1.36 2.419 2.666 3.094 4.31" mask="url(#B)" transform="translate(265.87 151.69)"/><path d="m8.928.05c.59 7.62-1.834 13.491-3.761 20.606-.5 1.843-1.588 5.544-4.3 2.787-1.267-1.285-.765-3.911-.527-5.416 1.05-6.655 4.034-13.013 8.588-17.977" mask="url(#C)" transform="translate(275.33 151.69)"/><path d="m6.141 14.832c.299 1.525 1.161 15.011-3.265 13.134-2.596-1.1-2.68-10.025-2.673-12.188.01-2.846.346-5.689.93-8.473.367-1.744 2.429-5.639 2.114-7.245z" mask="url(#D)" transform="translate(272.47 146.41)"/><path d="m17.397 11.928c3.324 2.816 1.79 6.693-2.514 5.558-2.721-.718-4.869-3.439-6.85-5.272-1.908-1.766-3.591-3.777-4.993-5.966-1.075-1.679-1.74-4.882-3.038-6.215 3.763 3.863 8.203 7.069 13.056 9.425 1.502.728 3.066 1.39 4.34 2.47" mask="url(#E)" transform="translate(255.31 157.63)"/></g><path d="m32.81 8.626c0 6.695-4.007 12.45-9.753 15h-13.301c-5.747-2.55-9.756-8.306-9.756-15 0-3.096.86-5.996 2.357-8.468h28.098c1.494 2.471 2.354 5.37 2.354 8.468" fill="#224862" mask="url(#F)" transform="translate(260.15 171.71)"/><path d="m29.392 13.248v155.282l8.522 2.675c1.449.454 2.255 1.998 1.8 3.447-.36 1.146-1.422 1.927-2.624 1.927h-21.012c-1.519 0-2.75-1.232-2.75-2.75 0-1.202.78-2.264 1.926-2.624l8.534-2.68v-155.277z" fill="#002134" transform="translate(31.7 21.45)"/><path d="m93.026 33.728 23.224 130.337h-75.883l24.502-130.337z" fill="url(#k)" transform="translate(31.7 21.45)"/><g transform="translate(53.669 28.05)"><path d="m6.012 6.374c.288 1.523.457 3.264.49 5.063l51.76.126v-5.5l-52.25.31z" fill="#002134"/><circle cx="4.356" cy="8.525" fill="#e08f13" r="4.125"/><circle cx="4.356" cy="8.525" fill="#000" fill-opacity=".2" r="1.925"/><g transform="translate(42.9)"><path d="m14.08 13.048c-7.776 0-14.08 6.304-14.08 14.08h28.16c0-7.776-6.304-14.08-14.08-14.08z" fill="#e08f13"/><path d="m17.913 13.576c-6.061 1.716-10.246 7.247-10.247 13.546h20.491c-.001-6.298-4.185-11.83-10.244-13.546z" fill="#ebb25a"/><path d="m14.08 13.048c1.296 0 2.586.178 3.833.53v-10.483c0-1.71-1.385-3.095-3.094-3.095h-1.481c-1.709 0-3.094 1.385-3.094 3.094v10.485c1.248-.353 2.539-.532 3.836-.531z" fill="#e08f13"/><path d="m15.517.08c-1.402.323-2.395 1.572-2.395 3.01v9.988c.315-.022.635-.033.958-.033 1.296 0 2.586.179 3.833.531v-10.485c0-1.44-.994-2.688-2.396-3.012z" fill="#ebb25a"/><path d="m17.913 13.576v-1.71c-2.506-.71-5.16-.71-7.666 0v1.71c2.506-.71 5.16-.71 7.666 0z" fill="#000" fill-opacity=".1"/><g fill="#a6690c"><rect height="1" rx=".315" width="3.039" x="11.055" y="4.944"/><rect height="1" rx=".315" width="19.347" x="6.691" y="25.135"/><rect height="1" rx=".315" width="3.039" x="11.055" y="4.131"/><rect height="1" rx=".315" width="3.039" x="11.055" y="3.318"/></g></g></g><path d="m45.146.418c0-.022 0-.022 0 0z" fill="#ffbe94" fill-rule="nonzero" transform="translate(112.55 39.05)"/><path d="m92.323 126.022-11.64-22.055c-17.363-2.724-25.715-5.347-25.057-7.867.649-2.487 23.416-4.893 28.187-1.748 1.893-15.528 5.039-28.377 9.437-38.546 3.812-10.144 13.636-16.51 24.106-14.183.185.04.301.224.26.408l-.006.025-25.286 83.967z" fill="#e08f13" transform="translate(112.55 54.1)"/><path d="m82.47 104.57c-18.555-3.126-27.503-5.95-26.845-8.471.649-2.487 23.416-4.893 28.187-1.748-.272 1.618-.719 5.025-1.341 10.22z" fill="#a6690c" transform="translate(112.55 54.1)"/><g filter="url(#l)" transform="translate(113.84 67.1)"><g transform="translate(23.55 102.3)"><use fill="#e9e9e9" xlink:href="#c"/><path d="m2.844 6.765c-.006-.042 6.128-10.379 12.655-9.63 6.625.76 11.428.806 11.223 1.137-6.098 9.866-1.135 1.672 10.184 14.192-8.568.057-19.216 1.838-23.78 0-5.92-2.383-8.833-3.897-11.1-4.868-.58-.248.875-.43.818-.831z" fill="#000" fill-opacity=".1" mask="url(#G)"/></g><path d="m1.806 34.568c0-13.543-3.896-21.83.648-25.218 1.03-.768 1.43-1.184 5.505-3.172 4.077-1.988 17.763-5.753 19.172-5.628 1.468.13 8.819 17.914 8.622 18.881-.021.1-12.863-.578-19.235-1.787-1.828-.346-3.774-.813-6.747-1.435-1.088-.228-2.252.015-2.683.21-.51.23-1.42.93-1.66 1.267s-.545.855-.615 1.745c-.071.89.84 4.275 1.74 6.98.404 1.213.656 1.844.967 2.787.044.113.136.328.191.486.079.198.178.426.248.638.049 1.262-.44 3.067-.44 4.077 0 1.113.473.825-.431 3.754-.302.979-.79 4.446-3.986 4.443-1.788-.002-2.103-.916-2.103-3.099s.807-3.92.807-4.929z" fill="#fff" transform="translate(19.15 92.95)"/><g transform="translate(0 .177)"><g fill="#000" fill-opacity=".1" mask="url(#H)"><path d="m23.67 58.83c.004-.021 2.625 2.702 7.821 3.618 5.197.917 11.764.004 17.578-2.939 2.556-1.292 3.103-1.725.833-1.226-1.684.37-2.437.44-5.209.976-2.87.554-3.69.75-7.996 1.036-2.18.144-10.53-3.385-10.828-2.7-.084.192-2.24 1.465-2.199 1.234z"/></g><g fill="#000" fill-opacity=".1" mask="url(#H)"><path d="m18.534 70.951c.006-.037 6.058 5.1 17.72 7.157 11.662 2.056 26.239.898 38.984-3.996 5.603-2.15 3.19-10.637-1.834-9.906-3.728.543-4.66-1.184-8.245 1.896-3.586 3.08-8.516 7.646-17.458 8.495-2.203.21-9.231.447-15.75-.949-2.917-.624-5.95-2.53-8.17-3.292-2.778-.951-4.793-1.039-4.964-.699-.172.343-.357 1.71-.283 1.294z"/></g><g mask="url(#H)"><g transform="matrix(-.17364818 .98480775 -.98480775 -.17364818 63.934145 54.062883)"><use fill="#e3e3e3" xlink:href="#d"/><path d="m14.332 37.775c.02 0-2.206-3.054-2.206-8.331s2.04-11.585 5.946-16.8c1.717-2.293 2.238-2.757 1.353-.608-.656 1.594-.857 2.324-1.866 4.96-1.044 2.731-1.38 3.505-2.408 7.695-.521 2.122 1.505 10.958.779 11.132-.205.05-1.833 1.952-1.598 1.952z" fill="#000" fill-opacity=".1" mask="url(#I)" transform="matrix(-1 0 0 1 31.975 0)"/></g></g><path d="m43.234 4.603c4.76-4.348 19.563-6.43 25.966-2.58 2.515 1.512 6.635 3.755 8.22 7.15 2.45 5.25 2.24 13.077.72 22.36-1.125 6.883-3.584 11.366-6.808 14.269.327 2.005.97 4.495 1.753 6.821 1.013 3.008 1.078 3.217 2.894 9.76 1.817 6.543 3.121 13.141 3.121 20.997s0 7.964-.386 13.45c-.386 5.487-4.705 11.107-10.064 12.443-5.611 1.4-17.416 4.74-23.65 1.681-.256-.126-3.812-1.546-4.024-1.68-5.196-3.308-8.01-7.002-4.554-12.064 2.155-3.156 9.156-3.463 10.878-4.244-.59-1.622-.907-3.333-1.24-5.978-.52-4.111-.512-8.474-.482-13.935.039-6.81 4.614-16.513 5.763-18.86.538-1.1.735-2.702.805-4.459-4.001-1.238-8-4.003-11.17-8.146-2.205-2.883-4.476-10.209-4.554-15-.245-15.03 2.052-17.638 6.812-21.985z" fill="#fff" mask="url(#H)"/><g mask="url(#H)"><path d="m5.28 4.95c0 2.734-1.182 4.95-2.64 4.95s-2.64-2.216-2.64-4.95 1.182-4.95 2.64-4.95 2.64 2.216 2.64 4.95" fill="#222039" transform="translate(41.078 18.715)"/><path d="m3.3 3.96c0 .73-.295 1.32-.66 1.32-.364 0-.66-.59-.66-1.32s.296-1.32.66-1.32c.365 0 .66.59.66 1.32m1.32 1.98c0 .364-.295.66-.66.66s-.66-.296-.66-.66.295-.66.66-.66.66.296.66.66" fill="#fff" transform="translate(41.078 18.715)"/><path d="m2.553 4.95c0 2.734-.724 4.686-1.453 4.686-.272 0-.535-.11-.745-.638-.353-.888-.245-2.332-.245-4.048 0-2.103-.113-2.89.245-4.295.167-.655 1.006-.629 1.229-.482.603.397.926 1.99.97 4.777z" fill="#222039" transform="translate(35.688 18.715)"/><path d="m.66.99c0 .547-.148.99-.33.99s-.33-.443-.33-.99.148-.99.33-.99.33.443.33.99m.66 1.65c0 .364-.148.66-.33.66s-.33-.296-.33-.66.148-.66.33-.66.33.296.33.66" fill="#fff" transform="translate(36.458 20.695)"/><path d="m0 0h11v11h-11z" transform="translate(35.1 32.273)"/><path d="m7.87 4.867c0 1.624-1.129 2.94-2.52 2.94-1.393 0-2.521-1.316-2.521-2.94s1.128-.374 2.52-.374 2.52-1.25 2.52.374" fill="#222039" transform="translate(35.1 32.273)"/><path d="m7.402 6.573c-.457.747-1.206 1.234-2.053 1.234-.696 0-1.326-.329-1.782-.861s.39-1.72 1.782-1.72 2.348.865 2.053 1.347" fill="#ed4f62" transform="translate(35.1 32.273)"/></g><path d="m44.007 50.333c-2.738-.657-1.274-1.607-5.914-5.245-3.636-2.852-4.611-4.06-5.662-10.439-.292-1.775-.931-5.368-1.03-8.062-.037-1.03.358-1.949.36-2.555.785 4.769 2.167 9.412 4.36 13.634 3.443 6.627 8.977 10.328 15.857 11.41 1.163.183 2.94.56 4.095.56 6.854 0 13.037-2.85 18.028-8.04 2.252-2.345 3.833-5.186 4.937-8.31-.193.82.803.836.579 1.617-.85 2.953-3.14 6.363-4.538 8.326-4.4 6.179-10.377 8.736-18.314 9.021-7.938.286-11.03-1.47-12.758-1.917z" fill="#000" fill-opacity=".2" mask="url(#H)"/><path d="m44.692 46.65c-1.06-.554-2.587-1.563-4.253-3.136-1.74-1.643-3.484-3.992-4.623-6.47-.359-.78-1.056-2.23-1.347-3.026-.311-.852-.816-2.17-1.257-3.621-.377-1.241-.693-2.586-.957-3.765-.331-1.487-.402-1.93-.493-2.77.233 1.293.72 2.533.996 3.75.488 2.15 1.344 3.896 2.19 5.928.292.7.706 1.708 1.102 2.404 3.454 6.057 7.615 9.402 14.518 10.39 1.167.168 2.333.249 3.493.249 6.877 0 11.953-3.132 16.9-8.81 4.948-5.678 5.635-18.683 6.593-24.344-.044.171 1.763 3.278 2.096 7.266.458 5.484-.514 12.317-.612 12.59-.3.84-.692 1.696-.972 2.35-.095.223-.424.826-.512 1.03-.8 1.86-1.546 2.862-2.802 4.224-1.532 1.662-3.522 3.294-5.075 4.477-3.358 2.557-8.983 4.27-13.604 4.27-1.053 0-2.1-.24-3.116-.395-2.139-.328-4.14-.793-5.762-1.434-.988-.39-1.863-.824-2.503-1.158z" fill="#000" fill-opacity=".1" mask="url(#H)"/><g mask="url(#H)"><g transform="matrix(-.17364818 .98480775 -.98480775 -.17364818 67.634714 65.599736)"><use fill="#fff" xlink:href="#e"/><path d="m1.388 47.426c.038 0-3.971-6.852-3.971-18.694s3.671-25.996 10.705-37.698c3.09-5.145 11.029-1.295 9.436 3.526-1.182 3.578.357 4.795-3.299 7.791-3.655 2.996-9.008 7.059-11.397 15.717-.589 2.134-2.043 9.014-1.8 15.676.108 2.981 1.459 6.298 1.823 8.618.454 2.9.19 4.9-.174 5.01-.367.11-1.745.054-1.323.054z" fill="#000" fill-opacity=".1" mask="url(#J)" transform="matrix(-1 0 0 1 15.184 0)"/></g></g><path d="m45.231 67.743c-.629-.099-1.374-5.394-.687-9.933.649-4.285 1.585-6.673 2.258-6.37 2.836 1.275 8.451 1.8 10.848 1.733 4.877-.136 9.88-1.751 15.011-4.846 2.069 2.45 3.752 4.358 5.05 5.725 1.297 1.367 3.746 4.225 7.346 8.575l-6.507 2.89c1.371 1.517 1.787 2.375 1.248 2.573.383.935-.769 2.428 0 6.284.06.304.359 1.924.485 3.683.154 2.157.132 4.52.121 4.868-.121 3.815-10.298 5.186-23.579 5.186-8.854 0-15.857-1.174-21.01-3.52 4.656-4.142 7.905-6.738 9.746-7.787 10.688-.785 10.331-1.5 12.424-2.183.887-.29.158-2.18-.099-3.152-.47-1.787-1.64-3.897-2.98-4.958-.757-.6-1.83-.796-2.217-.577-2.126 1.201-5.7 2.85-6.725 3.31.146-.987.324-1.334-.733-1.5z" fill="#002134" mask="url(#H)"/><g mask="url(#H)"><g transform="translate(18.6 55.375)"><use fill="#fff" transform="matrix(-.17364818 .98480775 -.98480775 -.17364818 41.720089 -8.697311)" xlink:href="#f"/><path d="m26.631 12.369c-.629-.1-1.374-5.395-.687-9.934.649-4.285 1.585-6.672 2.258-6.37 2.836 1.275 8.451 1.8 10.848 1.733 4.877-.136 9.88-1.751 15.011-4.846 2.069 2.45 3.752 4.358 5.05 5.725 1.297 1.367 3.746 4.226 7.346 8.575l-6.507 2.89c1.371 1.517 1.787 2.375 1.248 2.573.383.935-.769 2.428 0 6.284.06.304.359 1.924.485 3.683.154 2.158.132 4.52.121 4.868-.121 3.815-10.298 5.186-23.579 5.186-8.854 0-15.857-1.174-21.01-3.52 4.701-4.055 7.973-6.607 9.814-7.657 10.644-.781 15.52.403 14.04-2.56-.005-.012-1.31-1.004-1.316-1.017-1.982-1.791-4.041-4.454-5.451-7.645-2.577.248-5.914 3.073-6.938 3.531.146-.986.324-1.332-.733-1.5z" fill="#001d2e" mask="url(#K)"/></g></g><g transform="matrix(-1 0 0 1 21.934 32.095)"><use fill="#b03241" xlink:href="#g"/><path d="m6.665.449c-.228-.05-.28.013-.573 0-.27-.012-.243-.065-.15-.136.246-.192.626-.227.882-.313 2.777 2.927 7.394 7.072 10.858 10.871 1.163 1.275 1.862 2.891 2.765 3.9-2.68-2.53-7.775-8.039-11.17-11.648-1.076-1.143-1.977-2.112-2.612-2.673z" fill="#000" fill-opacity=".1" mask="url(#L)"/></g><path d="m19.557.253s15.603 13.787 16.12 14.885l-5.526 9.716-14.785-14.544s2.176-5.858 2.634-7.005c.6-1.495 1.557-3.052 1.557-3.052" fill="#e9e9e9" transform="matrix(-1 0 0 1 37.3 31.723)"/><g transform="matrix(-1 0 0 1 22.952 31.916)"><use fill="#fff" xlink:href="#h"/><path d="m21.267 15.21c-2.857-1.446-6.058-2.346-9.051-3.421-3.86-1.387-7.728-2.75-11.6-4.101l1.056-2.802c.971 1.747 2.854 2.712 4.648 3.473 1.616.684 11.135 4.962 12.813 5.18.091 0 .315-.246 2.382 1.797l-.248-.125z" fill="#000" fill-opacity=".1" mask="url(#M)"/></g><g transform="matrix(-1 0 0 1 36.833 38.162)"><use fill="#ed4f62" xlink:href="#i"/><path d="m10.858 32.718c-1.57-.439-3.14.797-4.68.264.308-.212-2.06.004-2.513-.691h-5.228c-.147 0 3.381-8.599 3.22-8.412.646-1.801 1.475-4.764 2.158-6.551 1.742-4.559 6.599-13.682 8.626-18.124.096.103-1.44 4.407-1.79 5.275-.124.305-.47 1.477-.59 1.78-.152.07-4.535 10.692-5.036 12.463-.184.65-.883 3.076-.994 3.87-.135.959-.36 3.023-.216 4.106.144 1.082.634 1.63 1.026 2.002.868.823 2.17 1.136 3.312 1.348 1.242.231 2.486.376 3.722.376 1.53 0 3.047-.221 4.532-.769 4.804-1.77 8.322-6.031 11.158-10.074.928-1.323 1.747-2.71 2.546-4.114.412-.725.81-1.375 1.217-2.104.295-.525.788-1.401 1.481-2.629.956-1.794 1.404-2.878 1.344-3.254-.026-.157.063.005 0-.138.354.225 1.152.818 1.36 1.135.138.214-.506 1.79-.622 1.987-2.17 3.656-4.209 7.4-6.132 11.193-1.457 2.872-1.653 5.901-3.124 8.767-.846 1.643-2.687 4.246-2.968 6.094-3.789-.8-8.082-2.761-11.81-3.8z" fill="#000" fill-opacity=".2" mask="url(#N)"/></g><path d="m3.717 33.887c-.104-.41-.146-.837-.135-1.268-.011.43.033.857.137 1.267h-.002" fill="#af807d" transform="matrix(-1 0 0 1 37.3 31.723)"/><path d="m4.194 34.999c-.056-.087-.109-.177-.157-.268.05.09.102.18.159.267h-.002m-.157-.267-.03-.06h.001l.03.06" fill="#8f4647" transform="matrix(-1 0 0 1 37.3 31.723)"/></g></g><path d="m0 0h24.75v24.75h-24.75z" transform="translate(158.29 55)"/><path d="m17.052 4.634c.229-.832.344-1.512.344-2.039 0-.641-.031-1.506-.093-2.595-.713 1.991-1.828 4.515-3.166 6.03-1.903 2.212-4.485 2.637-6.864 3.829-1.576.8-2.262 2.51-2.527 4.441h4.47c3.575-1.557 6.293-5.318 7.836-9.666z" fill="#ed4f62" transform="translate(163.994 58.3)"/><path d="m17.388 3.85c-1.75 4.492-4.187 8.841-8.242 10.45h2.986c.17 0 1.121-.026 2.855-.08 1.517-1.728 2.489-3.214 2.915-4.457-.015-.009.23-.596.355-1.225.124-.63.411-2.03.096-2.877-.3-.806-.622-1.41-.965-1.811z" fill="#b03241" transform="translate(163.994 58.3)"/><path d="m10.05 4.968c.242-.301.354-.265.505-.652.17-.278.24-1.51.24-1.795 0-.688-.08-1.528-.24-2.521 0 0-1.047 2.664-6.075 2.664-3.919 0-4.194 4.812-4.125 6.926-.056.026.158 1.282.206 1.497.194.832.61 1.657 1.248 2.476.362.465.92.737 1.509.737h.98c.124-1.53.375-2.956.974-4.331 1.096-2.493 3.332-3.025 4.778-5.001z" fill="#ed4f62" transform="translate(163.994 58.3)"/><path d="m17.142.849.254-.849c-4.324.232-6.41 3.175-6.783 3.769-.152.387-.353.748-.601 1.05-1.452 1.977-3.662 2.579-4.767 5.075-.6 1.376-.918 2.873-1.05 4.405h.691c.27-1.953.96-3.683 2.57-4.491 2.417-1.205 5.042-1.635 6.976-3.872 1.361-1.532 1.984-3.083 2.71-5.088z" fill="#b03241" transform="translate(163.994 58.3)"/><g fill="#ed4f62"><path d="m.668 0s-2.928 4.846 3.477 6.696z" transform="matrix(.17364818 .98480775 -.98480775 .17364818 166.414512 69.283584)"/><path d="m7.014 3.45s-2.93.742-6.376-3.13z" transform="matrix(.17364818 .98480775 -.98480775 .17364818 166.414512 69.283584)"/></g><path d="m47.318 156.625c1.088 0 2.017-.785 2.2-1.858l4.108-24.187 1.405-8.055h-9.598v32.216c0 1.04.844 1.884 1.885 1.884zm32.706-29.028 4.603 27.17c.182 1.073 1.111 1.858 2.2 1.858 1.04 0 1.884-.844 1.884-1.884v-32.216h-9.598l.91 5.072z" fill="#002134" transform="translate(112.55 54.1)"/><path d="m92.323 126.022h-53.35c-.607 0-1.1-.493-1.1-1.1v-5.808c0-10.52 9.354-19.042 20.9-19.042h24.559z" fill="#e08f13" transform="translate(112.55 54.1)"/></g></g></svg>