<svg height="260" viewBox="0 0 157 260" width="157" xmlns="http://www.w3.org/2000/svg"><g fill="none" fill-rule="evenodd"><g transform="translate(0 162)"><path d="m107.24 4.06 11.339 1.952-78.853 14.77h-.001c15.337 2.191 29.122 2.53 29.958 2.53 21.367 1.055 52.4-4.516 70.127-8.202l13.796-3.066-69.936-12.044-79.648 10.102c5.02 3.383 12.278 5.907 20.154 7.789z" fill="#ebb25a"/><path d="m69.683 97.909s60.999-3.497 83.922-21.758c0 0 6.991-41.298 0-64.106 0 0-5.411 1.322-13.794 3.065-17.728 3.686-48.761 9.257-70.128 8.201v74.599z" fill="#a6690c"/><path d="m34.93 91.005c-4.819-1.438-9.165-2.943-12.975-4.392-.136-1.638-.235-3.323-.239-4.925 0 0 9.665-.291 12.547 2.04 0 0 .181 3.359.667 7.278zm34.753-67.694c-.837 0-14.621-.338-29.958-2.529-3.829 8.447-2.873 28.27-2.873 28.27-6.993 1.456-14.277-2.914-14.277-2.914-2.623-10.199 1.602-28.247 1.602-28.247-7.877-1.881-15.135-4.406-20.156-7.789 0 0-7.676 48.716 0 68.38 0 0 26.809 15.541 65.661 19.427v-74.598z" fill="#e08f13"/><path d="m118.579 6.012-11.339-1.952-83.063 13.83c5.07 1.212 10.397 2.156 15.548 2.891l78.854-14.77" fill="#f9ce92"/><path d="m39.725 20.782c-5.151-.735-10.478-1.68-15.549-2.891l83.064-13.831 11.339 1.952-78.853 14.77z" fill="#fde1c7"/><path d="m24.177 17.891s-4.225 18.048-1.602 28.247c0 0 7.284 4.37 14.277 2.913 0 0-.956-19.823 2.873-28.269-5.151-.735-10.478-1.68-15.549-2.891" fill="#efa168"/><path d="m33.86 49.349c-5.898 0-11.223-3.174-11.285-3.211-.623-2.42-.86-5.282-.859-8.241.003-9.507 2.46-20.006 2.46-20.006 5.071 1.212 10.398 2.156 15.549 2.891-2.554 5.634-2.979 16.329-2.979 22.827 0 3.244.106 5.442.106 5.442-.998.209-2.002.298-2.991.298z" fill="#ebd8bb"/><path d="m21.955 86.612c3.81 1.45 8.157 2.955 12.975 4.394-.486-3.919-.667-7.278-.667-7.278-2.882-2.331-12.547-2.04-12.547-2.04.004 1.602.103 3.287.239 4.924" fill="#efa168"/><path d="m34.93 91.005c-4.819-1.438-9.165-2.943-12.975-4.392-.136-1.638-.235-3.323-.239-4.925 0 0 .386-.011 1.028-.011 2.567 0 9.213.186 11.519 2.051 0 0 .181 3.359.667 7.278" fill="#ebd8bb"/><path d="m143.594 29.626c.583 4.954-.09 8.442-.09 8.442l5.536-2.33.292-7.14 4.565-1.602-8.062-7.868-6.994 12.634z" fill="#000" fill-opacity=".2"/></g><path d="m68.722 104.749-.038 1.566c-11.587-14.854-32.461-19.817-44.549-34.268-12.117-14.486-13.08-35.636-24.135-50.948 13.402 3.659 24.666 13.413 29.812 26.317 5.201-1.919 11.448-1.211 15.902 2.09 4.455 3.303 7.082 8.926 6.759 14.461 10.348-1.791 21.53 4.413 25.484 14.14 3.959 9.728-.576 20.702-9.235 26.642" fill="#f3f4f1" transform="matrix(-.98480775 .17364818 .17364818 .98480775 141.980167 -20.246737)"/><path d="m136.853 135.216c4.308.376 8.75-1.177 11.882-4.157 3.133-2.98 4.906-7.337 4.746-11.658-9.114 3.257-19.341 3.288-28.474.084-9.133-3.203-17.76-9.975-22.842-18.211 7.172-3.11 13.028-9.132 15.936-16.385.97-2.413 1.626-5.037 1.23-7.605-.398-2.568-2.033-5.061-4.494-5.903 3.536-3.604 7.11-7.257 9.652-11.62 2.544-4.362 3.987-9.579 2.902-14.51s-5.107-9.372-10.125-9.945c4.97-4.175 8.186-10.376 8.736-16.844.547-6.467-1.58-13.509-5.776-18.462-5.785 8.416-14.208 14.569-21.913 21.268-7.71 6.699-15.108 14.568-17.63 24.464-1.762 6.928-.969 14.213-.393 21.34.576 7.126.883 14.536-1.757 21.18-2.643 6.644-9.017 12.32-16.153 11.92-4.18-.234-8.349-2.457-12.371-1.3-3.29.947-5.706 4.317-5.55 7.736.158 3.42 2.874 6.554 6.234 7.196 1.824.347 3.786.04 5.495.76 4.07 1.716 3.93 7.438 5.888 11.398 2.041 4.129 6.713 6.426 11.296 6.903 4.582.476 9.168-.564 13.673-1.516 4.51-.95 9.159-1.823 13.693-1.014 1.392 3.509 3.533 7.006 5.709 10.092 2.173 3.086 5.22 5.715 8.877 6.643 3.66.927 7.945-.144 10.192-3.177 2.736 1.627 5.907 2.113 8.976 1.271 3.069-.841 5.763-2.974 7.286-5.769-2.073-.516-3.248-2.856-4.925-4.18" fill="#fff" transform="matrix(-.98480775 .17364818 .17364818 .98480775 141.980167 -20.246737)"/><path d="m93.421 127.572c.056.265 1.81 7.508 1.847 7.463.45.3 1.375.294 2.777-.02.612-1.924 1.25-4.194 1.996-6.945-2.63-1.435-6.639-.594-6.62-.498zm-7.819.57c.055.264 1.81 7.508 1.846 7.463.45.3 1.375.294 2.777-.02.612-1.924 1.25-4.194 1.996-6.945-2.63-1.435-6.639-.594-6.62-.498z" fill="#fff" transform="matrix(-.98480775 .17364818 .17364818 .98480775 141.980167 -20.246737)"/><path d="m89.942 135.162c1.323.64-.618 2.202-.618 2.202-.361.647-.475 1.033-.504 1.785-.016.402-.001 1.125.043 2.17l.012.268v.031c0 .35-.258.637-.595.683l-.093.006c-.405-.004-.723-.33-.719-.726.016-1.397.077-2.568.184-3.512-.192.332-.398.643-.491 1.106-.07.348-.117 1.068-.142 2.16l-.005.258c-.01.342-.29.605-.624.595h-.01c-.301-.015-.54-.246-.573-.535l-.003-.099.14-2.921.03-1.313s-.57.008-1.009 1.046c-.247.584-.4 1.282-.46 2.093-.026.35-.252.654-.58.78-.049.02-.1.029-.153.028-.22-.006-.395-.189-.39-.409.047-2.02.238-3.375.572-4.063.527-1.086 2.71-1.781 4.345-1.472l.087-.064c.364-.257.888-.42 1.556-.097zm8.052-.404c1.323.64-.618 2.202-.618 2.202-.361.647-.475 1.033-.504 1.785-.016.401-.001 1.125.043 2.17l.012.268v.031c0 .349-.258.637-.595.683l-.093.006c-.405-.005-.723-.33-.719-.727.016-1.396.077-2.567.184-3.512-.192.333-.398.644-.491 1.107-.07.348-.117 1.068-.142 2.16l-.005.258c-.01.341-.29.604-.624.594h-.01c-.301-.015-.54-.245-.573-.535l-.003-.098.14-2.922.03-1.313s-.57.009-1.009 1.047c-.246.584-.4 1.282-.46 2.092-.026.35-.252.655-.58.781-.049.02-.1.028-.153.027-.22-.005-.395-.188-.39-.408.047-2.021.238-3.375.572-4.063.528-1.086 2.71-1.781 4.346-1.472l.086-.065c.364-.257.888-.42 1.556-.096zm-49.429-23.42c-2.86.157-5.593 1.812-7.056 4.273.384-3.254 1.613-6.405 3.53-9.062.938-.063 1.869-.126 2.758.178.893.304 1.703 1.001 1.895 1.922.192.92-.189 2.638-1.127 2.69" fill="#e08f13" transform="matrix(-.98480775 .17364818 .17364818 .98480775 141.980167 -20.246737)"/><path d="m54.108 103.308c0 .854-.691 1.546-1.546 1.546-.854 0-1.545-.692-1.545-1.546s.69-1.547 1.545-1.547 1.546.693 1.546 1.547" fill="#002134" transform="matrix(-.98480775 .17364818 .17364818 .98480775 141.980167 -20.246737)"/><path d="m94.23 41.522c-3.943 8.837-2.897 18.962-3.348 28.628-.512 10.987-3.267 22.262-10.23 30.775 4.816-.963 9.513-2.516 13.955-4.613 2.586-1.221 5.13-2.662 7.06-4.772 1.929-2.11 3.18-4.992 2.777-7.822-.407-2.83-2.755-5.433-5.61-5.582 2.34-1.178 4.823-2.486 6.077-4.788s.502-5.855-2.035-6.508c3.321-1.03 6.365-3.142 8.179-6.11 1.811-2.969 2.275-6.811.886-10-1.388-3.188-4.73-5.525-8.204-5.4 2.24-.6 4.124-2.384 4.848-4.586.726-2.202.268-4.756-1.175-6.57 5.187-3.018 8.915-8.432 9.882-14.355-9.098 5.676-18.695 11.91-23.063 21.703m22.906 97.459c-3.971-1.456-7.37-4.415-9.357-8.146-.413-.775-.774-1.674-.509-2.51.346-1.086 1.572-1.59 2.676-1.87 10.864-2.744 22.416 3.14 33.388.876-1.801 1.967-4.403 3.08-7.046 3.447-2.64.368-5.334.04-7.942-.524 2.31 1.058 4.726 1.878 7.2 2.441-4.762 2.228-10.573 2.061-15.2-.435 2.681 1.78 5.536 3.3 8.508 4.535-5.004 1.814-11.03.358-14.652-3.541.4 2.126 1.683 3.963 2.934 5.727m-52.505-45.278c-5.914-8.934-15.537-14.547-24.317-20.685-4.27-2.983-8.467-6.217-11.527-10.429-2.731-3.758-4.465-8.206-5.203-12.793 3.812 2.795 6.94 6.492 9.212 10.636-.677-2.505-1.525-4.963-2.539-7.35 4.636 2.676 8.38 6.866 10.52 11.771 1.178-1.276 3.527-.72 4.695.567 1.168 1.286 1.53 3.088 1.85 4.796 1.846-.996 4.23-.916 6.006.201 1.78 1.117 2.883 3.228 2.787 5.326 2.141-1.447 5.437-.27 7.037 1.76s1.834 4.881 1.206 7.39c1.357.994 2.234 2.615 2.324 4.294.09 1.68-.81 3.382-2.052 4.516" fill="#000" fill-opacity=".05" transform="matrix(-.98480775 .17364818 .17364818 .98480775 141.980167 -20.246737)"/><path d="m85.18 152.38c2.227-.663 3.867-.897 4.922-.701 1.054.196 1.694 1.01 1.92 2.44-.832.742-1.472 1.568-1.92 2.478-.449.91-.653 1.65-.612 2.216l74.116 36.232-.416.11-74.19-33.155 5.144 21.083-.474-.083-.34.04-3.479-12.116-1.851-6.279.473-2.645-7.972 44.302-.818.14-.6-.14 6.669-44.302-70.968 31.779-.763-.677 70.407-34.008c0-.733-.321-1.565-.964-2.497-.572-.83-2.242-.433-2.242-1.656 0-3.262 1.319-4.115 3.956-2.56z" fill="#002134" transform="translate(-10 -21)"/></g></svg>