<svg height="220" viewBox="0 0 330 220" width="330" xmlns="http://www.w3.org/2000/svg" xmlns:xlink="http://www.w3.org/1999/xlink"><defs><path id="a" d="m314.64 80.058c.778-7.369 2.74-14.543 4.826-21.77 2.006-6.959 3.96-14.182 2.897-21.308-1.009-6.777-4.66-13.066-11.4-18.008-6.033-4.423-13.926-7.483-22.184-9.295-20.248-4.442-41.653-.578-61.317 3.53-10.26 2.143-20.516 4.397-31.081 5.677-9.442 1.144-19.312 1.215-28.423.027-17.682-2.307-33.991-7.956-50.668-12.46-16.63-4.49-34.261-7.817-52.143-5.627-16.247 1.99-30.923 8.694-41.633 17.406-11.496 9.352-18.864 20.896-21.358 33.144-2.962 14.537-.05 29.315 6.318 43.221 3.2 6.988 7.389 13.673 11.758 20.327 4.023 6.127 8.23 12.592 9.042 19.41.806 6.767-2.296 13.015-5.93 19.203-3.663 6.236-7.51 12.362-8.69 19.124-2.02 11.582 4.023 23.528 14.749 32.255 5.324 4.332 12.038 7.898 19.512 10.16 9.498 2.875 19.308 5.041 29.604 4.926 21.016-.237 120.105 0 138.299 0s31.68.156 46.808-.463c18.57-.759 37.832-5.209 50.632-15.178 12.063-9.397 16.725-22.404 16.736-34.842.012-15.07-6.657-29.62-11.256-44.189-4.685-14.842-6.697-30.082-5.097-45.27z"/><path id="b" d="m0 0h446.6v216.7h-446.6z"/><path id="c" d="m4.53 24.305c-1.142-8.103-.43-5.625-1.019-9.593-1.01-6.818.333-8.626 3.427-10.892 3.735-2.736 16.675-3.53 18.142-3.377 1.468.153 4.7 8.28 4.503 9.417-.026.145-10.692-.475-16.763 2.132-1.715.736-1.576 6.199-1.648 9.272-.071 3.073 0 2.182 0 5.152 0 1.307-.906 3.393-2.365 3.585-.098.013-3.187.492-6.384.489-1.787-.003-2.54-.602-2.407-2.326.062-.801.912-1.358 1.646-1.748 1.876-.999 2.977-1.35 2.87-2.111z"/><path id="d" d="m33.608 29.495c-1.057-1.235-4.46-2.651-7.693-4.825-3.489-2.346-6.891-4.048-9.584-5.85-4.357-2.916-8.54-4.825-10.912-6.24-4.643-2.766-5.389-4.456-5.414-4.554-.258-.968 10.58-8.211 10.875-8.022 2.182 1.402 13.583 12.845 15.035 14.358 1.452 1.514 2.568 3.106 14.28 12.757.826.68 3.197 3.024 3.883 4.972.554 1.573.923 2.978-1.554 3.43-1.566.286-3.559-.024-4.512-1.166-2.12-2.541-3.686-4.021-4.404-4.86z"/><path id="e" d="m68.299 2c7.813 3.516 13.13 13.53 10.365 28.816-1.6 8.848-6.577 14.207-12.22 17.122l.011.109c.153 1.956.695 3.007 1.514 4.102.985.37 2.645.818 4.217.962 1.929.176 8.475 1.064 10.655 1.247 3.393.284 12.607 1.054 19.506 1.933 2.226.284 4.282-.222 5.74.46 2.154 1.006 2.828.826 1.647 3.453-1.182 2.627-5.193 1.002-8.186 1.002-3.284 0-6.203.687-12.635.963-2.566.11-4.662.578-8.575.823-1.22.076-4 .577-6.084.968 2.331 8.37 3.237 20.705 3.072 24.198-.153 3.242-2.496 10.558-4.464 12.833-3.315 3.83-5.959 4.74-11.318 6.077-5.841 1.456-13.025 2.103-18.396-1.316-5.196-3.307-8.825-8.753-9.576-16.203-1.18-11.704-.418-14.784 3.01-25.37-2.106-.454-5.084-1.107-6.36-1.187-3.912-.245-6.01-.713-8.575-.823-6.432-.276-9.35-.963-12.634-.963-2.993 0-7.005 1.625-8.187-1.002-1.18-2.627-.507-2.447 1.647-3.454 1.458-.681 3.515-.175 5.74-.459 6.9-.879 16.114-1.649 19.507-1.933 2.179-.183 8.726-1.07 10.654-1.247 1.575-.145 3.24-.594 4.224-.963.087-.033.163-.03.23-.016.813-1.094 1.548-2.121 2.156-3.363l.006-.012c-3.32-1.492-6.512-3.844-9.174-6.993-2.438-2.882-4.949-10.208-5.035-15-.27-15.029 2.268-17.637 7.53-21.985 5.264-4.347 22.176-6.297 29.989-2.779z"/><path id="f" d="m13.061 4.597c5.263-4.348 22.175-6.298 29.989-2.78 7.812 3.517 13.13 13.53 10.364 28.817-1.6 8.847-6.577 14.206-12.22 17.121l.012.11c.371 4.755 3.042 4.157 6.407 11.867 3.364 7.71 4.658 24.124 4.464 28.243-.153 3.242-2.497 10.559-4.464 12.833-3.315 3.83-5.959 4.741-11.318 6.077-5.842 1.456-13.025 2.103-18.397-1.316-5.195-3.307-8.824-8.752-9.575-16.203-1.197-11.866-.397-14.867 3.154-25.813 2.973-9.165 6.284-10.936 8.258-14.967l.005-.012c-3.32-1.492-6.511-3.844-9.174-6.992-2.437-2.883-4.948-10.209-5.034-15-.27-15.03 2.268-17.638 7.53-21.985z"/><path id="g" d="m17.553.416c2.8 0 1.54 9.902.728 10.516-.17.13-13.063 9.105-12.321 20.17.37 1.065.446 2.418.446 2.986 0 .988.606 4.358 0 5.04-.605.683-2.41 1.8-3.87.648-1.093-.866-2.526-5.458-1.846-8.27-.748-10.644 5.219-23.317 9.135-26.741 1.917-1.677 2.248-1.733 3.405-2.33 1.157-.598 3.575-2.019 4.323-2.019z"/><path id="h" d="m10.166 5.315c-.728 1.234-2.15-2.004-5.064-.955-2.912 1.05-5.102-.212-5.102-1.652s1.143-2.608 2.552-2.608c1.41 0 9.502 2.015 7.614 5.215"/><linearGradient id="i" x1="23.751%" x2="100%" y1="55.551%" y2="23.776%"><stop offset="0" stop-color="#1b7cb5"/><stop offset="1" stop-color="#0f72ad"/></linearGradient><filter id="j" height="129.4%" width="128.8%" x="-14.4%" y="-14.7%"><feOffset in="SourceAlpha" result="shadowOffsetOuter1"/><feGaussianBlur in="shadowOffsetOuter1" result="shadowBlurOuter1" stdDeviation="4"/><feColorMatrix in="shadowBlurOuter1" result="shadowMatrixOuter1" values="0 0 0 0 0.468523551 0 0 0 0 0.467095125 0 0 0 0 0.467095125 0 0 0 0.5 0"/><feMerge><feMergeNode in="shadowMatrixOuter1"/><feMergeNode in="SourceGraphic"/></feMerge></filter><mask id="k" fill="#fff"><use fill="#fff" fill-rule="evenodd" xlink:href="#a"/></mask><mask id="l" fill="#fff"><use fill="#fff" fill-rule="evenodd" xlink:href="#b"/></mask><mask id="m" fill="#fff"><use fill="#fff" fill-rule="evenodd" xlink:href="#c"/></mask><mask id="n" fill="#fff"><use fill="#fff" fill-rule="evenodd" xlink:href="#d"/></mask><mask id="o" fill="#fff"><use fill="#fff" fill-rule="evenodd" xlink:href="#e"/></mask><mask id="p" fill="#fff"><use fill="#fff" fill-rule="evenodd" xlink:href="#f"/></mask><mask id="q" fill="#fff"><use fill="#fff" fill-rule="evenodd" xlink:href="#g"/></mask><mask id="r" fill="#fff"><use fill="#fff" fill-rule="evenodd" xlink:href="#h"/></mask></defs><g fill="none" fill-rule="evenodd"><use fill="#1073ae" xlink:href="#a"/><g mask="url(#k)"><g transform="translate(-57.3 -20.9)"><use fill="#2274a5" xlink:href="#b"/><path d="m147.378 0h299.222v216.654c-78.523 1.041-141.433-15.56-188.73-49.806-47.295-34.246-84.126-89.862-110.491-166.848z" fill="url(#i)" mask="url(#l)"/></g></g><g mask="url(#k)"><path d="m.45 165.576c.703 17.082 6.997 33.829 16.805 46.686 5.936 7.78 13.42 14.184 21.752 18.247 10.589 5.163 22.051 7.104 33.53 6.897 23.428-.426 45.732-9.215 68.814-12.55 8.843-1.275 17.83-1.745 26.664-.467 19.677 5.322 39.508 10.14 59.63 12.687 16.787 2.123 33.856 2.56 50.72 1.449 20.703-1.364 42.175-9.356 56.444-27.26 10.105-12.685 15.552-29.028 17.641-45.848-75.166.113-284.843.394-352 .159" fill="#1a5a80" transform="translate(-7.25)"/><path d="m228.155 185.386c-.445-.375-1.062-.586-1.704-.586h-103.101c-.643 0-1.26.211-1.705.586l-20.076 16.868c-.802.674-.21 1.796.946 1.796h144.77c1.157 0 1.748-1.122.946-1.796z" fill="#002134" transform="translate(-7.25)"/></g><g mask="url(#k)" opacity=".6"><g fill="#000" fill-opacity=".1"><g transform="translate(208.385 122.957)"><rect height="7.775" rx="3.888" width="17.511" x=".15" y=".047"/><rect height="7.775" rx="3.888" width="17.511" x="22.08" y=".047"/><rect height="7.774" rx="3.887" width="17.511" x="11.115" y="10.381"/></g><g transform="translate(86.511 89.864)"><rect height="7.775" rx="3.888" width="17.51" x=".14" y=".058"/><rect height="7.775" rx="3.888" width="17.511" x="22.07" y=".058"/><rect height="7.774" rx="3.887" width="17.511" x="11.105" y="10.392"/></g><g transform="translate(178.161 26.361)"><rect height="7.775" rx="3.888" width="17.512" x="21.453" y=".01"/><rect height="7.775" rx="3.888" width="17.512" x="21.453" y="22.068"/><rect height="7.775" rx="3.888" width="17.512" x=".215" y=".01"/><rect height="7.774" rx="3.887" width="17.512" x="11.755" y="11.197"/></g><g transform="translate(100.961 27.86)"><rect height="7.774" rx="3.887" width="10.243" x=".046" y=".043"/><rect height="7.774" rx="3.887" width="17.51" x="13.964" y=".043"/><rect height="7.774" rx="3.887" width="17.51" x="13.964" y="22.107"/><rect height="7.775" rx="3.888" width="17.511" x="4.379" y="11.148"/></g></g><path d="m.406 6.282h53.7v59.187h-53.7z" fill="#3c6c86" transform="translate(-2.307 34.722)"/><path d="m.406.152v6.13h50.95c1.519 0 2.75 1.231 2.75 2.75v53.687c0 1.519-1.231 2.75-2.75 2.75h-50.95v6.13h53.239c3.038 0 5.5-2.463 5.5-5.5v-60.447c0-3.037-2.462-5.5-5.5-5.5h-53.24z" fill="#205a7b" transform="translate(-2.307 34.722)"/><path d="m54.106 57.372v3.154h-53.7v-3.154zm0-7.798v3.155h-53.7v-3.155zm0-7.795v3.154h-53.7v-3.153h53.7zm0-7.797v3.155h-53.7v-3.155zm0-7.796v3.155h-53.7v-3.155zm0-7.797v3.154h-53.7v-3.153h53.7zm0-7.796v3.155h-53.7v-3.155z" fill="#fff" transform="translate(-2.307 34.722)"/><g transform="translate(265.663 34.995)"><path d="m.139.136h67.294v130.158h-67.294z" fill="#205a7b"/><path d="m5.244 4.702h62.189v125.593h-62.189z" fill="#3c6c86"/><g fill="#224862"><path d="m9.34 4.702v125.13c-2.262 0-4.096-1.834-4.096-4.097v-116.937c0-2.262 1.834-4.096 4.096-4.096z"/><rect height="33.158" rx="2.75" width="52.792" x="14.641" y="13.184"/><rect height="33.157" rx="2.75" width="52.792" x="14.641" y="50.919"/><rect height="33.158" rx="2.75" width="52.792" x="14.641" y="88.653"/></g><path d="m17.39 13.184h.382v33.158h-.381c-1.52 0-2.75-1.232-2.75-2.75v-27.658c0-1.52 1.23-2.75 2.75-2.75zm0 37.736h.382v33.156h-.381c-1.52 0-2.75-1.23-2.75-2.75v-27.656c0-1.518 1.23-2.75 2.75-2.75zm0 37.733h.382v33.158h-.381c-1.52 0-2.75-1.231-2.75-2.75v-27.658c0-1.519 1.23-2.75 2.75-2.75z" fill="#000" fill-opacity=".1"/><path d="m48.419 98.803c.345.375.32.961-.055 1.307l-14.656 13.512c-.375.346-.96.322-1.306-.054-.345-.376-.321-.962.054-1.307l14.655-13.513c.377-.345.962-.321 1.308.055zm8.327-.355c.345.376.32.962-.056 1.308l-14.655 13.512c-.375.346-.96.322-1.306-.054s-.322-.962.054-1.307l14.655-13.513c.376-.345.961-.321 1.308.054zm-8.327-37.34c.345.376.32.96-.055 1.306l-14.656 13.513c-.375.346-.96.322-1.306-.055-.345-.375-.321-.96.054-1.307l14.655-13.511c.377-.347.962-.322 1.308.053zm8.327-.355c.345.377.32.962-.056 1.307l-14.655 13.512c-.375.347-.96.323-1.306-.054-.346-.376-.322-.96.054-1.307l14.655-13.511c.376-.347.961-.322 1.308.053zm-8.327-39.053c.345.375.32.96-.055 1.307l-14.656 13.513c-.375.346-.96.322-1.306-.054-.345-.377-.321-.962.054-1.307l14.655-13.513c.377-.346.962-.32 1.308.055zm8.327-.355c.345.376.32.96-.056 1.308l-14.655 13.512c-.375.346-.96.322-1.306-.055s-.322-.961.054-1.307l14.655-13.512c.376-.346.961-.321 1.308.054z" fill="#fff"/></g><path d="m60.508 27.498h-56.743l-3.765-4.329h64.273z" fill="#87a5b8" transform="translate(191.3 70.95)"/><path d="m16.809 26.716h7.795v-5.53h-7.795z" fill="#376288" transform="translate(191.3 70.95)"/><path d="m16.809 26.716h7.795v-2.765h-7.795z" fill="#224862" transform="translate(191.3 70.95)"/><path d="m39.67 26.716h7.794v-5.53h-7.794z" fill="#376288" transform="translate(191.3 70.95)"/><path d="m39.67 26.716h7.794v-2.765h-7.794z" fill="#224862" transform="translate(191.3 70.95)"/><path d="m0 23.18h64.273v-4.329h-64.273z" fill="#f3f4f1" transform="translate(191.3 70.95)"/><path d="m58.28 18.851h-52.087v-6.283h52.087c1.733 0 3.14 1.407 3.14 3.142s-1.407 3.141-3.14 3.141" fill="#205a7b" transform="translate(191.3 70.95)"/><path d="m61.312 14.904c-.355-1.344-1.577-2.336-3.032-2.336h-52.087v2.336z" fill="#000" fill-opacity=".1" transform="translate(191.3 70.95)"/><path d="m59.828 6.283h-52.087v-6.283h52.087c1.734 0 3.141 1.406 3.141 3.141s-1.407 3.142-3.14 3.142" fill="#205a7b" transform="translate(191.3 70.95)"/><path d="m62.86 2.335c-.355-1.343-1.577-2.335-3.032-2.335h-52.087v2.335h55.12" fill="#000" fill-opacity=".1" transform="translate(191.3 70.95)"/><path d="m57.352 12.565h-52.088v-6.282h52.088c1.734 0 3.14 1.406 3.14 3.141s-1.406 3.141-3.14 3.141" fill="#205a7b" transform="translate(191.3 70.95)"/><path d="m60.384 8.618c-.355-1.344-1.577-2.335-3.032-2.335h-52.088v2.335z" fill="#000" fill-opacity=".1" transform="translate(191.3 70.95)"/></g><g mask="url(#k)"><path d="m.16 2.394c0-1.286.915-2.329 2.044-2.329h101.29c1.13 0 2.045 1.043 2.045 2.33v32.437c-1.679 2.356-3.369 1.732-5.048 0v-23.004h-95.284v23.004c-1.68 2.19-3.364 2.128-5.046 0z" fill="#224862" transform="translate(-.934 139.807)"/><path d="m103.495.065h-101.291c-1.129 0-2.044 1.043-2.044 2.33v1.697h105.378v-1.698c0-1.286-.915-2.329-2.044-2.329z" fill="#000" fill-opacity=".2" transform="translate(-.934 139.807)"/><path d="m30.223 16.818h-1.961v-9.95c0-2.557-2.08-4.636-4.636-4.636s-4.636 2.08-4.636 4.636v9.95h-1.962v-9.95c0-3.638 2.96-6.597 6.598-6.597s6.597 2.959 6.597 6.597z" fill="#fff" transform="translate(54.161 111.714)"/><path d="m46.543 28.159c.291-.774.458-1.609.458-2.484v-8.107c0-3.9-3.162-7.062-7.061-7.062h-32.627c-3.9 0-7.062 3.162-7.062 7.062v8.107c0 .875.167 1.71.459 2.484z" fill="#ed4f62" transform="translate(54.161 111.714)"/><path d="m7.313 10.506c-3.9 0-7.062 3.162-7.062 7.061v8.107c0 .876.167 1.711.459 2.484l36.974-17.653h-30.37z" fill="#000" fill-opacity=".1" transform="translate(54.161 111.714)"/><path d="m39.94 10.506h-32.627c-3.9 0-7.062 3.162-7.062 7.061v1.062c0-3.9 3.163-7.061 7.062-7.061h32.627c3.9 0 7.06 3.162 7.06 7.061v-1.062c0-3.9-3.16-7.061-7.06-7.061z" fill="#fff" transform="translate(54.161 111.714)"/><path d="m13.327 28.159v-17.282c0-1.018-.824-1.844-1.841-1.844-1.019 0-1.844.826-1.844 1.844v17.281h3.685zm24.948 0v-17.282c0-1.018-.826-1.844-1.844-1.844s-1.843.826-1.843 1.844v17.281h3.687zm-11.515-9.303c0 1.542-1.25 2.794-2.792 2.794-1.544 0-2.793-1.252-2.793-2.794 0-1.543 1.25-2.793 2.793-2.793 1.541 0 2.792 1.25 2.792 2.793z" fill="#fff" transform="translate(54.161 111.714)"/><path d="m5.956 11.405c-.498 0-.743.397-.743.893l-.157 2.294c0 .497.402.9.9.9.495 0 .898-.403.898-.9l-.128-2.256c0-.496-.275-.931-.77-.931zm0 3.711c-.308 0-.559-.25-.559-.558s.25-.558.559-.558c.307 0 .556.25.556.558s-.25.558-.556.558z" fill="#b03241" transform="translate(54.161 111.714)"/><g fill="#c83446"><path d="m.952 2.987h5.32v-1.256c0-.21-.17-.38-.379-.38h-4.562c-.21 0-.38.17-.38.38v1.256z" transform="translate(44.847 123.169)"/><path d="m2.712.536h1.8v1h-1.8z" transform="translate(44.847 123.169)"/><path d="m2.66.736h1.904c.088 0 .16-.072.16-.16v-.322c0-.088-.072-.16-.16-.16h-1.904c-.089 0-.16.072-.16.16v.322c0 .088.071.16.16.16z" transform="translate(44.847 123.169)"/></g><path d="m7.221 10.455v5.67c0 .421-.342.764-.764.764h-5.69c-.421 0-.763-.343-.763-.764v-5.67c0-.316.193-.601.49-.712h6.236c.296.11.49.396.49.712zm-7.218-4.037v-2.668c0-.421.343-.763.764-.763h5.69c.421 0 .764.342.764.763v2.668c0 .316-.194.602-.49.712h-6.238c-.296-.11-.49-.396-.49-.712z" fill="#ed4f62" transform="translate(44.847 123.169)"/><path d="m1.398 8.437c0-.598-.376-1.109-.905-1.307h6.238c-.528.198-.904.71-.904 1.307s.376 1.108.904 1.306h-6.238c.529-.199.905-.709.905-1.306z" fill="#b03241" transform="translate(44.847 123.169)"/><path d="m1.165 9.21c.082-.125.146-.264.185-.412-.04.148-.104.287-.186.41v.001z" fill="#b3b2b3" transform="translate(44.847 123.169)"/><path d="m.004 16.153v-5.698zm.53-6.426c.258-.107.478-.288.631-.518-.154.23-.373.411-.63.518z" fill="#a4a3a4" transform="translate(44.847 123.169)"/><path d="m4.513.736h.05c.03 0 .06-.01.085-.024-.024.015-.054.024-.084.024zm.135-.618c-.024-.016-.054-.024-.084-.024.03 0 .06.008.084.024z" fill="#f7f8f9" transform="translate(44.847 123.169)"/><path d="m4.164 1.351h.349v-.615h-.318-.031z" fill="#000" fill-opacity=".1" transform="translate(44.847 123.169)"/><path d="m4.195.736h.368c.03 0 .06-.01.085-.024.045-.028.075-.079.075-.136v-.322c0-.058-.03-.109-.075-.136-.024-.016-.054-.024-.084-.024h-.369c.055 0 .1.072.1.16v.322c0 .088-.045.16-.1.16zm1.05 2.251h1.028v-1.256c0-.21-.17-.38-.38-.38h-.88c.128 0 .232.17.232.38zm.113 13.901h1.1c.42 0 .76-.338.763-.756v-5.677c0-.317-.194-.602-.49-.712h-1.205c.181.11.301.395.301.712v5.67c0 .421-.21.763-.469.763zm.168-9.758h1.204c.296-.11.49-.396.49-.712v-2.668c0-.421-.343-.763-.764-.763h-1.212.114c.258 0 .468.342.468.763v2.668c0 .316-.12.602-.3.712zm0 2.613h1.204c-.529-.199-.904-.709-.904-1.306 0-.598.375-1.109.904-1.307h-1.204c-.325.198-.556.71-.556 1.307s.231 1.107.556 1.306z" fill="#000" fill-opacity=".1" transform="translate(44.847 123.169)"/><path d="m1.34 3.286h16.729c.648 0 1.177.53 1.177 1.177v.972c0 .647-.53 1.176-1.177 1.176h-16.73c-.647 0-1.177-.53-1.177-1.176v-.972c0-.647.53-1.177 1.177-1.177z" fill="#fff" transform="translate(24.159 133.261)"/><path d="m1.34.185h16.729c.648 0 1.177.53 1.177 1.178v.97c0 .648-.53 1.178-1.177 1.178h-16.73c-.647-.001-1.177-.531-1.177-1.178v-.97c0-.648.53-1.178 1.177-1.178z" fill="#3e6993" transform="translate(24.159 133.261)"/></g><g mask="url(#k)"><path d="m9.473 0h-4.583c-2.7 0-4.89 2.19-4.89 4.89v5.3c0 2.7 2.189 4.889 4.89 4.889h4.583c2.7 0 4.89-2.19 4.89-4.89v-5.3c0-2.7-2.19-4.889-4.89-4.889" fill="#3c6c86" transform="matrix(-1 0 0 1 85.7 179.85)"/><path d="m11.79 0h-4.582c-2.7 0-4.89 2.19-4.89 4.89v5.3c0 2.7 2.19 4.889 4.89 4.889h4.584c2.7 0 4.889-2.19 4.889-4.89v-5.3c-.001-2.699-2.191-4.889-4.891-4.889" fill="#224862" transform="matrix(-1 0 0 1 85.7 179.85)"/><path d="m7.207 12.634c-1.348 0-2.445-1.096-2.445-2.445v-5.3c0-1.348 1.097-2.444 2.445-2.444h4.584c1.347 0 2.444 1.096 2.444 2.444v5.3c0 1.349-1.097 2.445-2.444 2.445z" fill="#000" fill-opacity=".1" transform="matrix(-1 0 0 1 85.7 179.85)"/><path d="m12.694 7.645-2.632-1.15c-.744-.256-1.502-.012-1.728.643-.225.655.194 1.394.938 1.65l4.134 1.767c.744.256 1.478.083 1.703-.572.226-.655-.194-1.394-.938-1.65" fill="#87a5b8" transform="matrix(-1 0 0 1 85.7 179.85)"/><path d="m19.792 4.4h-4.747c-2.797 0-5.064 2.267-5.064 5.064v5.49c0 2.796 2.267 5.063 5.064 5.063h4.747c2.797 0 5.064-2.267 5.064-5.064v-5.489c0-2.797-2.267-5.064-5.064-5.064" fill="#3c6c86" transform="matrix(-1 0 0 1 85.7 179.85)"/><path d="m22.192 4.4h-4.747c-2.797 0-5.064 2.267-5.064 5.064v5.49c0 2.796 2.267 5.063 5.064 5.063h4.747c2.797 0 5.064-2.267 5.064-5.064v-5.489c0-2.797-2.267-5.064-5.064-5.064" fill="#224862" transform="matrix(-1 0 0 1 85.7 179.85)"/><path d="m17.445 17.485c-1.396 0-2.532-1.135-2.532-2.532v-5.489c0-1.396 1.136-2.532 2.532-2.532h4.747c1.396 0 2.532 1.136 2.532 2.532v5.49c0 1.396-1.136 2.531-2.532 2.531z" fill="#000" fill-opacity=".1" transform="matrix(-1 0 0 1 85.7 179.85)"/><path d="m2.727 1.315c0-.387-.201-.726-.504-.922v-.178h-.596c-.607 0-1.1.493-1.1 1.1 0 .608.493 1.1 1.1 1.1h.596v-.177c.303-.196.504-.535.504-.923" fill="#87a5b8" transform="matrix(-1 0 0 1 68.077 190.635)"/><path d="m2.177.215c-.607 0-1.1.493-1.1 1.1 0 .608.493 1.1 1.1 1.1.608 0 1.1-.492 1.1-1.1 0-.607-.492-1.1-1.1-1.1" fill="#f3f4f1" transform="matrix(-1 0 0 1 68.077 190.635)"/></g><g mask="url(#k)"><path d="m36.938 3.376c-11.68-6.854-26.707-2.941-33.562 8.74-6.854 11.68-2.941 26.707 8.74 33.562 11.682 6.854 26.707 2.94 33.562-8.74s2.942-26.707-8.74-33.562" fill="#f9cb51" transform="translate(275.45 143.197)"/><path d="m36.938 3.376c-11.68-6.854-26.707-2.941-33.562 8.74-6.854 11.68-2.941 26.707 8.74 33.562 11.682 6.854 26.707 2.94 33.562-8.74s2.942-26.707-8.74-33.562" fill="#ebb25a" transform="translate(275.45 143.197)"/><path d="m13.647 37.602c-7.918-4.647-12.265-13.048-12.111-21.617-4.082 10.948.155 23.575 10.58 29.693 11.682 6.854 26.707 2.94 33.562-8.74 2.208-3.764 3.298-7.873 3.37-11.947-.49 1.32-1.103 2.615-1.84 3.871-6.854 11.68-21.88 15.594-33.561 8.74" fill="#000" fill-opacity=".1" transform="translate(275.45 143.197)"/><path d="m36.938 3.376c-7.002-4.109-15.207-4.348-22.132-1.363 1.773 1.995 3.932 3.786 6.43 5.25 7.432 4.363 15.909 4.694 22.103 1.524-1.758-2.102-3.901-3.944-6.401-5.41" fill="#fff" fill-opacity=".1" transform="translate(275.45 143.197)"/><path d="m31.017 0c-17.13 0-31.017 13.887-31.017 31.018 0 17.13 13.887 31.017 31.017 31.017s31.017-13.887 31.017-31.017c0-17.131-13.887-31.018-31.017-31.018" fill="#e08f13" transform="translate(243.55 142.45)"/><g fill-opacity=".1"><path d="m58.534 21.228c0 17.13-13.887 31.016-31.017 31.016-11.611 0-21.732-6.38-27.047-15.827 2.555 14.556 15.259 25.618 30.547 25.618 17.13 0 31.017-13.887 31.017-31.018 0-5.518-1.443-10.7-3.97-15.188.308 1.753.47 3.557.47 5.399" fill="#000" transform="translate(243.55 142.45)"/><path d="m6 12.682c3.213 1.04 6.713 1.612 10.375 1.612 10.901 0 20.36-5.066 25.09-12.488-3.265-1.168-6.783-1.806-10.449-1.806-10.269 0-19.371 4.992-25.016 12.682" fill="#fff" transform="translate(243.55 142.45)"/></g></g><g mask="url(#k)"><g transform="translate(125.844 167.755)"><use fill="#fff" xlink:href="#c"/><path d="m11.782 35.08c-2.462-1.276-4.152-17.36-1.655-23.421 1.226-2.974 5.314-3.904 9.767-4.685 3.377-.592 8.594-.321 10.39.27 1.796.592 6.416 5.694 6.36 5.952-1.652 7.685-10.13 3.202-7.062 12.955-5.352.101-17.335 9.172-17.8 8.93z" fill="#000" fill-opacity=".1" mask="url(#m)"/></g><g transform="translate(173.026 164.392)"><use fill="#fff" xlink:href="#d"/><path d="m4.224 16.557c-.46-1-3.503-6.316-1.721-6.984 2.92-1.094 6.493.654 10.96 3.628 4.466 2.973 30.506 16.728 27.542 27.006-2.922-.008-14.326-8.139-23.771-14.57-6.492-4.419-12.21-7.333-13.01-9.08z" fill="#000" fill-opacity=".1" mask="url(#n)"/></g><g filter="url(#j)" transform="translate(111.55 71.5)"><use fill="#fff" xlink:href="#e"/><g mask="url(#o)"><g transform="translate(25.25 .183)"><path d="m13.061 4.597c5.263-4.348 22.175-6.298 29.989-2.78 7.812 3.517 13.13 13.53 10.364 28.817-1.6 8.847-6.577 14.206-12.22 17.121l.012.11c.371 4.755 3.042 4.157 6.407 11.867 3.364 7.71 4.658 24.124 4.464 28.243-.153 3.242-2.497 10.559-4.464 12.833-3.315 3.83-5.959 4.741-11.318 6.077-5.842 1.456-13.025 2.103-18.397-1.316-5.195-3.307-8.824-8.752-9.575-16.203-1.197-11.866-.397-14.867 3.154-25.813 2.973-9.165 6.284-10.936 8.258-14.967l.005-.012c-3.32-1.492-6.511-3.844-9.174-6.992-2.437-2.883-4.948-10.209-5.034-15-.27-15.03 2.268-17.638 7.53-21.985z" fill="#fff"/><use fill="#fff" xlink:href="#f"/><g fill="#000"><path d="m17.757 50.327c-2.739-.657-1.274-1.607-5.914-5.245-3.637-2.852-4.611-4.06-5.662-10.439-.293-1.775-.932-5.368-1.03-8.062-.038-1.03.358-1.949.36-2.555.784 4.769 2.167 9.412 4.36 13.634 3.443 6.627 8.976 10.328 15.857 11.41 1.163.183 2.939.56 4.095.56 6.854 0 13.036-2.85 18.028-8.04 2.252-2.345 3.832-5.186 4.937-8.31-.193.82.803.836.579 1.617-.85 2.953-3.14 6.363-4.538 8.326-4.4 6.179-10.377 8.736-18.315 9.021-7.937.286-11.029-1.47-12.757-1.917z" fill-opacity=".2" mask="url(#p)"/><path d="m18.442 46.643c-1.06-.553-2.587-1.562-4.253-3.135-1.74-1.643-3.484-3.992-4.623-6.47-.36-.78-1.057-2.23-1.347-3.026-.312-.852-.817-2.17-1.258-3.621-.377-1.241-.693-2.586-.956-3.765-.332-1.487-.402-1.93-.494-2.77.233 1.293.72 2.533.997 3.75.488 2.15 1.344 3.896 2.19 5.928.292.7.706 1.708 1.102 2.404 3.454 6.057 8.714 9.952 15.618 10.94 1.167.168 2.333.249 3.493.249 6.877 0 13.524-2.853 18.532-7.598 2.26-2.143 4.575-4.765 5.683-7.62-.105.406-.17.898-.338 1.37-.3.84-.692 1.696-.972 2.35-.095.223-.424.826-.512 1.03-.8 1.86-1.547 2.862-2.802 4.224-1.532 1.662-3.522 3.294-5.076 4.477-3.358 2.557-8.982 4.27-13.603 4.27-1.054 0-2.1-.24-3.116-.395-2.139-.328-4.14-.793-5.763-1.434-.988-.39-1.862-.824-2.502-1.158z" fill-opacity=".1" mask="url(#p)"/><path d="m18.35 106.401c-4.658-2.442-7.38-6.08-9.077-11.114-.682-2.023-.814-4.338-1.47-6.526-1.07-3.568-1.07-4.058-.437-6.16-.014.7.792 2.07.98 2.86 1.254 5.258 3.978 10.9 6.252 13.738 2.104 2.626 9.34 5.98 14.232 5.98 4.893 0 15.816-4.216 18.75-8.593 2.306-3.44 4.687-11.388 4.515-15.508.243 1.405.513 4.626.452 6.027v1.176c-.145 3.291-1.741 7.708-3.361 10.597-2.694 4.8-6.828 6.941-12.25 8.382-2.462.654-5.81.804-8.339.804-1.68 0-3.337.033-4.818-.297-1.988-.443-3.727-.475-5.428-1.366z" fill-opacity=".2" mask="url(#p)"/><path d="m53.517 40.028c-.021 0 2.206-3.054 2.206-8.33 0-5.278-2.04-11.586-5.947-16.8-1.716-2.293-2.237-2.757-1.353-.609.657 1.595.858 2.324 1.866 4.961 1.045 2.73 1.38 3.504 2.409 7.695.52 2.122-1.505 10.958-.779 11.132.204.05 1.832 1.951 1.598 1.951z" fill-opacity=".1" transform="translate(0 51.464)"/></g><g transform="translate(.05 51.598)"><use fill="#fff" xlink:href="#g"/><path d="m6.155 39.894c.021 0-2.206-3.053-2.206-8.33 0-5.278 2.04-11.585 5.947-16.8 1.716-2.293 2.237-2.757 1.353-.608-.657 1.594-.858 2.324-1.866 4.96-1.045 2.73-1.38 3.505-2.409 7.695-.52 2.122 1.505 10.958.779 11.132-.204.05-1.832 1.951-1.598 1.951z" fill="#000" fill-opacity=".1" mask="url(#q)"/></g><path d="m2.25 63.594c4.894-13.62 9.854-17.856 14.878-12.71 2.417 2.475 8.645 4.27 12.212 4.17 4.878-.135 9.118-1.871 12.72-5.207 4.117 1.581 6.824 3.055 8.122 4.422 1.297 1.368 2.933 4.214 4.906 8.54l-3.628 4.297c-.246.11-.246.465 0 1.065.384.935-.768 3.054 0 6.91 1.103 5.536 1.095 12.272.635 14.418-4.789 2.988-9.88 5.911-23.16 5.911-8.854 0-15.678-1.064-20.472-3.193-1.068-6.382-1.5-10.7-1.295-12.957.429-4.726 1.027-6.238 1.816-9.7.568-2.494 1.007-2.454.582-2.454-.945 0-3.383-1.17-7.316-3.512z" fill="#002134"/></g></g><g mask="url(#o)"><path d="m33.155 5.043c0 2.66-2.141 4.815-4.783 4.815-2.641 0-4.782-2.156-4.782-4.815 0-2.66 2.141-4.816 4.782-4.816 2.642 0 4.783 2.156 4.783 4.816" fill="#222039" transform="translate(37.988 20.542)"/><path d="m31.433 2.767c0 .734-.592 1.329-1.321 1.329-.73 0-1.321-.595-1.321-1.329s.592-1.33 1.32-1.33c.73 0 1.322.596 1.322 1.33m.289 1.842c0 .283-.228.513-.509.513s-.509-.23-.509-.513.228-.513.51-.513c.28 0 .508.23.508.513" fill="#fff" transform="translate(37.988 20.542)"/><path d="m9.721 5.029c0 2.59-2.103 4.69-4.698 4.69s-4.7-2.1-4.7-4.69 2.105-4.69 4.7-4.69 4.697 2.101 4.697 4.691" fill="#222039" transform="translate(37.988 20.542)"/><path d="m8.03 2.815c0 .714-.582 1.293-1.298 1.293-.717 0-1.298-.58-1.298-1.293 0-.715.58-1.294 1.298-1.294.716 0 1.297.58 1.297 1.294m.285 1.792c0 .275-.224.498-.5.498-.277 0-.501-.223-.501-.498 0-.276.224-.499.5-.499.277 0 .501.223.501.499" fill="#fff" transform="translate(37.988 20.542)"/><path d="m0 0h19.25v16.5h-19.25z" transform="translate(46.2 29.15)"/><g transform="matrix(.98162718 .190809 .190809 -.98162718 50.152124 39.855621)"><use fill="#222039" xlink:href="#h"/><path d="m9.453 2.104c-4.766 1.215-8.568-.208-8.568-1.612 0-1.405 2.143-1.352 4.286-1.065 2.308.31 5.387 2.395 4.282 2.677" fill="#ed4f62" mask="url(#r)"/></g></g></g><path d="m0 0h24.75v24.75h-24.75z" transform="translate(155 59.95)"/><path d="m22.462 7.95c.291-.836.437-1.518.437-2.046 0-.644-.04-1.512-.118-2.604-.906 1.998-2.32 4.53-4.02 6.05-2.415 2.22-5.693 2.646-8.713 3.842-2.001.802-2.872 2.518-3.209 4.456h5.677c4.537-1.562 7.988-5.336 9.946-9.698z" fill="#ed4f62" transform="translate(155 59.95)"/><path d="m22.554 7.386c-2.184 4.411-5.224 8.682-10.285 10.262h3.727c.072 0 .258-.003.556-.01 2.893-.057 5.487-1.793 6.644-4.445-.019-.009.287-.585.443-1.203.155-.619.513-1.994.12-2.825-.375-.792-.777-1.385-1.205-1.779z" fill="#b03241" transform="translate(155 59.95)"/><path d="m13.462 8.284c.302-.301.443-.266.633-.654.213-.279.3-1.514.3-1.8 0-.69-.1-1.534-.3-2.53 0 0-1.312 2.673-7.61 2.673-4.91 0-5.256 4.828-5.17 6.95-.068.025.2 1.286.26 1.501.263.902.85 1.797 1.761 2.683.357.347.836.54 1.334.54h1.586c.156-1.534.47-2.965 1.22-4.345 1.373-2.5 4.174-3.034 5.986-5.018z" fill="#ed4f62" transform="translate(155 59.95)"/><path d="m22.462 4.152.32-.852c-5.432.233-8.052 3.186-8.52 3.781-.191.389-.443.751-.755 1.053-1.822 1.986-4.599 2.59-5.987 5.094-.755 1.381-1.154 2.883-1.319 4.42h.868c.338-1.96 1.206-3.695 3.227-4.507 3.037-1.208 6.334-1.64 8.763-3.884 1.71-1.537 2.492-3.094 3.403-5.105z" fill="#b03241" transform="translate(155 59.95)"/><g fill="#ed4f62"><path d="m9.42 17.329s-2.929 4.846 3.477 6.696z" transform="translate(155 59.95)"/><path d="m15.767 20.78s-2.93.741-6.377-3.132l6.377 3.131z" transform="translate(155 59.95)"/></g></g></g></svg>