<svg height="273" viewBox="0 0 410 273" width="410" xmlns="http://www.w3.org/2000/svg" xmlns:xlink="http://www.w3.org/1999/xlink"><defs><path id="a" d="m19.52 208.344c17.41-21.53 11.26-50.013 1.069-74.362-10.191-24.35-23.949-49.13-19.819-74.578 3.685-22.892 22.939-43.776 49.085-53.287 26.147-9.51 58.325-7.36 82.154 5.52 11.677 6.308 22.195 15.245 36.1 16.846 27.87 3.25 48.817-24.062 76.984-24.493 17.085-.262 31.822 9.606 42.488 20.312 10.667 10.705 19.402 23.059 33.04 31.327 14.47 8.77 32.802 11.947 49.59 17.372 16.787 5.424 33.812 14.695 37.853 28.89 6.27 22.007-21.274 42.007-20.59 64.588.505 16.345 15.569 29.965 20.798 45.76 8.587 26.046-15.316 56.555-48.415 60.761h-292.752c-19.62.64-41.346-5.634-51.33-18.633-9.953-12.975-6.596-33.215 3.744-46.023z"/><path id="b" d="m0 0h666.25v285.967h-666.25z"/><path id="c" d="m17.175.003c2.669.237 16.909 9.711 16.55 11.47-.058.28-12.227 15.715-12.87 39.216-.12 4.424 0 8.659 0 13.61 0 2.024.915 6.903-1.74 7.2-.176.02-8.684 3.482-14.496 3.476-3.249-.005-5.428-1.795-3.389-3.475s11.253-4.544 10.85-6.114c-7.265-28.249-5.631-50.566-5.347-51.956.36-1.76 7.777-13.663 10.442-13.427zm40.374 16.097c.283 1.39 2.767 21.03-4.496 49.272-.403 1.57 7.892 3.196 10.136 6.113.791 1.028-1.295 3.283-4.86 3.474-5.415.289-14.038-3.456-14.205-3.474-2.653-.297-.683-5.01-.683-7.185 0-5.806.161-10.071 0-14.539-.684-18.877-6.205-31.562-6.261-31.83-.36-1.758 8.109-17.691 10.777-17.928 2.67-.236 9.233 14.337 9.593 16.097z"/><path id="d" d="m78.18 3.635c14.205 6.395 23.874 24.6 18.845 52.395-2.908 16.085-11.957 25.83-22.217 31.128l.02.2c.296 3.785 1.392 5.705 3.045 7.843 1.894.71 5 2.51 6.666 3.371 2.104 1.086 2.705 1.189 6.191 4.237 7.255 6.344 18.381 30.145 16.52 49.715.68 5.132-1.707 12.477-3.56 13.941-2.653 2.097-5.936.064-7.036-1.177s0-7.368 0-9.164c0-1.185.183-4.25 1.142-6.245.23-6.69-2.236-12.935-5.61-18.28 1.884 12.117 2.615 24.278 2.407 28.689-.278 5.894-4.539 19.197-8.117 23.332-6.027 6.964-10.834 8.62-20.578 11.048-10.62 2.648-23.682 3.824-33.448-2.392-9.446-6.012-16.045-15.913-17.41-29.46-1.427-14.156-1.292-21.373.793-30.283-3.208 5.353-5.44 11.553-4.997 18.163.672 1.936.812 4.396.812 5.428 0 1.796 1.1 7.923 0 9.164s-4.383 3.274-7.036 1.177c-1.99-1.572-4.594-9.922-3.36-15.035-1.358-19.353 9.49-42.395 16.612-48.621 3.486-3.048 4.087-3.15 6.19-4.237 2.039-1.052 6.23-3.51 7.725-3.662 1.513-2.037 2.882-3.935 4.01-6.24l.01-.021c-6.036-2.713-11.84-6.99-16.68-12.714-4.431-5.24-8.996-18.56-9.153-27.273-.492-27.325 4.123-32.068 13.691-39.972 9.568-7.905 40.318-11.45 54.523-5.055z"/><path id="e" d="m23.748 8.357c9.568-7.904 40.318-11.45 54.522-5.055 14.205 6.396 23.874 24.6 18.845 52.396-2.908 16.084-11.957 25.829-22.217 31.128l.02.2c.676 8.648 5.53 7.56 11.648 21.577 6.118 14.018 8.47 43.863 8.118 51.352-.279 5.895-4.54 19.197-8.118 23.332-6.026 6.965-10.833 8.62-20.577 11.049-10.621 2.648-23.683 3.824-33.448-2.392-9.447-6.013-16.045-15.914-17.41-29.46-2.176-21.575-.721-27.032 5.734-46.933 5.405-16.664 11.427-19.883 15.014-27.213l.011-.022c-6.036-2.712-11.84-6.989-16.68-12.713-4.432-5.24-8.997-18.56-9.154-27.273-.492-27.325 4.124-32.068 13.692-39.973z"/><path id="f" d="m3.546.902c1.36 0 5.756 2.584 7.86 3.67 2.103 1.086 2.704 1.189 6.19 4.237 7.256 6.344 18.382 30.145 16.521 49.715.679 5.132-1.708 12.477-3.56 13.941-2.654 2.097-5.937.064-7.037-1.177s0-7.368 0-9.164c0-1.185.184-4.25 1.143-6.245.68-19.742-22.135-35.625-22.441-35.857-1.475-1.116-3.768-19.12 1.324-19.12z"/><path id="g" d="m31.914.757c5.092 0 2.8 18.003 1.324 19.119-.31.235-23.753 16.555-22.402 36.674.672 1.936.812 4.396.812 5.429 0 1.796 1.1 7.922 0 9.163s-4.383 3.274-7.036 1.178c-1.99-1.573-4.594-9.922-3.36-15.035-1.358-19.354 9.49-42.396 16.612-48.622 3.486-3.048 4.087-3.15 6.19-4.236 2.104-1.086 6.5-3.67 7.86-3.67z"/><linearGradient id="h" x1="23.751%" x2="100%" y1="54.343%" y2="29.48%"><stop offset="0" stop-color="#1b7cb5"/><stop offset="1" stop-color="#0f72ad"/></linearGradient><filter id="i" height="122.4%" width="150%" x="-25%" y="-11.2%"><feOffset in="SourceAlpha" result="shadowOffsetOuter1"/><feGaussianBlur in="shadowOffsetOuter1" result="shadowBlurOuter1" stdDeviation="7"/><feColorMatrix in="shadowBlurOuter1" result="shadowMatrixOuter1" values="0 0 0 0 0.468523551 0 0 0 0 0.467095125 0 0 0 0 0.467095125 0 0 0 0.5 0"/><feMerge><feMergeNode in="shadowMatrixOuter1"/><feMergeNode in="SourceGraphic"/></feMerge></filter><mask id="j" fill="#fff"><use fill="#fff" fill-rule="evenodd" xlink:href="#a"/></mask><mask id="k" fill="#fff"><use fill="#fff" fill-rule="evenodd" xlink:href="#b"/></mask><mask id="l" fill="#fff"><use fill="#fff" fill-rule="evenodd" xlink:href="#c"/></mask><mask id="m" fill="#fff"><use fill="#fff" fill-rule="evenodd" xlink:href="#d"/></mask><mask id="n" fill="#fff"><use fill="#fff" fill-rule="evenodd" xlink:href="#e"/></mask><mask id="o" fill="#fff"><use fill="#fff" fill-rule="evenodd" xlink:href="#f"/></mask><mask id="p" fill="#fff"><use fill="#fff" fill-rule="evenodd" xlink:href="#g"/></mask><mask id="q" fill="#fff"><path d="m31.406 4.016c0 8.201-7.008 14.85-15.651 14.85-8.645 0-15.652-6.649-15.652-14.85 0-8.202 7.008-1.076 15.652-1.076 8.643 0 15.65-7.126 15.65 1.076" fill="#fff" fill-rule="evenodd"/></mask></defs><g fill="none" fill-rule="evenodd"><use fill="#002134" xlink:href="#a"/><g mask="url(#j)"><g transform="translate(-128.467 1.365)"><use fill="#2274a5" xlink:href="#b"/><path d="m219.863 0h446.387v285.907c-117.142 1.374-210.993-20.535-281.551-65.727-70.559-45.192-125.504-118.585-164.837-220.18z" fill="url(#h)" mask="url(#k)"/></g></g><path d="m0 313.187h442.8v-94.185h-442.8z" fill="#1a5a80" mask="url(#j)"/><g mask="url(#j)"><path d="m183.475 0c2.076 0 3.758 1.683 3.758 3.758v101.002c0 2.076-1.682 3.758-3.758 3.758h-52.938v.236h-4.415v-.236h-122.364c-2.075 0-3.758-1.682-3.758-3.758v-101c0-2.078 1.683-3.76 3.758-3.76zm-126.809 6.142h-48.637c-1.038 0-1.879.842-1.879 1.88v92.474c0 1.038.841 1.879 1.88 1.879h48.636zm122.538 0h-48.667v96.233h46.788c2.076 0 3.758-1.683 3.758-3.758v-90.595c0-1.038-.841-1.88-1.879-1.88zm-53.082 0h-65.04v96.233h65.04z" fill="#fff" fill-opacity=".2" transform="translate(65.6 42.998)"/><path d="m187.233 3.758v101.002c0 2.076-1.682 3.758-3.758 3.758h-179.717c-2.075 0-3.758-1.682-3.758-3.758v-101c0-2.078 1.683-3.76 3.758-3.76h179.717c2.076 0 3.758 1.683 3.758 3.758z" fill="#fff" fill-opacity=".2" transform="translate(65.6 42.998)"/><g fill-opacity=".1"><path d="m149.362 103.197v-.004l-.04.004.04-.004-3.327.004h-15.497v-93.165h19.176v53.75h22.311v-28.747h9.058v65.509c0 1.019-.812 1.852-1.83 1.878l-29.89.775zm-16.226-44.117h3.872v-4.98h-3.872zm0-9.585h3.872v-4.98h-3.872zm0-9.586h3.872v-4.98h-3.872zm0-9.586h3.872v-4.98h-3.872zm0-9.586h3.872v-4.98h-3.872zm-16.125 82.322v-93.027h9.111v93.165l-9.111-.14zm2.712-53.564h3.873v-4.98h-3.873zm0-9.586h3.873v-4.98h-3.873zm0-19.172h3.873v-4.98h-3.873zm-113.573 79.789v-44.275h10.367v-46.946l29.865 14.307v51.647l10.285.51v27.428l-48.668-.792c-1.026-.017-1.849-.853-1.849-1.879zm33.222-20.226h3.712v-3.707h-3.712zm-6.427 0h3.711v-3.707h-3.711zm-6.428 0h3.71v-3.707h-3.71zm12.855-7.137h3.712v-3.707h-3.712zm-6.427 0h3.711v-3.707h-3.711zm0-7.136h3.711v-3.707h-3.711zm6.427-7.137h3.712v-3.707h-3.712zm-6.427 0h3.711v-3.707h-3.711zm-6.428 0h3.71v-3.707h-3.71zm6.428-7.136h3.711v-3.707h-3.711zm-6.428 0h3.71v-3.707h-3.71zm12.855-7.137h3.712v-3.707h-3.712zm0-7.137h3.712v-3.707h-3.712zm-6.427 0h3.711v-3.707h-3.711zm-6.428 0h3.71v-3.707h-3.71zm6.428-7.136h3.711v-3.707h-3.711zm35.114 71.126v-69.175h34.896v69.174h-34.895z" fill="#000" transform="translate(65.6 42.998)"/><path d="m43.084 76.592v3.708h-3.712v-3.707h3.712zm-6.428 0v3.708h-3.711v-3.707h3.711zm-6.428 0v3.708h-3.711v-3.707h3.71zm12.856-7.137v3.707h-3.712v-3.707zm-6.428 0v3.707h-3.711v-3.707zm0-7.136v3.707h-3.711v-3.707zm6.428-7.137v3.707h-3.712v-3.707zm-6.428 0v3.707h-3.711v-3.707zm-6.428 0v3.707h-3.711v-3.707h3.71zm6.428-7.136v3.707h-3.711v-3.707zm-6.428 0v3.707h-3.711v-3.707h3.71zm12.856-7.137v3.707h-3.712v-3.707zm0-7.137v3.707h-3.712v-3.707zm-6.428 0v3.707h-3.711v-3.707zm-6.428 0v3.707h-3.711v-3.707h3.71zm6.428-7.136v3.707h-3.711v-3.707zm100.352 27.464v4.98h-3.872v-4.98zm0-9.586v4.98h-3.872v-4.98zm0-9.586v4.98h-3.872v-4.98zm0-9.585v4.98h-3.872v-4.98zm0-9.586v4.98h-3.872v-4.98zm-13.412 28.757v4.98h-3.873v-4.98zm0-9.586v4.98h-3.873v-4.98zm0-19.171v4.98h-3.873v-4.98zm0 39.125-.47-.469c-.106-.116-.224-.221-.353-.313h.823zm-50.479-17.344v64.155h-2.05v-64.157h2.05zm5.466 0v64.155h-2.05v-64.157h2.05zm5.467 0v64.155h-2.05v-64.157h2.05zm4.783 0v64.155h-2.05v-64.157h2.05zm5.467 0v64.155h-2.05v-64.157h2.05zm5.467 0v64.155h-2.05v-64.157h2.05z" fill="#fff" transform="translate(65.6 42.998)"/></g></g><g mask="url(#j)"><path d="m3.758 102.83h84.734c2.075 0 3.758-1.682 3.758-3.758v-95.314c0-2.075-1.683-3.758-3.758-3.758h-84.734c-2.075 0-3.758 1.683-3.758 3.758v95.314c0 2.076 1.683 3.758 3.758 3.758z" fill="#205a7b" transform="translate(288.367 28.665)"/><path d="m8.713 96.005h74.825c1.038 0 1.88-.841 1.88-1.879v-85.422c0-1.038-.842-1.879-1.88-1.879h-74.825c-1.038 0-1.879.841-1.879 1.88v85.421c0 1.038.841 1.88 1.88 1.88z" fill="#000" fill-opacity=".1" transform="translate(288.367 28.665)"/><path d="m45.03 65.366c.033 0 .066 0 .1.003 1.036.054 1.832.939 1.777 1.975l-1.132 21.494c-.052.998-.877 1.78-1.876 1.78h-14.724c-.033 0-.066 0-.099-.002-1.036-.055-1.832-.94-1.777-1.975l1.132-21.495c.052-.998.877-1.78 1.876-1.78zm19.235-2.73c1.038 0 1.88.841 1.88 1.88v21.493c0 1.038-.842 1.88-1.88 1.88h-14.691c-1.038 0-1.88-.842-1.88-1.88v-21.494c0-1.038.842-1.879 1.88-1.879zm-34.902-27.982.05.002c1.036.055 1.832.94 1.777 1.975l-1.13 21.495c-.053.998-.877 1.78-1.877 1.78h-14.725c-.032 0-.065 0-.098-.003-1.037-.054-1.833-.939-1.778-1.975l1.132-21.494c.052-.998.877-1.78 1.876-1.78zm38.91 5.485 9.661.134c1.037.014 1.866.865 1.853 1.902l-.2 15.85c-.013 1.038-.865 1.868-1.903 1.855h-.002l-9.66-.133c-1.038-.014-1.867-.866-1.854-1.903l.2-15.85c.014-1.037.866-1.868 1.904-1.855h.002zm-7.253-23.177c1.037-.028 1.901.788 1.933 1.825l1.087 37.032.002.001c.03 1.038-.788 1.903-1.825 1.93l-25.795.737c-1.037.028-1.902-.788-1.934-1.824l-1.088-37.033c-.002 0-.002-.001-.002-.002-.03-1.037.787-1.902 1.825-1.93zm7.694.032.147.001 9.765.45c1.034.047 1.834.921 1.791 1.955l-.673 16.098c-.048 1.045-.927 1.846-1.964 1.799l-9.765-.45c-1.034-.047-1.835-.922-1.791-1.956l.673-16.097c.048-1.045.927-1.846 1.964-1.799zm-54.668-6.824.147.001 9.765.45c1.034.047 1.835.921 1.792 1.955l-.673 16.098c-.049 1.045-.928 1.846-1.964 1.799l-9.766-.45c-1.034-.047-1.834-.922-1.791-1.956l.673-16.097c.048-1.045.927-1.846 1.964-1.799z" fill="#205a7b" transform="translate(288.367 28.665)"/></g><g mask="url(#j)"><path d="m246.683 144.79c0 7.54-55.221 13.65-123.341 13.65s-123.342-6.11-123.342-13.65c0-7.539 55.222-13.65 123.342-13.65s123.341 6.111 123.341 13.65" fill="#000" fill-opacity=".1" transform="translate(67.65 87.36)"/><path d="m80.652 56.85-12.486-35.224c-.52-1.465.569-3.002 2.123-3.002h47.06c.954 0 1.805.602 2.123 1.5l13.018 36.726z" fill="#ed4f62" transform="translate(67.65 87.36)"/><path d="m132.49 56.85h-49.869l-12.485-35.224c-.52-1.465.568-3.002 2.123-3.002h45.09c.954 0 1.805.602 2.123 1.5z" fill="#000" fill-opacity=".1" transform="translate(67.65 87.36)"/><path d="m84.213 54.602-11.955-33.725 45.089-.004 11.957 33.729z" fill="#fff" transform="translate(67.65 87.36)"/><g fill="#000"><path d="m95.743 28.04h-16.24l4.043 11.406h16.24z" fill-opacity=".2" transform="translate(67.65 87.36)"/><path d="m104.476 39.446h15.302l-4.043-11.406h-15.302z" fill-opacity=".1" transform="translate(67.65 87.36)"/><path d="m86.627 48.137 2.291 6.465h16.24l-2.291-6.465z" fill-opacity=".2" transform="translate(67.65 87.36)"/><path d="m107.557 48.137 2.291 6.465h15.301l-2.29-6.465zm9.79-27.264h-5.697l-15.301.002h-4.689l-16.241.001-3.161.001 1.205 3.398h45.09z" fill-opacity=".1" transform="translate(67.65 87.36)"/><path d="m84.435 41.953 1.602 4.519h16.24l-1.602-4.519z" fill-opacity=".05" transform="translate(67.65 87.36)"/><path d="m120.667 41.953h-15.302l1.601 4.519h15.303z" fill-opacity=".2" transform="translate(67.65 87.36)"/></g><path d="m110.105 56.85h34.163v-3.142h-34.163z" fill="#c83446" transform="translate(67.65 87.36)"/><path d="m41.688 63.033h9.22l-4.622 10.958-27.904 66.15h-3.647l23.123-66.15zm14.334 0h9.22l3.83 10.958 23.122 66.15h-3.646l-27.904-66.151-4.622-10.958z" fill="#002134" transform="translate(67.65 87.36)"/><path d="m41.688 63.033-3.83 10.958h8.428l4.622-10.958zm23.554 0h-9.22l4.622 10.958h8.427z" fill="#000" fill-opacity=".2" transform="translate(67.65 87.36)"/><path d="m150.252 140.141h3.648l27.904-66.15h-8.429z" fill="#002134" transform="translate(67.65 87.36)"/><path d="m177.205 63.033-3.83 10.958h8.429l4.621-10.958z" fill="#825c5f" transform="translate(67.65 87.36)"/><path d="m191.54 63.033h9.22l3.83 10.958 23.123 66.15h-3.647l-27.906-66.151-4.621-10.958z" fill="#002134" transform="translate(67.65 87.36)"/><path d="m200.76 63.033h-9.22l4.621 10.958h8.429z" fill="#000" fill-opacity=".2" transform="translate(67.65 87.36)"/><path d="m22.697 63.033v-6.183h196.428v6.183z" fill="#002134" transform="translate(67.65 87.36)"/><path d="m78.698 63.033h140.427v-6.183h-140.427z" fill="#000" fill-opacity=".2" transform="translate(67.65 87.36)"/><path d="m161.287 64.346v2.248h-27.701c-.665 0-1.286.295-1.704.812-.419.515-.578 1.183-.44 1.833l4.963 23.26-6.396.468-4.961-23.26c-.281-1.315.045-2.67.892-3.715.847-1.047 6.299-1.646 7.646-1.646z" fill="#e08f13" transform="translate(67.65 87.36)"/><path d="m128.977 98.636c-1.916 0-3.47-1.552-3.47-3.466 0-1.916 1.554-3.467 3.47-3.467h17.167l13.264-51.027c1.138-4.38 5.095-7.436 9.625-7.436h30.78c1.838 0 3.22 1.679 2.863 3.482l-10.933 55.226c-.768 3.887-4.182 6.688-8.148 6.688z" fill="#e08f13" transform="translate(67.65 87.36)"/><path d="m129.095 92.967-4.961-23.26c-.281-1.315.045-2.67.892-3.715.847-1.047 2.107-1.646 3.453-1.646h27.701v2.248h-27.7c-.664 0-1.285.295-1.703.812-.418.515-.578 1.183-.44 1.833l4.962 23.26-2.203.468" fill="#000" fill-opacity=".1" transform="translate(67.65 87.36)"/><path d="m146.144 91.703h-17.167c-1.916 0-3.47 1.551-3.47 3.467 0 1.914 1.554 3.466 3.47 3.466h16.325c4.03 0 7.55-2.724 8.555-6.62l15.176-58.776c-4.53 0-8.487 3.057-9.625 7.436z" fill="#000" fill-opacity=".1" transform="translate(67.65 87.36)"/><path d="m157.213 98.636h4.503v35.145l21.32 8.749h-47.143l21.32-8.75v-35.143z" fill="#a6690c" transform="translate(67.65 87.36)"/><path d="m157.213 105.533h4.503v-6.897h-4.503z" fill="#000" fill-opacity=".1" transform="translate(67.65 87.36)"/><path d="m37.526 31.2c1.11.403 2.458.224 3.298-.602.535-.528.865-1.291 1.54-1.62.895-.435 2.042.07 2.925-.386.945-.487 1.081-1.775.972-2.832-.11-1.056-.31-2.235.318-3.091.641-.872 1.859-1.022 2.816-1.528 1.318-.697 2.163-2.2 2.073-3.688-.045-.73-.317-1.437-.745-2.03-1.165-.133-2.392-.142-3.19-.941-.673-.672-.808-1.726-.646-2.662.16-.936.571-1.806.858-2.712.577-1.829.619-3.88-.188-5.62-.808-1.74-2.551-3.093-4.47-3.15-1.92-.055-3.856 1.38-4.095 3.284-.168 1.326.431 2.609.788 3.896.356 1.288.39 2.869-.621 3.743-1.21 1.045-3.22.494-4.511 1.438-1.35.987-1.205 3.128-.307 4.54.896 1.411 2.325 2.395 3.398 3.678 1.072 1.284 1.764 3.181.89 4.607-.792 1.29-2.643 1.816-3.052 3.272-.082.29-.092.58-.05.867.522.682 1.197 1.246 2 1.538" fill="#ed4f62" transform="translate(67.65 87.36)"/><path d="m52.6 20.731c1.07-1.29 1.547-3.408.304-4.533-.584-.53-1.368-.682-2.181-.775.428.593.7 1.3.745 2.03.09 1.488-.755 2.991-2.073 3.688-.957.506-2.175.656-2.816 1.528-.628.856-.427 2.035-.318 3.091.11 1.057-.027 2.345-.972 2.832-.883.455-2.03-.05-2.925.385-.675.33-1.005 1.093-1.54 1.62-.84.827-2.189 1.006-3.298.604-.802-.292-1.477-.856-1.998-1.538.126.838.72 1.63 1.412 2.169.932.724 2.058 1.17 2.964 1.924 2.08 1.728 2.557 5.085 1.04 7.324 1.908 1.4 5.475.622 7.066-1.128-1.075-.31-1.478-1.74-1.068-2.78.41-1.042 1.365-1.755 2.303-2.366s1.938-1.21 2.54-2.153c.6-.944.637-2.358-.244-3.048-.632-.495-1.53-.485-2.22-.895-1.442-.856-1.273-3.093-.292-4.451.981-1.359 2.502-2.237 3.571-3.528" fill="#b03241" transform="translate(67.65 87.36)"/><path d="m49.373 56.85h-11.515l-.79-5.093-2.176-14.02h17.447l-1.562 10.07z" fill="#fff" transform="translate(67.65 87.36)"/><path d="m37.067 51.757.79 5.093h11.516l1.404-9.043c-1.774 1.277-3.737 2.29-5.816 2.968-2.536.827-5.23 1.146-7.894.982" fill="#000" fill-opacity=".1" transform="translate(67.65 87.36)"/><path d="m38.71 109.129h34.315v31.012h-34.316v-31.012z" fill="#fff" transform="translate(67.65 87.36)"/><path d="m38.71 120.197v-5.072h34.315v5.072h-34.316z" fill="#000" fill-opacity=".1" transform="translate(67.65 87.36)"/><path d="m60.174 109.129h12.85v31.012h-12.85z" fill="#000" fill-opacity=".1" transform="translate(67.65 87.36)"/><path d="m63.184 144.607c.628-.208 1.257-.414 1.886-.621.67-.221 1.429-.527 1.644-1.198.238-.74-.32-1.481-.838-2.062l-1.77-1.977c-.346-.385-.706-.783-1.178-.996-.472-.211-1.092-.19-1.441.192-.48.524-.246 1.42-.662 1.995-.267.37-.738.518-1.12.766-.743.48-1.172 1.401-1.06 2.277s.76 1.661 1.598 1.938c.953.316 1.987 0 2.94-.314m19.452-7.455c-.552-.697-1.45-1.004-2.298-1.276l-3.346-1.074c-.597-.192-1.266-.38-1.83-.11-.71.341-.926 1.23-1.06 2.003-.13.744-.258 1.488-.386 2.231-.113.647-.216 1.352.106 1.925.264.471.778.76 1.306.877s1.076.083 1.616.05l2.196-.14c.905-.056 1.842-.121 2.644-.545.687-.363 1.238-.993 1.455-1.738.217-.744.08-1.595-.403-2.203" fill="#fff" transform="translate(67.65 87.36)"/></g><g filter="url(#i)" transform="translate(275 17)"><g transform="translate(21.775 165.731)"><use fill="#fff" xlink:href="#c"/><path d="m-2.449 73.64c.97.037 1.946.058 2.91.058 3.886 0 7.674-.32 10.846-1.062 11.084-2.6 3.209-25.767 2.867-32.68-.189-3.913.732-7.849-2.763-11.682-.965-1.06-2.698-1.994-4.899-2.848-2.655-1.03-.134-5.412 0-5.974.383.195 3.27 2.308 6.488 3.668 3.219 1.359 3.884 1.23 7.15 2.306 3.264 1.077 5.63 1.142 5.53 1.61-3.005 13.974-2.257 30.054 3.32 47.788-9.73.184-19.95.414-30.949.455-.177-.55-.335-1.09-.5-1.638zm38.092.9c.242-.832.469-1.666.68-2.498 10.076-1.007 13.79-7.65 14.688-10.772 2.247-7.835 2.142-16.124-1.432-23.923-.837-1.817-1.411-5.204-6.456-6.604-2.203-.611-4.24-.85-6.31-.881-.137-.692-1.029-2.355-1.17-3.025 3.571-.32 9.64-2.308 12.88-3.522 5.31-1.99 7.599-3.541 12.764-4.418 3.145 13.254 7.077 37.312 1.689 56-8.967-.026-19.153-.19-27.333-.356z" fill="#000" fill-opacity=".1" mask="url(#l)"/></g><use fill="#fff" xlink:href="#d"/><g mask="url(#m)"><g transform="translate(-.09 .332)"><path d="m23.748 8.357c9.568-7.904 40.318-11.45 54.522-5.055 14.205 6.396 23.874 24.6 18.845 52.396-2.908 16.084-11.957 25.829-22.217 31.128l.02.2c.676 8.648 5.53 7.56 11.648 21.577 6.118 14.018 8.47 43.863 8.118 51.352-.279 5.895-4.54 19.197-8.118 23.332-6.026 6.965-10.833 8.62-20.577 11.049-10.621 2.648-23.683 3.824-33.448-2.392-9.447-6.013-16.045-15.914-17.41-29.46-2.176-21.575-.721-27.032 5.734-46.933 5.405-16.664 11.427-19.883 15.014-27.213l.011-.022c-6.036-2.712-11.84-6.989-16.68-12.713-4.432-5.24-8.997-18.56-9.154-27.273-.492-27.325 4.124-32.068 13.692-39.973z" fill="#fff"/><use fill="#fff" xlink:href="#e"/><g fill="#000"><path d="m32.285 91.503c-4.979-1.195-2.316-2.92-10.752-9.536-6.612-5.185-8.384-7.382-10.295-18.98-.532-3.227-1.694-9.76-1.873-14.657-.068-1.874.651-3.544.655-4.646 1.426 8.67 3.94 17.112 7.928 24.79 6.259 12.047 16.32 18.777 28.83 20.744 2.114.333 5.343 1.018 7.445 1.018 12.462 0 23.703-5.181 32.778-14.62 4.095-4.262 6.969-9.427 8.976-15.107-.35 1.492 1.461 1.52 1.053 2.94-1.544 5.37-5.708 11.57-8.25 15.138-8 11.234-18.868 15.883-33.3 16.403-14.432.519-20.052-2.675-23.195-3.487z" fill-opacity=".2" mask="url(#n)"/><path d="m33.531 84.806c-1.928-1.006-4.704-2.84-7.733-5.701-3.163-2.986-6.335-7.259-8.406-11.762-.652-1.42-1.92-4.055-2.45-5.503-.565-1.549-1.483-3.944-2.285-6.584-.685-2.257-1.26-4.7-1.739-6.846-.603-2.702-.73-3.51-.898-5.034.424 2.349 1.31 4.603 1.812 6.816.888 3.91 2.444 7.085 3.983 10.779.53 1.271 1.283 3.106 2.003 4.37 6.28 11.013 15.844 18.095 28.396 19.893 2.122.304 4.242.451 6.35.451 12.505 0 24.591-5.187 33.697-13.814 4.109-3.896 8.317-8.663 10.332-13.855-.19.739-.309 1.633-.616 2.493-.544 1.527-1.257 3.082-1.766 4.272-.173.404-.772 1.5-.93 1.87-1.455 3.382-2.813 5.205-5.096 7.683-2.785 3.021-6.403 5.987-9.228 8.139-6.105 4.65-16.332 7.763-24.734 7.763-1.915 0-3.818-.434-5.665-.718-3.889-.597-7.526-1.443-10.477-2.608-1.797-.709-3.386-1.496-4.55-2.104z" fill-opacity=".1" mask="url(#n)"/><path d="m33.365 193.456c-8.471-4.44-13.42-11.054-16.505-20.207-1.24-3.679-1.48-7.888-2.673-11.865-1.946-6.487-1.946-7.379-.795-11.2-.025 1.274 1.44 3.763 1.782 5.199 2.28 9.561 7.233 19.82 11.367 24.978 3.827 4.775 16.983 10.875 25.878 10.875 8.896 0 28.755-7.668 34.089-15.625 4.193-6.256 8.523-20.706 8.21-28.196.443 2.555.933 8.41.821 10.958v2.138c-.262 5.984-3.165 14.014-6.11 19.266-4.897 8.73-12.414 12.621-22.274 15.24-4.475 1.19-10.562 1.463-15.16 1.463-3.055 0-6.067.06-8.76-.54-3.615-.805-6.778-.864-9.87-2.484z" fill-opacity=".2" mask="url(#n)"/></g><g transform="translate(73.224 93.668)"><use fill="#fff" xlink:href="#f"/><path d="m18.057 72.68c.039 0-4.01-5.551-4.01-15.146s3.708-21.064 10.812-30.545c3.12-4.169 4.068-5.012 2.46-1.106-1.194 2.9-1.56 4.225-3.393 9.02-1.899 4.964-2.51 6.371-4.38 13.99-.946 3.858 2.737 19.924 1.417 20.24-.371.09-3.331 3.548-2.906 3.548z" fill="#000" fill-opacity=".1" mask="url(#o)" transform="matrix(-1 0 0 1 42.137 0)"/></g><g transform="translate(.09 93.813)"><use fill="#fff" xlink:href="#g"/><path d="m11.19 72.535c.04 0-4.01-5.552-4.01-15.147 0-9.594 3.708-21.063 10.812-30.545 3.121-4.169 4.069-5.012 2.46-1.105-1.194 2.899-1.559 4.225-3.392 9.019-1.9 4.965-2.51 6.371-4.38 13.99-.947 3.859 2.736 19.924 1.416 20.24-.37.09-3.33 3.548-2.905 3.548z" fill="#000" fill-opacity=".1" mask="url(#p)"/></g><path d="m4.09 115.625c8.9-24.762 17.917-32.465 27.052-23.109 4.394 4.501 15.719 7.765 22.204 7.583 8.868-.247 16.577-3.403 23.128-9.468 7.485 2.875 12.407 5.555 14.766 8.04 2.359 2.486 5.332 7.662 8.92 15.527l-11.66 7.366c.267.492.624 1.283 1.071 2.374.697 1.7 2.597 5.562 3.994 12.573 2.006 10.065 1.991 22.312 1.154 26.214-8.707 5.433-17.963 10.748-42.11 10.748-16.097 0-28.504-1.935-37.22-5.805-1.943-11.604-2.727-19.457-2.355-23.56.78-8.592 1.867-11.34 3.302-17.636 1.032-4.533 2.602-6.873 3.144-9.431.189-.89-1.313 4.97-2.087 4.97-1.717 0-6.151-2.129-13.302-6.386z" fill="#002134"/></g></g><g mask="url(#m)"><path d="m60.282 9.17c0 4.834-3.893 8.754-8.696 8.754-4.802 0-8.695-3.92-8.695-8.755 0-4.836 3.893-8.756 8.695-8.756 4.803 0 8.696 3.92 8.696 8.756" fill="#222039" transform="translate(23.07 37.348)"/><path d="m57.15 5.031c0 1.335-1.075 2.416-2.402 2.416-1.325 0-2.4-1.08-2.4-2.416 0-1.335 1.075-2.417 2.4-2.417 1.327 0 2.402 1.082 2.402 2.417m.526 3.349c0 .514-.414.932-.925.932s-.925-.418-.925-.932c0-.515.414-.933.925-.933s.925.418.925.933" fill="#fff" transform="translate(23.07 37.348)"/><path d="m17.675 9.144c0 4.709-3.824 8.526-8.543 8.526-4.718 0-8.544-3.817-8.544-8.526 0-4.71 3.826-8.527 8.544-8.527 4.72 0 8.543 3.818 8.543 8.527" fill="#222039" transform="translate(23.07 37.348)"/><path d="m14.599 5.118c0 1.298-1.057 2.351-2.36 2.351s-2.359-1.053-2.359-2.349c0-1.3 1.056-2.353 2.36-2.353 1.302 0 2.359 1.053 2.359 2.352m.518 3.257c0 .5-.408.907-.91.907-.503 0-.91-.407-.91-.907 0-.501.407-.907.91-.907.502 0 .91.406.91.907" fill="#fff" transform="translate(23.07 37.348)"/><path d="m0 0h35v30h-35z" transform="translate(38 53)"/><path d="m4.136 6.116c-2.064.18-3.036 1.788-3.036 4.874 0 8.793 7.35 15.91 16.4 15.91 9.051 0 16.4-7.117 16.4-15.91 0-2.99-.912-4.592-2.846-4.853l-.19-.02c-1.315-.115-1.013-.201-6.153 1.479-2.92.954-5.007 1.406-7.21 1.406-2.082 0-4.06-.403-6.733-1.252l-3.047-.99c-2.517-.807-2.544-.734-3.585-.644z" fill="#222039" transform="translate(38 53)"/><g transform="translate(40 60)"><path d="m28.246 15.936c0 .937-5.01 4.416-11.998 4.416-6.99 0-12.002-3.448-12.002-4.416 0-2.44 4.346-4.417 12.002-4.417 7.654 0 11.998 1.977 11.998 4.417" fill="#ed4f62" mask="url(#q)"/><path d="m9.265 2.19c-.389 1.877-1.893 3.244-3.36 3.054s-2.342-1.866-1.953-3.743c.388-1.877 1.892-3.244 3.36-3.054 1.467.19 2.34 1.866 1.953 3.743m6.935 1.323c0 1.902-1.205 3.443-2.692 3.443-1.486 0-2.692-1.541-2.692-3.443s1.206-3.444 2.692-3.444c1.487 0 2.692 1.542 2.692 3.444m7.247-1.517c.633 1.835-.016 3.573-1.45 3.884-1.434.31-3.11-.926-3.744-2.76-.633-1.835.016-3.574 1.45-3.884s3.11.925 3.744 2.76m6.552-2.52c.669 1.826.053 3.573-1.375 3.9-1.427.328-3.127-.887-3.795-2.714-.67-1.827-.054-3.573 1.374-3.9 1.428-.328 3.127.887 3.796 2.714" fill="#fff" mask="url(#q)"/></g></g></g><g transform="translate(307 -4)"><path d="m0 0h45v45h-45z"/><path d="m40.84 14.455c.53-1.52.794-2.76.794-3.72 0-1.171-.071-2.75-.214-4.735-1.647 3.632-4.218 8.237-7.308 11-4.392 4.036-10.353 4.812-15.842 6.985-3.64 1.459-5.223 4.579-5.835 8.102h10.32c8.251-2.84 14.525-9.701 18.086-17.632z" fill="#ed4f62"/><path d="m41.008 13.43c-3.971 8.02-9.5 15.785-18.701 18.657h6.776c.132 0 .469-.006 1.012-.016 5.26-.106 9.976-3.263 12.08-8.084-.035-.016.522-1.064.804-2.188.283-1.124.934-3.625.218-5.136-.681-1.439-1.411-2.517-2.19-3.234z" fill="#b03241"/><path d="m24.477 15.063c.549-.55.805-.484 1.15-1.19.388-.507.547-2.752.547-3.273 0-1.256-.182-2.789-.547-4.6 0 0-2.385 4.86-13.837 4.86-8.927 0-9.555 8.779-9.398 12.636-.125.047.361 2.338.471 2.73.478 1.64 1.546 3.266 3.203 4.877.65.63 1.519.984 2.424.984h2.885c.282-2.79.854-5.393 2.219-7.902 2.494-4.546 7.588-5.517 10.883-9.122z" fill="#ed4f62"/><path d="m40.84 7.549.58-1.549c-9.875.424-14.638 5.792-15.49 6.875-.347.706-.805 1.365-1.373 1.915-3.312 3.61-8.36 4.709-10.884 9.26-1.372 2.512-2.098 5.243-2.398 8.037h1.578c.615-3.563 2.192-6.718 5.868-8.193 5.52-2.198 11.515-2.983 15.932-7.064 3.108-2.794 4.531-5.624 6.188-9.281z" fill="#b03241"/><path d="m17.128 31.507s-5.325 8.81 6.321 12.174l-6.32-12.174z" fill="#ed4f62"/><path d="m28.667 37.78s-5.327 1.35-11.595-5.693l11.595 5.694z" fill="#ed4f62"/></g></g></svg>