<svg height="273" viewBox="0 0 410 273" width="410" xmlns="http://www.w3.org/2000/svg" xmlns:xlink="http://www.w3.org/1999/xlink"><defs><path id="a" d="m125.035 28.978c25.91-28.205 84.639-36.06 146.868-21.635 62.23 14.425 23.282 42.694 80.69 47.494 57.407 4.801 62.677 49.875 53.921 65.736-8.755 15.862-21.09 20.372-18.23 38.197 1.413 8.816 11.794 19.567 15.218 28.242 5.838 14.789 12.968 50.667-17.419 70.608-18.665 12.25-60.405 15.717-80.535 15.466-12.947-.161-238.83 2.336-249.126.25-18.396-3.724-34.051-14.98-40.433-29.073-8.808-19.446 13.121-50.576 3.171-69.676-8.105-15.561-19.093-25.454-19.125-42.266-.035-18.42.12-94.529 67.434-89.125 23.26.677 25.154 21.065 57.566-14.218z"/><path id="b" d="m0 0h554.867v268.905h-554.867z"/><path id="c" d="m11.736.002c1.824.162 11.555 6.628 11.31 7.828-.04.192-8.356 10.726-8.795 26.765-.082 3.02 0 5.91 0 9.29 0 1.38.625 4.71-1.189 4.914-.12.013-5.934 2.375-9.906 2.371-2.22-.002-3.709-1.225-2.316-2.37 1.393-1.147 7.69-3.101 7.414-4.173-4.964-19.28-3.847-34.511-3.653-35.46.246-1.203 5.314-9.327 7.135-9.165zm21.035 0c1.824-.16 6.308 9.785 6.554 10.986.194.95 1.89 14.353-3.072 33.629-.275 1.071 5.393 2.18 6.926 4.171.54.702-.885 2.241-3.321 2.371-3.7.197-9.593-2.358-9.707-2.37-1.813-.204-.467-3.42-.467-4.904 0-3.963.11-6.874 0-9.923-.466-12.884-4.24-21.54-4.278-21.724-.245-1.2 5.541-12.074 7.365-12.236z"/><path id="d" d="m53.423 2.48c9.707 4.366 16.314 16.79 12.877 35.76-1.987 10.978-8.17 17.629-15.182 21.246l.014.136c.202 2.584.952 3.894 2.081 5.353 1.295.485 3.417 1.713 4.555 2.3 1.438.742 1.849.812 4.23 2.892 4.959 4.33 12.562 20.575 11.29 33.932.463 3.502-1.167 8.514-2.433 9.514-1.813 1.43-4.057.043-4.808-.804-.752-.847 0-5.028 0-6.254 0-.809.125-2.9.78-4.262.158-4.564-1.527-8.827-3.832-12.474 1.287 8.27 1.785 16.568 1.644 19.577-.19 4.023-3.102 13.102-5.547 15.924-4.118 4.754-7.403 5.883-14.061 7.541-7.258 1.807-16.183 2.61-22.857-1.632-6.455-4.104-10.964-10.861-11.897-20.107-.975-9.66-.882-14.585.542-20.665-2.193 3.653-3.719 7.883-3.414 12.394.46 1.32.555 3 .555 3.704 0 1.226.751 5.407 0 6.254-.752.847-2.996 2.235-4.808.804-1.36-1.074-3.14-6.774-2.296-10.263l-.028-.44c-.736-13.117 6.567-28.54 11.379-32.744 2.382-2.08 2.793-2.15 4.23-2.891 1.394-.719 4.259-2.398 5.28-2.5 1.033-1.39 1.968-2.685 2.739-4.258l.007-.015c-4.125-1.852-8.09-4.77-11.398-8.677-3.028-3.577-6.148-12.668-6.255-18.614-.336-18.65 2.818-21.886 9.356-27.281s27.55-7.815 37.257-3.45z"/><path id="e" d="m16.228 5.704c6.538-5.395 27.55-7.815 37.257-3.45 9.706 4.365 16.313 16.79 12.877 35.76-1.987 10.978-8.17 17.628-15.182 21.245l.014.136c.462 5.902 3.78 5.16 7.96 14.727s5.787 29.936 5.547 35.047c-.19 4.023-3.102 13.102-5.547 15.925-4.119 4.753-7.403 5.883-14.062 7.54-7.257 1.808-16.183 2.61-22.856-1.632-6.455-4.104-10.964-10.861-11.897-20.107-1.486-14.725-.492-18.449 3.919-32.031 3.693-11.373 7.808-13.57 10.26-18.573l.007-.015c-4.125-1.851-8.09-4.77-11.398-8.677-3.029-3.577-6.148-12.668-6.255-18.614-.337-18.65 2.818-21.886 9.356-27.281z"/><path id="f" d="m2.423.616c.93 0 3.933 1.763 5.37 2.505 1.438.74 1.85.81 4.231 2.891 4.958 4.33 12.561 20.575 11.29 33.932.463 3.502-1.168 8.514-2.434 9.514-1.813 1.43-4.056.043-4.808-.804s0-5.028 0-6.254c0-.809.126-2.9.78-4.262.467-13.473-15.124-24.315-15.334-24.473-1.008-.762-2.574-13.05.905-13.05z"/><path id="g" d="m21.808.517c3.48 0 1.913 12.287.905 13.048-.212.16-16.232 11.3-15.308 25.031.46 1.32.555 3 .555 3.704 0 1.226.751 5.408 0 6.255-.752.847-2.996 2.234-4.808.803-1.36-1.073-3.14-6.773-2.296-10.263l-.028-.44c-.736-13.116 6.567-28.54 11.379-32.742 2.382-2.08 2.793-2.15 4.23-2.892 1.438-.741 4.443-2.504 5.371-2.504z"/><linearGradient id="h" x1="23.751%" x2="100%" y1="55.537%" y2="23.84%"><stop offset="0" stop-color="#1b7cb5"/><stop offset="1" stop-color="#0f72ad"/></linearGradient><linearGradient id="i" x1="50%" x2="50%" y1="0%" y2="100%"><stop offset="0" stop-color="#fff" stop-opacity=".2"/><stop offset="1" stop-color="#fff" stop-opacity="0"/></linearGradient><filter id="j" height="124.1%" width="154.1%" x="-27%" y="-12%"><feOffset in="SourceAlpha" result="shadowOffsetOuter1"/><feGaussianBlur in="shadowOffsetOuter1" result="shadowBlurOuter1" stdDeviation="5"/><feColorMatrix in="shadowBlurOuter1" result="shadowMatrixOuter1" values="0 0 0 0 0.468523551 0 0 0 0 0.467095125 0 0 0 0 0.467095125 0 0 0 0.5 0"/><feMerge><feMergeNode in="shadowMatrixOuter1"/><feMergeNode in="SourceGraphic"/></feMerge></filter><filter id="k" height="178.4%" width="178.2%" x="-39.1%" y="-39.1%"><feOffset dy="1" in="SourceAlpha" result="shadowOffsetOuter1"/><feGaussianBlur in="shadowOffsetOuter1" result="shadowBlurOuter1" stdDeviation="5"/><feColorMatrix in="shadowBlurOuter1" result="shadowMatrixOuter1" values="0 0 0 0 0.658061594 0 0 0 0 0.651503549 0 0 0 0 0.651503549 0 0 0 0.5 0"/><feMerge><feMergeNode in="shadowMatrixOuter1"/><feMergeNode in="SourceGraphic"/></feMerge></filter><mask id="l" fill="#fff"><use fill="#fff" fill-rule="evenodd" xlink:href="#a"/></mask><mask id="m" fill="#fff"><use fill="#fff" fill-rule="evenodd" xlink:href="#b"/></mask><mask id="n" fill="#fff"><use fill="#fff" fill-rule="evenodd" xlink:href="#c"/></mask><mask id="o" fill="#fff"><use fill="#fff" fill-rule="evenodd" xlink:href="#d"/></mask><mask id="p" fill="#fff"><use fill="#fff" fill-rule="evenodd" xlink:href="#e"/></mask><mask id="q" fill="#fff"><use fill="#fff" fill-rule="evenodd" xlink:href="#f"/></mask><mask id="r" fill="#fff"><use fill="#fff" fill-rule="evenodd" xlink:href="#g"/></mask><mask id="s" fill="#fff"><path d="m21.46 2.74c0 5.598-4.788 10.136-10.694 10.136-5.907 0-10.696-4.538-10.696-10.135 0-5.598 4.788-.734 10.695-.734 5.906 0 10.695-4.864 10.695.734" fill="#fff" fill-rule="evenodd"/></mask></defs><g fill="none" fill-rule="evenodd"><use fill="#1073ae" xlink:href="#a"/><g mask="url(#l)"><g transform="translate(-53.3 -24.698)"><use fill="#2274a5" xlink:href="#b"/><path d="m183.106 0h371.76v268.848c-97.558 1.292-175.719-19.31-234.481-61.805-58.763-42.496-104.522-111.51-137.279-207.043z" fill="url(#h)" mask="url(#m)"/></g></g><path d="m.035 318.964h442.8v-94.185h-442.8z" fill="#1a5a80" mask="url(#l)"/><g mask="url(#l)" opacity=".6"><path d="m325.292 205.433c2.988 0 5.41 2.42 5.41 5.404s-2.422 5.403-5.41 5.403h-9.649c-2.988 0-5.41-2.419-5.41-5.403 0-2.983 2.422-5.404 5.41-5.404zm127.977-7.508c2.987 0 5.41 2.42 5.41 5.403 0 2.984-2.423 5.403-5.41 5.403h-20.776c-2.988 0-5.41-2.419-5.41-5.403s2.422-5.403 5.41-5.403zm-285.517-6.825c3.862 0 6.992 3.127 6.992 6.984l-.004.24c-.126 3.746-3.207 6.743-6.988 6.743h-13.843c-3.862 0-6.992-3.126-6.992-6.983s3.13-6.984 6.992-6.984zm-74.11-23.205c2.988 0 5.41 2.421 5.41 5.405s-2.422 5.402-5.41 5.402h-9.649c-2.988 0-5.41-2.418-5.41-5.402s2.422-5.405 5.41-5.405h9.65zm215.383-10.552c2.987 0 5.41 2.419 5.41 5.403s-2.423 5.403-5.41 5.403h-1.832c-2.987 0-5.41-2.42-5.41-5.403 0-2.984 2.423-5.403 5.41-5.403zm112.977 0c2.988 0 5.41 2.419 5.41 5.403s-2.422 5.403-5.41 5.403h-1.832c-2.988 0-5.41-2.42-5.41-5.403 0-2.984 2.422-5.403 5.41-5.403zm53.3-15.383c3.862 0 6.993 3.127 6.993 6.984l-.004.24c-.127 3.746-3.207 6.743-6.988 6.743h-11.844c-3.862 0-6.992-3.126-6.992-6.983s3.13-6.984 6.992-6.984zm-233.679-8.591c2.988 0 5.41 2.419 5.41 5.403s-2.422 5.403-5.41 5.403h-3.145c-2.988 0-5.41-2.419-5.41-5.403s2.422-5.403 5.41-5.403zm88.524-33.013c2.988 0 5.41 2.42 5.41 5.403 0 2.984-2.422 5.403-5.41 5.403h-1.832c-2.987 0-5.41-2.419-5.41-5.403s2.423-5.403 5.41-5.403zm142.58-8.218c2.987 0 5.41 2.419 5.41 5.403s-2.423 5.403-5.41 5.403h-18.367c-2.988 0-5.41-2.42-5.41-5.403 0-2.984 2.422-5.403 5.41-5.403zm-373.62-12.285c2.914 0 5.29 2.302 5.405 5.185l.004.218c0 2.984-2.422 5.403-5.41 5.403h-93.696c-2.915 0-5.292-2.303-5.406-5.186l-.004-.217c0-2.984 2.422-5.403 5.41-5.403h93.696zm163.087-5.569c2.988 0 5.41 2.42 5.41 5.403 0 2.984-2.422 5.403-5.41 5.403h-1.832c-2.987 0-5.41-2.419-5.41-5.403s2.423-5.403 5.41-5.403zm103.711-8.434c2.988 0 5.41 2.419 5.41 5.403s-2.422 5.403-5.41 5.403h-14.79c-2.987 0-5.41-2.419-5.41-5.403s2.423-5.403 5.41-5.403zm-108.96-9.965c2.988 0 5.41 2.419 5.41 5.403s-2.422 5.403-5.41 5.403h-14.789c-2.987 0-5.41-2.419-5.41-5.403s2.423-5.403 5.41-5.403h14.79zm14.434 0c2.964 0 5.366 2.4 5.366 5.36v.087c0 2.885-2.283 5.239-5.145 5.355l-.22.004c-2.964 0-5.367-2.4-5.367-5.36v-.087c0-2.96 2.403-5.36 5.366-5.36zm179.4-.602c2.914 0 5.29 2.302 5.405 5.185l.004.218c0 2.984-2.422 5.403-5.41 5.403h-7.352c-2.914 0-5.29-2.303-5.405-5.186l-.004-.217c0-2.984 2.422-5.404 5.41-5.404h7.351zm-360.106-4.778c3.861 0 6.992 3.127 6.992 6.984l-.004.24c-.127 3.746-3.207 6.743-6.988 6.743h-5.782c-3.861 0-6.992-3.126-6.992-6.983s3.13-6.984 6.992-6.984zm288.957 2.279c2.99 0 5.412 2.419 5.412 5.403s-2.422 5.403-5.412 5.403h-3.991c-2.988 0-5.41-2.419-5.41-5.403s2.422-5.403 5.41-5.403zm-193.032 0c2.988 0 5.41 2.419 5.41 5.403s-2.422 5.403-5.41 5.403h-1.831c-2.988 0-5.41-2.419-5.41-5.403s2.422-5.403 5.41-5.403zm-31.698-22.759c2.988 0 5.41 2.42 5.41 5.404s-2.422 5.403-5.41 5.403h-14.79c-2.987 0-5.41-2.42-5.41-5.403 0-2.985 2.423-5.404 5.41-5.404zm-50.131-.677c2.987 0 5.41 2.419 5.41 5.403s-2.423 5.403-5.41 5.403h-20.776c-2.988 0-5.41-2.42-5.41-5.403 0-2.984 2.422-5.403 5.41-5.403zm400.238-3.413c2.987 0 5.409 2.421 5.409 5.405s-2.422 5.402-5.41 5.402h-93.696c-2.988 0-5.41-2.418-5.41-5.402s2.422-5.405 5.41-5.405zm-328.85-17.063c3.106 0 5.624 2.515 5.624 5.617l-.005.22c-.116 3-2.587 5.397-5.619 5.397h-8.584c-3.105 0-5.623-2.515-5.623-5.617s2.518-5.617 5.623-5.617zm103.352-4.777c2.987 0 5.41 2.42 5.41 5.403 0 2.984-2.423 5.403-5.41 5.403h-9.65c-2.987 0-5.409-2.419-5.409-5.403s2.422-5.403 5.41-5.403z" fill="#fff" fill-opacity=".05" transform="translate(-62.867 -1.048)"/><path d="m127.36 57.735h-125.426c-1.068 0-1.934-.865-1.934-1.932v-53.871c0-1.067.866-1.932 1.934-1.932h125.426c1.068 0 1.934.865 1.934 1.932v53.871c0 1.067-.866 1.932-1.934 1.932" fill="#205a7b" transform="translate(28.016 69.388)"/><path d="m4.626 53.114h120.042v-48.493h-120.042z" fill="#3c6c86" transform="translate(28.016 69.388)"/><path d="m49.062 41.777v2.033h-32.578v-2.033zm55.234 0v2.033h-32.578v-2.033zm-55.234-5.144v2.033h-32.578v-2.033zm55.234 0v2.033h-32.578v-2.033zm-55.234-5.144v2.033h-32.578v-2.032h32.578zm55.234 0v2.033h-32.578v-2.032h32.578zm-55.234-5.143v2.033h-32.578v-2.033zm55.234 0v2.033h-32.578v-2.033zm-55.234-5.144v2.033h-32.578v-2.033zm55.234 0v2.033h-32.578v-2.033zm-46.72-8.855v3.754h-41.092v-3.754zm55.234 0v3.754h-41.092v-3.754z" fill="#fff" transform="translate(28.016 69.388)"/><path d="m190.132 72.746c0-1.276-1.036-2.31-2.313-2.31h-4.27c-1.278 0-2.314 1.034-2.314 2.31s1.036 2.31 2.313 2.31h4.27c1.278 0 2.314-1.034 2.314-2.31" fill="#3c6c86" transform="translate(-62.867 -1.048)"/><path d="m378.4 114.143c.928 1.454 2.31 2.524 3.89 3.081l5.103-.015c1.58-.567 2.951-1.646 3.872-3.106l.188-.299c.765-1.218 1.17-2.629 1.165-4.068l-.007-2.797-15.6.048.008 2.797c.005 1.44.418 2.847 1.193 4.06z" fill="#205a7b" transform="translate(-62.867 -1.048)"/><path d="m390.342 113.916 3.13-.01c1.017-.002 1.843-.832 1.84-1.848-.002-1.017-.833-1.841-1.85-1.838l-3.13.01zm3.135 1.769-4.91.015-.022-7.243 4.912-.015c1.998-.006 3.63 1.614 3.635 3.61.007 1.997-1.614 3.627-3.615 3.633zm-14.955-5.902c.006 1.153.337 2.282.956 3.254l.192.299c.351.552.795 1.04 1.302 1.45.482.39 1.206.217 1.458-.35.173-.389.064-.845-.27-1.111-.354-.283-.663-.619-.905-.999l-.189-.298c-.326-.509-.535-1.078-.619-1.67l.015-.918c.01-.527-.415-.96-.945-.958h-.054c-.522.002-.943.424-.94.944v.357" fill="#205a7b" transform="translate(-62.867 -1.048)"/><path d="m376.41 117.224c.756 1.15 2.051 1.874 3.474 1.874h10.715c1.423 0 2.718-.723 3.472-1.874zm60.369 6.898h-73.362c-1.384 0-2.505-1.12-2.505-2.501 0-1.382 1.121-2.502 2.505-2.502h73.362c1.384 0 2.505 1.12 2.505 2.502 0 1.381-1.121 2.501-2.505 2.501" fill="#87a5b8" transform="translate(-62.867 -1.048)"/><path d="m16.051 9.875-1.486-.003.01-5.474 1.486.003zm12.214 27.795-26.009-.044.025-16.123 26.012.044z" fill="#205a7b" transform="translate(336.047 78.668)"/><path d="m22.158 33.303-13.782-.023.015-8.799 13.782.023z" fill="#212b30" transform="translate(336.047 78.668)"/><path d="m28.168 19.235-25.752-.045.006-2.569c0-.238.193-.431.433-.43l24.885.041c.24 0 .43.194.43.433l-.002 2.569" fill="#205a7b" transform="translate(336.047 78.668)"/><path d="m28.767 21.983-26.96-.046c-.984-.001-1.779-.799-1.776-1.78 0-.983.797-1.778 1.781-1.776l26.96.045c.984.002 1.78.8 1.78 1.782-.003.982-.8 1.777-1.785 1.775" fill="#87a5b8" transform="translate(336.047 78.668)"/><path d="m20.234 20.208c0-.982-.796-1.78-1.78-1.782l-4.17-.007c-.813.164-1.427.877-1.427 1.737-.003.982.793 1.78 1.776 1.781l4.173.007c.81-.163 1.425-.877 1.428-1.736m8.506 19.242-26.963-.046c-.982-.002-1.78-.8-1.777-1.781.003-.982.8-1.777 1.784-1.776l26.96.046c.984.001 1.78.8 1.777 1.781 0 .982-.8 1.777-1.782 1.775" fill="#87a5b8" transform="translate(336.047 78.668)"/><path d="m11.633 35.893-10.16-.017c-.836.146-1.47.87-1.473 1.747-.003.982.795 1.78 1.777 1.78l10.155.018c.838-.142 1.478-.868 1.48-1.747 0-.982-.795-1.78-1.779-1.781m7.737 1.781c.002-.982-.793-1.78-1.777-1.781l-1.428-.003c-.8.172-1.404.88-1.404 1.733-.003.982.793 1.78 1.777 1.78l1.42.003c.805-.17 1.411-.877 1.411-1.732m6.253-21.444c-1.59-4.144-5.605-7.09-10.313-7.099-4.708-.007-8.733 2.925-10.339 7.064z" fill="#87a5b8" transform="translate(336.047 78.668)"/><path d="m17.075 3.68c0 .97-.79 1.754-1.761 1.753-.969-.002-1.756-.79-1.754-1.76.003-.969.79-1.754 1.762-1.752.97.002 1.756.789 1.753 1.759m14.119-3.675-3.03-.005c-.304 0-.554.246-.554.551v.47c-.002.306.245.554.55.554l.202 2.068 2.623.004.206-2.067c.306 0 .554-.246.554-.551l.002-.47c0-.306-.247-.553-.553-.554" fill="#205a7b" transform="translate(336.047 78.668)"/><path d="m17.068 8.003-3.468-.006c-.466 0-.887-.351-.91-.819-.025-.498.372-.91.864-.908l3.138.005 2.934-3.176c.166-.177.395-.278.637-.278l12.049.02c.469.001.89.352.912.82.026.498-.372.91-.866.909l-11.333-.02c-.244 0-.479.102-.647.283l-2.674 2.892c-.163.178-.395.279-.637.278" fill="#87a5b8" transform="translate(336.047 78.668)"/><path d="m4.69 34.488h-.05c-.549 0-.992-.444-.992-.992v-9.118c0-.548.443-.992.991-.992h.051c.548 0 .994.444.994.992v9.118c0 .548-.446.992-.994.992" fill="#205a7b" transform="translate(336.047 78.668)"/><path d="m326.188 132.694h-48.004c-3.981 0-7.208-3.224-7.208-7.2h62.42c0 3.976-3.227 7.2-7.208 7.2" fill="#376288" transform="translate(-62.867 -1.048)"/><path d="m366.583 141.483-3.002 1.155c-.668.257-1.384-.235-1.384-.949v-4.341c0-.714.716-1.206 1.384-.95l3.002 1.156v3.93m4.262-.001 3.003 1.155c.668.257 1.384-.235 1.384-.949v-4.341c0-.714-.716-1.206-1.384-.95l-3.003 1.156v3.93" fill="#f3f4f1" transform="translate(-62.867 -1.048)"/><path d="m366.583 141.483h4.262v-3.929h-4.262z" fill="#212b30" transform="translate(-62.867 -1.048)"/><path d="m277.399 102.712h17.332l-1.215 21.552c-.038.676-.598 1.203-1.275 1.203h-12.353c-.677 0-1.236-.527-1.274-1.203z" fill="#f3f4f1" transform="translate(-62.867 -1.048)"/><path d="m280.208 115.822c-.677.038-1.257-.479-1.295-1.155l-.529-9.317c-.038-.676.48-1.255 1.156-1.294.677-.038 1.257.479 1.296 1.155l.528 9.317c.039.676-.479 1.255-1.156 1.294" fill="#f3f4f1" transform="translate(-62.867 -1.048)"/><path d="m293.787 119.447.64-11.344h-16.724l.639 11.344z" fill="#376288" transform="translate(-62.867 -1.048)"/><path d="m285.754 113.634c.93-1.796.928-3.052.763-3.79-.044-.194-.208-.335-.407-.345l-.083-.002c-1.695 0-3.069 1.915-3.069 4.278 0 1.82.817 3.371 1.966 3.99-.176-.872-.144-2.251.83-4.131m1.375-3.848c.176.871.144 2.25-.83 4.13-.93 1.796-.928 3.052-.763 3.79.044.194.208.336.407.345.027.002.055.002.084.002 1.694 0 3.068-1.915 3.068-4.278 0-1.82-.817-3.371-1.966-3.989" fill="#f3f4f1" transform="translate(-62.867 -1.048)"/><g fill="#376288"><path d="m294.638 102.672h-17.147c-.653 0-1.183-.529-1.183-1.181s.53-1.181 1.183-1.181h17.147c.654 0 1.183.529 1.183 1.18 0 .653-.53 1.182-1.183 1.182" transform="translate(-62.867 -1.048)"/><path d="m295.821 101.49c0-.651-.53-1.18-1.183-1.18h-10.497c-.653 0-1.183.529-1.183 1.18 0 .653.53 1.182 1.183 1.182h10.497c.654 0 1.183-.529 1.183-1.181" transform="translate(-62.867 -1.048)"/><path d="m292.161 101.49c0-.651-.53-1.18-1.182-1.18h-2.277c-.654 0-1.183.529-1.183 1.18 0 .653.53 1.182 1.183 1.182h2.277c.653 0 1.182-.529 1.182-1.181" transform="translate(-62.867 -1.048)"/><path d="m294.706 100.31h-17.283l.442-1.312c.14-.419.534-.7.976-.7h14.447c.443 0 .835.281.976.7zm-14.355 18.03c-.677.038-1.257-.48-1.295-1.155l-.373-6.568c-.038-.676.48-1.255 1.156-1.293.677-.038 1.257.479 1.296 1.155l.372 6.567c.039.676-.479 1.255-1.156 1.293" transform="translate(-62.867 -1.048)"/></g><path d="m314.186 122.163c-2.272 0-4.114-1.84-4.114-4.11s1.842-4.11 4.114-4.11 4.114 1.84 4.114 4.11-1.842 4.11-4.114 4.11" fill="#205a7b" transform="translate(-62.867 -1.048)"/><path d="m315.17 117.12c-.544 0-.984-.44-.984-.983 0-.542.44-.982.984-.982.543 0 .983.44.983.982 0 .543-.44.983-.983.983" fill="#376288" transform="translate(-62.867 -1.048)"/><path d="m309.619 125.18c-2.272 0-4.115-1.84-4.115-4.11 0-2.269 1.843-4.109 4.115-4.109s4.115 1.84 4.115 4.11c0 2.269-1.843 4.109-4.115 4.109" fill="#205a7b" transform="translate(-62.867 -1.048)"/><path d="m318.935 125.18c-2.273 0-4.115-1.84-4.115-4.11 0-2.269 1.842-4.109 4.115-4.109 2.272 0 4.114 1.84 4.114 4.11 0 2.269-1.842 4.109-4.114 4.109m-10.826-4.75c-.543 0-.984-.44-.984-.983 0-.542.44-.982.984-.982.543 0 .984.44.984.982 0 .543-.44.983-.984.983" fill="#376288" transform="translate(-62.867 -1.048)"/><path d="m317.762 120.43c-.543 0-.984-.44-.984-.983 0-.542.44-.982.984-.982s.984.44.984.982c0 .543-.44.983-.984.983m7.583 5.037h-23.02c-2.127 0-3.852-1.722-3.852-3.846h30.723c0 2.124-1.724 3.846-3.851 3.846" fill="#205a7b" transform="translate(-62.867 -1.048)"/><path d="m343.47 93.694h-73.362c-1.383 0-2.504-1.12-2.504-2.501 0-1.382 1.12-2.502 2.504-2.502h73.362c1.383 0 2.505 1.12 2.505 2.502 0 1.381-1.122 2.501-2.505 2.501" fill="#87a5b8" transform="translate(-62.867 -1.048)"/><path d="m274.242 88.691h14.772v-20.843h-14.772z" fill="#205a7b" transform="translate(-62.867 -1.048)"/><path d="m289.014 67.848h-14.772l1.426-4.258h11.92z" fill="#87a5b8" transform="translate(-62.867 -1.048)"/><path d="m275.668 63.59h11.92v-2.302h-11.92z" fill="#205a7b" transform="translate(-62.867 -1.048)"/><path d="m276.946 82.424h9.364v-10.42h-9.364z" fill="#212b30" transform="translate(-62.867 -1.048)"/><path d="m281.449 77.12c.611-1.18.61-2.005.501-2.49-.028-.128-.136-.22-.267-.227l-.055-.002c-1.114 0-2.017 1.26-2.017 2.813 0 1.196.537 2.216 1.293 2.622-.116-.573-.095-1.48.545-2.715m.904-2.529c.115.572.095 1.479-.545 2.715-.612 1.18-.61 2.006-.502 2.49.028.128.136.221.267.228l.055.001c1.114 0 2.017-1.259 2.017-2.812 0-1.197-.537-2.216-1.292-2.622" fill="#87a5b8" transform="translate(-62.867 -1.048)"/><path d="m295.839 88.691h14.772v-20.843h-14.772z" fill="#205a7b" transform="translate(-62.867 -1.048)"/><path d="m310.611 67.848h-14.772l1.426-4.258h11.919z" fill="#87a5b8" transform="translate(-62.867 -1.048)"/><path d="m297.265 63.59h11.919v-2.302h-11.919z" fill="#205a7b" transform="translate(-62.867 -1.048)"/><path d="m298.543 82.424h9.363v-10.42h-9.363z" fill="#212b30" transform="translate(-62.867 -1.048)"/><path d="m303.045 77.12c.612-1.18.61-2.005.502-2.49-.028-.128-.136-.22-.267-.227l-.055-.002c-1.114 0-2.017 1.26-2.017 2.813 0 1.196.537 2.216 1.292 2.622-.115-.573-.095-1.48.545-2.715m.905-2.529c.115.572.094 1.479-.546 2.715-.611 1.18-.61 2.006-.501 2.49.028.128.136.221.267.228l.055.001c1.114 0 2.017-1.259 2.017-2.812 0-1.197-.537-2.216-1.293-2.622" fill="#87a5b8" transform="translate(-62.867 -1.048)"/><path d="m327.916 70.745h-2.378c-4.982 0-9.2 3.872-9.396 8.844-.006.141-.009.283-.009.426 0 3.553 1.756 6.695 4.446 8.614h12.295c2.69-1.919 4.446-5.06 4.446-8.614 0-.143-.003-.285-.009-.426-.197-4.972-4.414-8.844-9.395-8.844" fill="#205a7b" transform="translate(-62.867 -1.048)"/><path d="m328.4 69.581c0 .924-.75 1.672-1.673 1.672-.925 0-1.674-.748-1.674-1.672 0-.923.75-1.67 1.674-1.67s1.673.747 1.673 1.67" fill="#205a7b" transform="translate(-62.867 -1.048)"/><path d="m326.727 74.68c2.7 0 5.4-.34 8.043-1.018-.36-.374-.75-.718-1.167-1.029-4.534 1.03-9.218 1.03-13.752 0-.417.311-.808.655-1.167 1.029 2.643.678 5.343 1.018 8.043 1.018" fill="#212b30" transform="translate(-62.867 -1.048)"/><path d="m319.838 85.425c.448-.253.583-.826.308-1.262-.777-1.231-1.209-2.672-1.209-4.148 0-.107.002-.212.007-.317.048-1.226.446-2.357 1.098-3.306.352-.513.084-1.218-.52-1.367l-.004-.001c-.358-.088-.737.05-.945.352-.838 1.22-1.35 2.675-1.412 4.252-.005.129-.008.257-.008.387 0 1.827.53 3.592 1.487 5.102.256.404.78.543 1.198.308" fill="#376288" transform="translate(-62.867 -1.048)"/><path d="m40.197 44.243h-37.262c0-10.073 8.176-18.239 18.261-18.239h.74c10.086 0 18.261 8.166 18.261 18.239" fill="#224862" transform="translate(142.969 -1.048)"/><path d="m39.827 50.651h-36.522c-1.771 0-3.207-1.434-3.207-3.204s1.436-3.204 3.207-3.204h36.522c1.772 0 3.208 1.434 3.208 3.204s-1.436 3.204-3.208 3.204m-20.235-29.701h3.948v-20.95h-3.948z" fill="#87a5b8" transform="translate(142.969 -1.048)"/><path d="m21.566 31.284c-2.18 0-3.948-1.766-3.948-3.944v-5.405c0-2.178 1.768-3.943 3.948-3.943 2.181 0 3.949 1.765 3.949 3.943v5.405c0 2.178-1.768 3.944-3.949 3.944" fill="#205a7b" transform="translate(142.969 -1.048)"/><path d="m33.439 39.647c1.75 0 2.806-1.988 1.778-3.403-2.53-3.481-6.394-5.934-10.837-6.6-1.292-.193-2.444.843-2.444 2.148v.014c0 1.072.79 1.972 1.85 2.135 3.223.495 6.045 2.266 7.9 4.806.41.561 1.057.9 1.753.9" fill="#fff" fill-opacity=".2" transform="translate(142.969 -1.048)"/><path d="m105.137 50.651h-31.634l-73.503 114.227h178.64z" fill="url(#i)" transform="translate(75.216 -1.048)"/><path d="m2.88 44.243h37.262c0-10.073-8.176-18.239-18.26-18.239h-.741c-10.085 0-18.261 8.166-18.261 18.239" fill="#224862" transform="translate(246.711 -1.048)"/><path d="m3.25 50.651h36.522c1.771 0 3.207-1.434 3.207-3.204s-1.436-3.204-3.207-3.204h-36.522c-1.772 0-3.208 1.434-3.208 3.204s1.436 3.204 3.208 3.204m16.287-29.701h3.948v-20.95h-3.948z" fill="#87a5b8" transform="translate(246.711 -1.048)"/><path d="m21.51 31.284c2.181 0 3.95-1.766 3.95-3.944v-5.405c0-2.178-1.769-3.943-3.95-3.943-2.18 0-3.948 1.765-3.948 3.943v5.405c0 2.178 1.768 3.944 3.949 3.944" fill="#205a7b" transform="translate(246.711 -1.048)"/><path d="m9.638 39.647c-1.75 0-2.806-1.988-1.778-3.403 2.53-3.481 6.394-5.934 10.837-6.6 1.292-.193 2.444.843 2.444 2.148v.014c0 1.072-.79 1.972-1.85 2.135-3.223.495-6.045 2.266-7.9 4.806-.41.561-1.057.9-1.753.9" fill="#fff" fill-opacity=".2" transform="translate(246.711 -1.048)"/><path d="m177.189 50.651h31.634l73.503 114.227h-178.64z" fill="url(#i)" transform="translate(75.216 -1.048)"/></g><g mask="url(#l)"><path d="m207.956 167.154c0 9.45-46.552 17.112-103.978 17.112-57.425 0-103.978-7.661-103.978-17.112 0-9.452 46.553-17.113 103.978-17.113 57.426 0 103.978 7.661 103.978 17.113" fill="#000" fill-opacity=".1" transform="translate(35.533 82.218)"/><path d="m93.12 0-24.604 4.996 14.18 6.62 24.604-4.995-14.18-6.621 32.1 14.988" fill="#ebb25a" transform="translate(40.417 82.218)"/><path d="m107.3 6.621-24.603 4.995 3.741 1.747 24.602-4.996z" fill="#ebd8bb" transform="translate(40.417 82.218)"/><path d="m125.22 14.988-24.602 4.996-11.04 36.184 24.602-4.995z" fill="#a6690c" transform="translate(40.417 82.218)"/><path d="m86.438 13.363-3.741-1.747-14.18-6.62-11.04 36.185 32.101 14.987 11.04-36.184z" fill="#e08f13" transform="translate(40.417 82.218)"/><path d="m82.697 11.616-1.836 6.018c-.345 1.133.195 2.347 1.268 2.848.897.418 1.963.03 2.382-.866.036-.076.066-.155.09-.235l1.837-6.018-3.74-1.747z" fill="#fde1c7" transform="translate(40.417 82.218)"/><path d="m132.046 39.533c-6.963.636-12.478.887-16.547.752-4.069-.134-9.352-.741-15.85-1.821 6.229-3.102 11.022-5.316 14.38-6.642 3.358-1.325 8.61-3.076 15.756-5.254 6.922-.617 12.329-.86 16.222-.731 3.892.13 9.207.73 15.944 1.8l-29.905 11.896c7.631-2.567 13.22-4.556 16.765-5.966 3.546-1.41 7.925-3.387 13.14-5.93m-50.911-19.27-24.602 4.996 14.18 6.621 24.602-4.996z" fill="#ebb25a" transform="translate(40.417 82.218)"/><path d="m110.955 33.062 4.125-1.65 33.662 1.48-3.487 1.387z" fill="#ebd8bb" transform="translate(40.417 82.218)"/><path d="m140.049 80.421-32.396-1.069-8.003-40.888 32.396 1.069z" fill="#e08f13" transform="translate(40.417 82.218)"/><path d="m169.954 68.526-29.905 11.894c-2.055-7.576-3.559-13.8-4.513-18.674-.954-4.872-2.117-12.277-3.49-22.214l13.209-5.254 3.487-1.387 13.209-5.255c2.831 9.713 4.718 16.976 5.66 21.792.943 4.815 1.724 11.18 2.343 19.097z" fill="#a6690c" transform="translate(40.417 82.218)"/><path d="m148.766 42.617c-.799.318-1.705-.073-2.022-.872-.036-.09-.063-.182-.082-.276l-1.407-7.19 3.487-1.387 1.407 7.19c.21 1.068-.372 2.133-1.383 2.535z" fill="#fde1c7" transform="translate(40.417 82.218)"/><path d="m34.36 1.793c4.217-.293 10.487-.567 18.81-.822l-15.568 32.002c-4.211-3.658-7.775-7.43-10.691-11.316s-6.703-9.91-11.36-18.07c8.323-.903 14.593-1.5 18.81-1.794z" fill="#ebb25a" transform="translate(170.427 145.445)"/><path d="m63.858 14.637c2.27 3.355 5.339 8.595 9.204 15.72l-35.46 2.45 15.568-31.837c4.853 5.756 8.416 10.311 10.687 13.666z" fill="#e08f13" transform="translate(170.427 145.445)"/><path d="m73.062 30.357c-3.161 8.398-5.743 14.638-7.745 18.72-2.002 4.08-4.603 8.408-7.804 12.98l-37.621 2.616 17.71-31.7z" fill="#e08f13" transform="translate(170.427 145.445)"/><path d="m37.601 32.973-17.709 31.7-19.892-29.386 15.55-31.7c4.35 6.739 7.77 11.768 10.26 15.086 2.491 3.318 6.421 8.085 11.791 14.3" fill="#a6690c" transform="translate(170.427 145.445)"/><path d="m73.377 42.767c.282-2.363.423-4.142.423-5.337 0-1.578-.246-3.936-.738-7.073l-35.46 2.45c-.696 3.725-1.044 6.478-1.044 8.257 0 1.108.135 2.382.405 3.82.304 1.617 1.718 2.788 3.364 2.786 6.847-.01 12.204-.062 16.071-.155 3.832-.092 8.58-.692 14.242-1.8 1.456-.284 2.561-1.475 2.737-2.948z" fill="#ebb25a" transform="translate(170.427 145.445)"/><path d="m46.212.045 6.958.925-37.621 2.616c-.444-.069-.748-.485-.679-.93.06-.376.371-.662.752-.686l29.917-1.948c.225-.015.45-.007.673.023z" fill="#e08f13" transform="translate(170.427 145.445)"/><path d="m66.835 34.299-37.621-2.616 15.569 32.003z" fill="#ebb25a" transform="translate(40.417 82.218)"/><path d="m29.214 31.683-19.892 29.387 35.461 2.449zm-19.892 29.387c1.866 7.645 4.32 13.99 7.363 19.032 2.651 4.395 5.064 8.166 7.239 11.314.59.855 1.537 1.395 2.574 1.467l35.994 2.503c-3.362-8.371-6.213-14.65-8.55-18.834-2.338-4.184-5.39-8.473-9.159-12.866z" fill="#e08f13" transform="translate(40.417 82.218)"/><path d="m53.156 76.635c2.243 4.014 5.355 10.265 9.336 18.75l19.892-29.385-15.55-31.7-22.05 29.387c3.339 4.618 6.13 8.934 8.372 12.949z" fill="#a6690c" transform="translate(40.417 82.218)"/><path d="m44.783 63.686-35.461-2.616c2.142-5.653 5.028-10.949 8.658-15.886 3.63-4.938 7.374-9.438 11.234-13.501 8.286-.229 14.556-.182 18.81.14 4.254.32 10.525 1.222 18.81 2.702-4.459 7.098-7.931 12.291-10.418 15.579-2.486 3.287-6.363 7.815-11.633 13.582z" fill="#ebb25a" transform="translate(40.417 82.218)"/><path d="m33.76 47.54-10.104 15.208h3.74l10.725-15.18c.371-.526.246-1.252-.279-1.623-.191-.136-.42-.21-.654-.213-1.376-.02-2.668.66-3.43 1.806z" fill="#ebd8bb" transform="translate(40.417 82.218)"/><path d="m23.657 62.749 1.48 6.452c.23 1.005 1.163 1.69 2.191 1.606.865-.07 1.51-.827 1.44-1.692-.006-.07-.016-.139-.031-.207l-1.34-6.16h-3.74z" fill="#fde1c7" transform="translate(40.417 82.218)"/><path d="m7.884 114.43c4.202-1.082 7.354-1.825 9.455-2.227 2.245-.43 5.596-.912 10.051-1.447l-7.005 10.477-20.385 3.902c1.004-2.609 1.908-4.514 2.71-5.715.715-1.068 1.925-2.44 3.63-4.118.43-.42.962-.722 1.544-.872z" fill="#ebb25a" transform="translate(40.417 82.218)"/><path d="m20.385 121.233 7.005-10.477 5.382-1.031-7.006 10.478z" fill="#ebd8bb" transform="translate(40.417 82.218)"/><path d="m46.151 116.301 7.005-10.477 9.948 45.874-7.006 10.478zm9.947 45.875c-7.543 2.618-14.643 4.596-21.298 5.935-6.057 1.218-13.463 2.128-22.218 2.73-1.555.106-2.985-.852-3.477-2.33-2.882-8.664-5.016-16.276-6.402-22.838-1.517-7.185-2.418-14.03-2.703-20.538l20.385-3.902 5.38-1.03 20.386-3.902z" fill="#a6690c" transform="translate(40.417 82.218)"/><path d="m25.272 130.85c-1.496.287-2.948-.672-3.271-2.162l-1.616-7.455 5.38-1.03 1.618 7.455c.312 1.443-.604 2.867-2.047 3.18l-.064.013z" fill="#fde1c7" transform="translate(40.417 82.218)"/><path d="m25.766 120.203 7.006-10.478 20.384-3.901-7.005 10.477zm55.156-85.482c10.179 1.584 17.689 2.845 22.528 3.785 5.038.978 12.582 2.655 22.632 5.032-1.757 1.788-3.248 3.17-4.473 4.146-1.224.976-3.26 2.406-6.11 4.29l-46.425-9.014c2.02-2.1 3.576-3.585 4.667-4.454.945-.754 2.554-1.852 4.824-3.293.7-.444 1.537-.62 2.357-.492z" fill="#ebb25a" transform="translate(40.417 82.218)"/><path d="m126.082 43.538c-.802 10.28-1.677 18.038-2.627 23.276-.95 5.237-2.877 12.942-5.784 23.116l-10.584 8.436 8.412-46.392z" fill="#a6690c" transform="translate(40.417 82.218)"/><path d="m112.858 72.715c-1.133 6.248-3.056 14.799-5.77 25.65l-46.426-9.013c.848-10.12 1.822-18.505 2.921-25.154 1.1-6.65 2.93-13.728 5.49-21.238l46.426 9.014c-.627 7.578-1.508 14.492-2.64 20.74z" fill="#e08f13" transform="translate(40.417 82.218)"/><path d="m100.618 37.994c1.16.193 2.06.35 2.702.47s1.57.308 2.782.561l-11.11 8.968-5.413-1.051 11.04-8.948z" fill="#ebd8bb" transform="translate(40.417 82.218)"/><path d="m90.429 57.713c-1.5-.291-2.488-1.735-2.215-3.239l1.365-7.532 5.414 1.05-1.366 7.533c-.268 1.48-1.685 2.463-3.165 2.194z" fill="#fde1c7" transform="translate(40.417 82.218)"/><path d="m57.884 80.421c10.343 1.096 16.77 1.82 19.283 2.173s4.456.765 5.829 1.238l18.695 2.624-26.598 14.451-18.575-2.607-.12.067-23.626-3.4c5.92-4.71 10.379-7.881 13.379-9.511s6.91-3.308 11.733-5.034z" fill="#ebb25a" transform="translate(40.417 82.218)"/><path d="m78.065 83.139-26.598 14.452 4.931.692 26.598-14.451z" fill="#ebd8bb" transform="translate(40.417 82.218)"/><path d="m101.691 86.456-26.598 14.451.085 45.623 26.597-14.452z" fill="#a6690c" transform="translate(40.417 82.218)"/><path d="m56.398 98.283-4.93-.692-18.696-2.624c-.978 8.929-1.467 16.588-1.467 22.978 0 5.828.43 12.62 1.29 20.373.154 1.38 1.125 2.529 2.46 2.91 6.941 1.979 12.776 3.3 17.503 3.964 5.217.733 12.757 1.179 22.62 1.338.698-11.528 1.042-20.304 1.03-26.327-.01-6.023-.382-12.455-1.115-19.296z" fill="#e08f13" transform="translate(40.417 82.218)"/><path d="m51.467 97.59.014 7.588c.003 1.429 1.056 2.637 2.47 2.836 1.182.166 2.274-.658 2.44-1.84.014-.1.021-.202.02-.303l-.013-7.588-4.93-.692z" fill="#fde1c7" transform="translate(40.417 82.218)"/><path d="m170.527 109.286c-4.108-2.385-9.493-5-16.156-7.844l-14.9 8.593 33.72 19.572 14.9-8.592c-7.6-5.435-13.455-9.345-17.564-11.73z" fill="#ebb25a" transform="translate(40.417 82.218)"/><path d="m173.19 129.607-33.72-19.572-3.934 2.269 33.721 19.572z" fill="#ebd8bb" transform="translate(40.417 82.218)"/><path d="m120.635 120.896.11 38.717c4.08 3.922 8.382 7.196 12.904 9.82 4.523 2.626 11.462 5.877 20.817 9.753l-.11-38.718-33.72-19.572z" fill="#e08f13" transform="translate(40.417 82.218)"/><path d="m154.466 179.186c8.558-3.858 14.8-6.918 18.724-9.181 3.65-2.105 8.234-5.215 13.751-9.328.8-.597 1.3-1.515 1.367-2.512.485-7.27.722-13.023.71-17.261-.013-4.538-.322-11.168-.927-19.89l-14.9 8.593-3.934 2.269-14.901 8.592c-.516 6.945-.768 12.773-.754 17.483.013 4.71.3 11.788.864 21.235z" fill="#a6690c" transform="translate(40.417 82.218)"/><path d="m171.248 139.292c1.216-.702 1.964-2 1.96-3.405l-.018-6.28-3.933 2.269.017 6.28c.002.727.593 1.314 1.32 1.312.23 0 .455-.061.654-.176z" fill="#fde1c7" transform="translate(40.417 82.218)"/><path d="m169.257 131.876-33.721-19.572-14.901 8.592 33.721 19.572z" fill="#ebb25a" transform="translate(40.417 82.218)"/><path d="m112.33 127.155-14.727-5.858c-7.314-.332-13.15-.426-17.506-.282-4.357.144-10.562.635-18.616 1.474l14.728 5.858z" fill="#e08f13" transform="translate(40.417 82.218)"/><path d="m80.097 129.894 36.121-1.192-3.888-1.547-36.121 1.192z" fill="#fde1c7" transform="translate(40.417 82.218)"/><path d="m122.763 177.857c3.057-9.526 5.038-16.602 5.943-21.227.976-4.989 1.723-12.345 2.24-22.07l-36.122 1.192-8.924 45.59 33.722-1.114c1.443-.047 2.7-.996 3.14-2.37z" fill="#a6690c" transform="translate(40.417 82.218)"/><path d="m54.17 169.15c5.152 3.382 9.506 5.78 13.061 7.194 3.92 1.56 10.144 3.225 18.67 4.997 3.338-10.976 5.553-19.254 6.645-24.831 1.092-5.578 1.851-12.497 2.278-20.757l-14.727-5.86-3.888-1.546-14.728-5.858c-3.554 9.753-5.839 17.223-6.854 22.408-.95 4.857-1.616 11.943-1.996 21.258-.05 1.2.535 2.337 1.54 2.996z" fill="#ebb25a" transform="translate(40.417 82.218)"/><path d="m76.182 139.19c.891.355 1.9-.08 2.255-.972.04-.1.07-.203.09-.308l1.57-8.016-3.888-1.547-1.57 8.017c-.232 1.19.416 2.378 1.543 2.826z" fill="#ebd8bb" transform="translate(40.417 82.218)"/><path d="m94.824 135.752 36.122-1.192-14.728-5.858-36.121 1.192z" fill="#e08f13" transform="translate(40.417 82.218)"/><path d="m155.821 92.033c-6.557-5.558-11.448-9.503-14.674-11.834-3.025-2.186-7.578-5.116-13.66-8.792-.788-.477-1.736-.614-2.628-.382-7.849 2.046-13.773 3.717-17.772 5.013-4.232 1.373-10.444 3.667-18.637 6.883 7.388 5.695 12.89 9.85 16.509 12.465 3.618 2.614 7.971 5.583 13.06 8.905 8.775-2.184 15.286-3.964 19.531-5.341 4.246-1.377 10.336-3.682 18.271-6.917z" fill="#ebb25a" transform="translate(40.417 82.218)"/><path d="m143.85 82.237c-.704-.55-1.248-.967-1.63-1.25-.381-.282-.969-.704-1.762-1.264l-38.948 12.637 3.448 2.492z" fill="#ebd8bb" transform="translate(40.417 82.218)"/><path d="m130.01 135.752c4.741-1.537 10.395-3.906 16.962-7.106 2.57-5.714 4.451-11.63 5.645-17.747 1.193-6.118 2.262-12.406 3.204-18.866l-37.802 12.258-8.85 36.613c9.154-1.897 16.1-3.614 20.841-5.151z" fill="#a6690c" transform="translate(40.417 82.218)"/><path d="m79.6 119.533c4.048 4.315 7.865 7.768 11.452 10.36 3.587 2.593 9.626 6.263 18.118 11.01 2.728-8.205 4.61-14.45 5.646-18.735 1.036-4.286 2.103-10.245 3.203-17.877l-13.06-9.44-3.448-2.491-13.06-9.44c-2.581 7.98-4.4 14.154-5.455 18.522-1.056 4.369-2.188 10.4-3.395 18.091z" fill="#e08f13" transform="translate(40.417 82.218)"/><path d="m101.28 101.692c.64.462 1.532.319 1.993-.32.11-.15.187-.321.231-.501l1.455-6.02-3.448-2.491-1.455 6.019c-.303 1.25.181 2.56 1.224 3.313z" fill="#fde1c7" transform="translate(40.417 82.218)"/></g><g mask="url(#l)"><g filter="url(#j)" transform="translate(282.9 86.312)"><g transform="translate(14.88 113.112)"><use fill="#fff" xlink:href="#c"/><path d="m-1.673 50.26c.662.025 1.33.04 1.988.04 2.655 0 5.244-.22 7.412-.726 7.573-1.774 2.192-17.586 1.959-22.304-.13-2.67.5-5.357-1.889-7.973-.659-.723-1.843-1.36-3.347-1.943-1.814-.704-.092-3.694 0-4.078.261.133 2.234 1.575 4.433 2.503 2.2.928 2.655.84 4.886 1.575 2.23.734 3.848.779 3.779 1.099-2.054 9.536-1.543 20.51 2.269 32.614-6.649.125-13.633.282-21.149.31-.12-.375-.229-.744-.341-1.118zm26.029.614c.165-.568.32-1.137.465-1.705 6.885-.688 9.423-5.221 10.036-7.352 1.536-5.348 1.464-11.005-.978-16.328-.572-1.24-.964-3.552-4.412-4.507-1.505-.417-2.896-.58-4.312-.601-.093-.472-.703-1.607-.799-2.065 2.44-.218 6.587-1.575 8.801-2.404 3.628-1.358 5.193-2.417 8.722-3.015 2.15 9.046 4.836 25.466 1.155 38.22-6.128-.018-13.088-.13-18.678-.243z" fill="#000" fill-opacity=".1" mask="url(#n)"/></g><use fill="#fff" xlink:href="#d"/><g mask="url(#o)"><g transform="translate(-.062 .227)"><path d="m16.228 5.704c6.538-5.395 27.55-7.815 37.257-3.45 9.706 4.365 16.313 16.79 12.877 35.76-1.987 10.978-8.17 17.628-15.182 21.245l.014.136c.462 5.902 3.78 5.16 7.96 14.727s5.787 29.936 5.547 35.047c-.19 4.023-3.102 13.102-5.547 15.925-4.119 4.753-7.403 5.883-14.062 7.54-7.257 1.808-16.183 2.61-22.856-1.632-6.455-4.104-10.964-10.861-11.897-20.107-1.486-14.725-.492-18.449 3.919-32.031 3.693-11.373 7.808-13.57 10.26-18.573l.007-.015c-4.125-1.851-8.09-4.77-11.398-8.677-3.029-3.577-6.148-12.668-6.255-18.614-.337-18.65 2.818-21.886 9.356-27.281z" fill="#fff"/><use fill="#fff" xlink:href="#e"/><g fill="#000"><path d="m22.061 62.45c-3.402-.814-1.582-1.993-7.347-6.507-4.518-3.539-5.73-5.038-7.035-12.954-.363-2.203-1.157-6.661-1.28-10.004-.046-1.279.445-2.419.448-3.17.974 5.917 2.692 11.678 5.417 16.918 4.277 8.223 11.152 12.816 19.7 14.158 1.445.227 3.652.695 5.089.695 8.515 0 16.197-3.536 22.398-9.978 2.798-2.909 4.762-6.434 6.134-10.31-.24 1.018.998 1.037.719 2.005-1.055 3.666-3.9 7.897-5.638 10.333-5.467 7.667-12.893 10.84-22.754 11.194-9.862.355-13.703-1.825-15.85-2.38z" fill-opacity=".2" mask="url(#p)"/><path d="m22.913 57.88c-1.318-.687-3.214-1.939-5.284-3.891-2.161-2.038-4.33-4.954-5.744-8.027-.446-.969-1.313-2.768-1.674-3.756-.387-1.057-1.014-2.692-1.562-4.494-.468-1.54-.861-3.208-1.188-4.672-.412-1.844-.5-2.396-.614-3.436.29 1.603.895 3.142 1.239 4.652.606 2.67 1.67 4.835 2.721 7.357.362.867.876 2.12 1.369 2.982 4.291 7.517 10.827 12.35 19.404 13.577 1.45.208 2.898.308 4.34.308 8.544 0 16.803-3.54 23.025-9.428 2.808-2.66 5.683-5.913 7.06-9.456-.13.504-.21 1.114-.42 1.701-.373 1.043-.86 2.104-1.208 2.916-.117.276-.527 1.024-.636 1.277-.993 2.308-1.921 3.552-3.482 5.243-1.902 2.062-4.375 4.086-6.305 5.555-4.172 3.173-11.16 5.298-16.901 5.298-1.31 0-2.61-.296-3.872-.49-2.657-.407-5.143-.984-7.16-1.78-1.227-.484-2.313-1.021-3.108-1.436z" fill-opacity=".1" mask="url(#p)"/><path d="m22.8 132.034c-5.79-3.03-9.171-7.544-11.279-13.792-.847-2.51-1.011-5.383-1.827-8.098-1.33-4.427-1.33-5.035-.543-7.643-.017.869.984 2.568 1.218 3.548 1.558 6.525 4.943 13.527 7.768 17.048 2.614 3.259 11.604 7.422 17.683 7.422 6.078 0 19.649-5.234 23.294-10.665 2.865-4.269 5.824-14.131 5.61-19.243.303 1.743.638 5.74.561 7.479v1.459c-.179 4.084-2.163 9.564-4.175 13.149-3.347 5.958-8.483 8.614-15.22 10.402-3.059.811-7.218.998-10.36.998-2.088 0-4.146.04-5.987-.369-2.469-.55-4.63-.59-6.744-1.695z" fill-opacity=".2" mask="url(#p)"/></g><g transform="translate(50.036 63.929)"><use fill="#fff" xlink:href="#f"/><path d="m12.34 49.605c.025 0-2.741-3.79-2.741-10.338s2.533-14.376 7.388-20.847c2.132-2.845 2.78-3.42 1.68-.755-.815 1.979-1.064 2.884-2.317 6.156-1.298 3.388-1.716 4.349-2.993 9.549-.647 2.633 1.87 13.597.968 13.814-.254.06-2.277 2.42-1.986 2.42z" fill="#000" fill-opacity=".1" mask="url(#q)" transform="matrix(-1 0 0 1 28.794 0)"/></g><g transform="translate(.062 64.028)"><use fill="#fff" xlink:href="#g"/><path d="m7.647 49.505c.026 0-2.74-3.79-2.74-10.337 0-6.549 2.533-14.376 7.388-20.848 2.132-2.845 2.78-3.42 1.68-.754-.815 1.978-1.065 2.884-2.318 6.156-1.297 3.388-1.715 4.348-2.992 9.548-.647 2.633 1.87 13.598.968 13.814-.254.061-2.277 2.421-1.986 2.421z" fill="#000" fill-opacity=".1" mask="url(#r)"/></g><path d="m2.795 78.914c6.081-16.9 12.243-22.157 18.485-15.772 3.003 3.072 10.741 5.3 15.173 5.176 6.06-.17 11.328-2.323 15.804-6.463 5.115 1.963 8.478 3.792 10.09 5.488 1.612 1.697 3.644 5.23 6.096 10.597l-7.969 5.027c.183.336.427.876.732 1.62.476 1.161 1.775 3.797 2.73 8.582 1.37 6.869 1.36 15.228.788 17.891-5.95 3.708-12.275 7.335-28.775 7.335-11 0-19.478-1.32-25.434-3.962-1.327-7.92-1.864-13.279-1.61-16.079.534-5.864 1.277-7.74 2.257-12.037.706-3.094 1.779-4.69 2.149-6.437.129-.607-.897 3.392-1.427 3.392-1.173 0-4.203-1.452-9.089-4.358z" fill="#002134"/></g></g><g mask="url(#o)"><path d="m41.193 6.258c0 3.3-2.66 5.975-5.942 5.975s-5.942-2.675-5.942-5.975 2.66-5.976 5.942-5.976c3.281 0 5.942 2.676 5.942 5.976" fill="#222039" transform="translate(15.764 25.49)"/><path d="m39.053 3.434c0 .91-.735 1.649-1.642 1.649-.905 0-1.64-.738-1.64-1.65 0-.91.735-1.649 1.64-1.649.907 0 1.642.739 1.642 1.65m.359 2.285c0 .351-.283.636-.632.636-.35 0-.633-.285-.633-.636s.283-.636.633-.636.632.285.632.636" fill="#fff" transform="translate(15.764 25.49)"/><path d="m12.078 6.24c0 3.215-2.613 5.82-5.837 5.82s-5.841-2.605-5.841-5.82c0-3.213 2.616-5.819 5.84-5.819s5.837 2.606 5.837 5.82" fill="#222039" transform="translate(15.764 25.49)"/><path d="m9.976 3.493c0 .886-.722 1.605-1.612 1.605-.891 0-1.613-.72-1.613-1.605 0-.887.722-1.605 1.613-1.605.89 0 1.612.718 1.612 1.605m.354 2.223c0 .342-.279.62-.622.62-.344 0-.622-.278-.622-.62s.278-.618.622-.618c.343 0 .622.276.622.618" fill="#fff" transform="translate(15.764 25.49)"/><path d="m0 0h23.917v20.475h-23.917z" transform="translate(25.966 36.172)"/><path d="m2.826 4.174c-1.41.123-2.074 1.22-2.074 3.326 0 6.002 5.022 10.86 11.207 10.86 6.184 0 11.206-4.858 11.206-10.86 0-2.04-.624-3.134-1.944-3.311l-.13-.015c-.899-.078-.693-.136-4.205 1.01-1.995.651-3.422.96-4.927.96-1.422 0-2.774-.275-4.6-.855l-2.083-.675c-1.72-.551-1.739-.502-2.45-.44z" fill="#222039" transform="translate(25.966 36.172)"/><g transform="translate(27.333 40.949)"><path d="m19.302 10.876c0 .64-3.424 3.014-8.2 3.014s-8.2-2.353-8.2-3.014c0-1.665 2.97-3.014 8.2-3.014s8.2 1.35 8.2 3.014" fill="#ed4f62" mask="url(#s)"/><path d="m6.33 1.495c-.264 1.28-1.293 2.214-2.295 2.084-1.003-.13-1.6-1.274-1.335-2.555.266-1.28 1.293-2.214 2.296-2.084 1.004.13 1.6 1.274 1.335 2.555m4.739.902c0 1.298-.824 2.35-1.84 2.35-1.015 0-1.839-1.052-1.839-2.35s.824-2.35 1.84-2.35c1.015 0 1.839 1.052 1.839 2.35m4.952-1.035c.433 1.253-.011 2.44-.991 2.651s-2.125-.632-2.558-1.884.011-2.439.991-2.65c.98-.212 2.125.631 2.558 1.883m4.478-1.72c.456 1.247.036 2.439-.94 2.663-.976.223-2.137-.607-2.594-1.853-.457-1.247-.036-2.439.94-2.662.975-.224 2.136.606 2.593 1.852" fill="#fff" mask="url(#s)"/></g></g></g><path d="m0 0h30.75v30.712h-30.75z" transform="translate(304.767 71.98)"/><path d="m27.908 9.865c.361-1.037.542-1.883.542-2.539 0-.799-.049-1.876-.146-3.231-1.126 2.479-2.883 5.622-4.994 7.508-3.001 2.754-7.074 3.283-10.826 4.767-2.486.995-3.569 3.125-3.987 5.53h7.053c5.637-1.94 9.925-6.622 12.358-12.035z" fill="#ed4f62" transform="translate(304.767 71.98)"/><path d="m28.022 9.165c-2.714 5.475-6.492 10.775-12.779 12.735h4.63c.09 0 .323-.003.698-.011 3.59-.072 6.81-2.226 8.249-5.517-.024-.01.356-.726.55-1.493.192-.767.637-2.474.148-3.506-.466-.982-.964-1.717-1.496-2.207z" fill="#b03241" transform="translate(304.767 71.98)"/><path d="m16.726 10.28c.375-.374.55-.33.786-.811.265-.347.373-1.88.373-2.235 0-.856-.124-1.903-.373-3.139 0 0-1.63 3.317-9.456 3.317-6.1 0-6.529 5.992-6.421 8.624-.086.032.246 1.595.322 1.863.326 1.12 1.056 2.23 2.188 3.329.444.43 1.038.671 1.656.671h1.972c.193-1.904.583-3.68 1.516-5.392 1.705-3.103 5.185-3.766 7.437-6.227z" fill="#ed4f62" transform="translate(304.767 71.98)"/><path d="m27.908 5.152.396-1.057c-6.748.29-10.003 3.953-10.585 4.692-.237.482-.55.932-.938 1.307-2.264 2.464-5.713 3.214-7.438 6.32-.938 1.715-1.433 3.579-1.638 5.485h1.078c.42-2.431 1.498-4.585 4.01-5.592 3.772-1.5 7.868-2.035 10.887-4.82 2.123-1.907 3.096-3.84 4.228-6.335z" fill="#b03241" transform="translate(304.767 71.98)"/><g fill="#ed4f62"><path d="m11.704 21.504s-3.639 6.013 4.32 8.308z" transform="translate(304.767 71.98)"/><path d="m19.589 25.785s-3.64.92-7.923-3.886z" transform="translate(304.767 71.98)"/></g></g><g mask="url(#l)"><path d="m91.567 80.535v2.73l-11.34-.001-.202.684h-2.2l-.203-.684h-62.312l-.203.684h-2.2l-.203-.684-11.338.001v-2.73h90.2z" fill="#002134" transform="translate(272.65 114.295)"/><g filter="url(#k)" transform="translate(293.15 140.23)"><path d="m0 0h54.667v54.6h-54.667z"/><path d="m27.254 13.142-2.08-.004.014-7.663 2.081.004z" fill="#c83446"/><path d="m44.355 52.056-36.414-.062.036-22.572 36.417.061z" fill="#ed4f62"/><path d="m35.804 45.941-19.295-.032.022-12.318 19.295.032z" fill="#fff" fill-opacity=".2"/><path d="m44.219 26.246-36.053-.061.007-3.596c0-.334.272-.604.607-.604l34.84.06c.335 0 .603.27.603.605z" fill="#ed4f62"/><path d="m45.058 30.093-37.745-.063c-1.377-.003-2.49-1.119-2.487-2.494 0-1.375 1.117-2.488 2.495-2.485l37.744.063c1.377.003 2.49 1.12 2.49 2.494-.003 1.375-1.12 2.488-2.497 2.485" fill="#b03241"/><path d="m33.11 27.608c0-1.375-1.113-2.491-2.49-2.494l-5.839-.01c-1.138.23-1.998 1.228-1.998 2.432-.004 1.375 1.11 2.491 2.487 2.494l5.842.01c1.135-.23 1.995-1.228 1.998-2.432" fill="#000" fill-opacity=".1"/><path d="m45.018 54.547-37.747-.064c-1.374-.002-2.491-1.119-2.488-2.494.004-1.375 1.12-2.487 2.498-2.485l37.745.064c1.377.002 2.49 1.118 2.487 2.493 0 1.375-1.12 2.488-2.495 2.486" fill="#b03241"/><path d="m21.07 49.568-14.224-.024c-1.17.204-2.06 1.219-2.063 2.445-.003 1.375 1.114 2.492 2.488 2.494l14.217.024c1.174-.2 2.07-1.216 2.073-2.446 0-1.375-1.113-2.491-2.49-2.493m10.829 2.493c.004-1.375-1.11-2.491-2.487-2.493l-1.998-.004c-1.12.241-1.966 1.232-1.966 2.425-.004 1.375 1.11 2.492 2.487 2.494l1.988.004c1.127-.238 1.977-1.23 1.977-2.426" fill="#000" fill-opacity=".1"/><path d="m40.654 22.04c-2.227-5.802-7.847-9.927-14.438-9.939-6.591-.01-12.226 4.095-14.474 9.89l28.912.048" fill="#b03241"/><path d="m28.689 4.47c0 1.357-1.106 2.455-2.466 2.453-1.356-.002-2.459-1.105-2.455-2.462.003-1.358 1.106-2.456 2.466-2.454s2.458 1.105 2.455 2.462m19.766-4.462-4.243-.007c-.425 0-.774.345-.774.772v.659c-.004.427.342.773.77.774l.282 2.895 3.672.006.29-2.894c.428.001.774-.345.774-.772l.003-.658c0-.427-.346-.774-.774-.775" fill="#c83446"/><path d="m28.678 10.522-4.853-.008c-.653-.001-1.242-.493-1.274-1.147-.036-.697.521-1.273 1.21-1.272l4.393.007 4.107-4.446c.232-.248.553-.39.892-.389l16.868.029c.657 0 1.246.492 1.278 1.146.036.698-.521 1.274-1.213 1.273l-15.866-.027c-.343 0-.67.143-.906.395l-3.744 4.05c-.228.248-.553.39-.892.39" fill="#b03241"/><path d="m11.35 47.6h-.072c-.767 0-1.388-.621-1.388-1.388v-12.765c0-.767.62-1.39 1.388-1.39h.071c.768 0 1.392.623 1.392 1.39v12.765c0 .767-.624 1.389-1.392 1.389" fill="#c83446"/></g></g></g></svg>