<svg height="220" viewBox="0 0 330 220" width="330" xmlns="http://www.w3.org/2000/svg" xmlns:xlink="http://www.w3.org/1999/xlink"><defs><path id="a" d="m92.08 1c11.15 0 47.52-.84 75.795 13.854 28.275 14.693 44.772 19.92 61.311 18.752 56.23-3.976 42.694-31.158 73.497-18.752 26.132 10.526 2.537 41.906 15.317 54.603 12.781 12.697 18.813 22.163-1.959 53.291s19.417 52.18 0 74.52c-9.796 11.271-13.823 23.728-46.546 23.728l-221.471.004c-27.308 0-40.63-16.51-44.364-27.12-3.15-8.956-5.287-20.959-1.529-38.88 2.496-11.903 12.822-18.7 14.919-41.635s-7.562-23.811-7.562-43.908c0-14.548 2.165-19.282 7.562-29.272 18.57-34.375 53.944-39.185 75.03-39.185z"/><path id="b" d="m0 0h536.25v230.45h-536.25z"/><path id="c" d="m28.842.186c.933.645 3.616 5.695 4.546 8.387.766-1.408 7.626-7.426 9.003-7.064 1.444.38 2.104 9.146 1.957 10.124-.117.771-2.562 11.388-11.76 24.62-.511.735.108 4.396-1.342 6.647-.644 1-.719 1.82-2.712 1.451-3.005-.555-1.71-6.579-1.794-6.62-1.335-.652.598-2.717 1.013-3.841 1.107-3 2.006-5.175 2.774-7.514 2.38-7.255 2.759-13.275 2.8-16.025-1.768.824-10.656 5.058-16.846 14.99-1.293 2.073-2.416 4.124-3.798 6.483-.564.964-1.484 3.54-2.85 2.95-.09-.039-4.504 2.592-7.311.991-1.57-.895-2.49-2.2-.433-3.941 2.056-1.742 5.807-1.038 6.05-1.897 4.371-15.452 11.387-25.633 11.912-26.217.665-.74 7.57-4.37 8.791-3.524z"/><path id="d" d="m8.55.43c1.405.391 1.618 3.466 1.618 4.404 0 .987.614 4.357 0 5.04-.24.267-.668.601-1.188.84-.875 3.79-3.122 7.846-.682 9.844 5.323 4.361 11.495 6.138 12.136 6.32.752-1.241 1.536-1.366 2.621-3.55.148-.297-.156-2.174 0-2.48 1.96-3.861 2.272-6.76 5.406-7.176 2.435-.323 6.16.152 7.864 2.149 2.235 2.62 3.827 5.561 5.747 6.785 1.175.748 2.163 1.673 3.03 2.746 1.064.435 2.635 1.33 3.505 1.772 1.174.597 1.51.653 3.454 2.33 4.045 3.486 10.246 16.559 9.22 27.317.371 2.822-.957 6.846-1.989 7.65-1.48 1.153-3.312.035-3.926-.647-.152-.17-.229-.506-.258-.93-.04.445-.088.868-.138 1.263-.706 5.506-3.455 8.83-5.451 11.105-3.363 3.83-6.992 5.079-12.429 6.414-5.926 1.457-13.214 2.104-18.663-1.315-5.27-3.307-7.63-8.184-5.957-18.163.72-4.29 4.144-9.426 4.678-12.206.825-4.296.295-7.833.963-13.396-.94-.11-1.48-.178-3.547-.967-3.09-1.179-8.034-5.034-12.158-10.63-3.176-4.307-2.652-6.765-1.566-11.614.213-.953 1.415-3.252 3.604-6.897l.02-.031c-.56-2.699-.408-5.775 1.777-6.294 1.159-.273 1.151-.003 2.309.318zm46.005 47.964.075.445c.614 3.768.77 7.569.675 10.765.035-.362.061-.667.061-.87 0-.652.103-2.339.639-3.437.077-2.432-.503-4.757-1.45-6.903z"/><path id="e" d="m44.08 27.225c-3.413-7.71-4.983-14.392-10.14-17.678-1.92-1.224-3.512-4.164-5.747-6.785-1.704-1.997-5.429-2.472-7.863-2.149-3.135.417-3.446 3.315-5.407 7.175-.156.308.148 2.184 0 2.48-2.002 4.032-2.982 1.048-4.628 11.006-1.14 6.894-.35 10.77-1.279 15.61-.534 2.78-3.958 7.916-4.678 12.205-1.674 9.98.686 14.856 5.957 18.163 5.449 3.419 12.737 2.772 18.663 1.316 5.437-1.336 9.066-2.584 12.429-6.415 1.996-2.274 4.745-5.599 5.45-11.104.706-5.506.656-16.114-2.757-23.824z"/><path id="f" d="m38.6 1.816c-7.924-3.516-22.49-4.146-27.83.201-5.339 4.348-9.08 9.536-8.807 24.564.088 4.792 1.21 12.118 3.684 15 3.872 4.515 8.849 7.392 13.73 8.444 3.57.828 7.34.828 10.91 0 6.066-1.308 14.212-3.692 18.257-10.608 1.286-2.199 1.223-5.901 1.758-8.818 2.806-15.287-3.775-25.265-11.702-28.783z"/><linearGradient id="g" x1="23.751%" x2="100%" y1="54.354%" y2="29.43%"><stop offset="0" stop-color="#1b7cb5"/><stop offset="1" stop-color="#0f72ad"/></linearGradient><filter id="h" height="125%" width="150.8%" x="-24.6%" y="-13.2%"><feOffset in="SourceAlpha" result="shadowOffsetOuter1"/><feGaussianBlur in="shadowOffsetOuter1" result="shadowBlurOuter1" stdDeviation="4"/><feColorMatrix in="shadowBlurOuter1" result="shadowMatrixOuter1" values="0 0 0 0 0.468523551 0 0 0 0 0.467095125 0 0 0 0 0.467095125 0 0 0 0.5 0"/><feMerge><feMergeNode in="shadowMatrixOuter1"/><feMergeNode in="SourceGraphic"/></feMerge></filter><mask id="i" fill="#fff"><use fill="#fff" fill-rule="evenodd" xlink:href="#a"/></mask><mask id="j" fill="#fff"><use fill="#fff" fill-rule="evenodd" xlink:href="#b"/></mask><mask id="k" fill="#fff"><use fill="#fff" fill-rule="evenodd" xlink:href="#c"/></mask><mask id="l" fill="#fff"><use fill="#fff" fill-rule="evenodd" xlink:href="#d"/></mask><mask id="m" fill="#fff"><use fill="#fff" fill-rule="evenodd" xlink:href="#e"/></mask><mask id="n" fill="#fff"><use fill="#fff" fill-rule="evenodd" xlink:href="#f"/></mask><mask id="o" fill="#fff"><path d="m17.524 2.209c0 4.51-3.91 8.167-8.733 8.167s-8.733-3.656-8.733-8.166c0-4.511 3.91-.592 8.733-.592s8.733-3.92 8.733.592" fill="#fff" fill-rule="evenodd"/></mask></defs><g fill="none" fill-rule="evenodd" transform="translate(0 -1)"><use fill="#1073ae" xlink:href="#a"/><g mask="url(#i)"><g transform="translate(-89.65 -37.309)"><use fill="#2274a5" xlink:href="#b"/><path d="m176.963 0h359.287v230.401c-94.285 1.107-169.824-16.548-226.615-52.966-56.79-36.419-101.015-95.565-132.672-177.435z" fill="url(#g)" mask="url(#j)"/></g><path d="m54.467 275h400.383v-121.787h-400.383z" fill="#1a5a80" transform="translate(-89.65 -54)"/><g fill="#ebb25a"><path d="m453.584 208.607 1.266 90.423h-400.4v-102.3c33.648 3.089 83.658.89 121.701 10.04 23.873 5.741 43.344-3.94 60.885-1.62 24.436 3.233 37.85-.446 71.291-5.83 25.263-4.068 73.682-.972 145.257 9.287z" transform="translate(-89.65 -54)"/><path d="m136.17 59.498c0 37.602-30.483 68.085-68.085 68.085s-68.085-30.483-68.085-68.085c0-25.579 14.104-47.861 34.961-59.498h66.247c20.857 11.637 34.962 33.919 34.962 59.498" opacity=".3" transform="translate(28.408 -54)"/><path d="m120.054 59.497c0-28.702-23.268-51.97-51.97-51.97s-51.969 23.268-51.969 51.97 23.267 51.97 51.97 51.97c28.701 0 51.969-23.268 51.969-51.97" opacity=".5" transform="translate(28.408 -54)"/><path d="m107.318 59.497c0-21.667-17.566-39.233-39.234-39.233s-39.233 17.566-39.233 39.233c0 21.668 17.565 39.234 39.233 39.234s39.234-17.566 39.234-39.234" opacity=".7" transform="translate(28.408 -54)"/></g><path d="m96.192 59.497c0-15.523-12.584-28.108-28.108-28.108-15.523 0-28.108 12.585-28.108 28.108 0 15.524 12.585 28.109 28.108 28.109 15.524 0 28.108-12.585 28.108-28.109" fill="#e08f13" transform="translate(28.408 -54)"/><path d="m375.542 120.45c5.665 0 10.339 4.23 11.04 9.704 2.756 1.206 4.967 3.428 6.157 6.195 1.267-.647 2.703-1.014 4.224-1.014 1.664 0 3.018 1.34 3.035 3.005.016 1.675-1.329 3.048-3.005 3.064l-51.791.517h-.033c-1.853 0-3.354-1.501-3.354-3.353s1.501-3.354 3.354-3.354l.434.008c.721.027 1.427.12 2.11.272.776-1.18 1.868-2.136 3.153-2.747-.006-.145-.009-.29-.009-.437 0-5.614 4.55-10.165 10.164-10.165 2.32 0 4.456.777 6.167 2.085 2.039-2.317 5.025-3.78 8.354-3.78zm-279.656-18.7c6.795 0 12.4 5.075 13.243 11.64 3.307 1.447 5.959 4.113 7.384 7.432 1.521-.775 3.243-1.216 5.069-1.216 1.535 0 2.782 1.24 2.79 2.776.007 1.541-1.235 2.796-2.776 2.804l-73.746.372c2.54-3.682 6.786-6.097 11.598-6.097 1.048 0 2.069.118 3.052.336.932-1.416 2.24-2.563 3.784-3.296-.007-.174-.013-.348-.013-.524 0-6.735 5.46-12.194 12.194-12.194 2.783 0 5.345.933 7.398 2.501 2.447-2.779 6.029-4.534 10.023-4.534zm299.344 4.461 23.809.849c.387.014.69.339.676.726-.013.372-.315.669-.688.676l-25.721.496c-.491.01-.897-.38-.906-.872-.004-.183.05-.363.153-.515.599-.884 1.61-1.398 2.677-1.36zm-92.516-34.161c5.823 0 10.809 3.576 12.885 8.652 5.706.376 10.473 4.19 12.247 9.39 2.523-2.555 6.028-4.14 9.903-4.14 4.058 0 7.71 1.738 10.254 4.509 1.712-.753 3.604-1.171 5.595-1.171h.018c2.67.01 4.825 2.181 4.815 4.85-.01 2.67-2.181 4.826-4.85 4.817l-85.363-.313c-1.962-.008-3.548-1.6-3.548-3.561 0-1.967 1.594-3.562 3.561-3.562l.385.007c1.661.057 3.229.48 4.628 1.187-.012-.208-.019-.416-.019-.626 0-6.15 4.985-11.134 11.134-11.134 1.788 0 3.477.425 4.974 1.174 1.666-5.82 7.026-10.079 13.38-10.079zm102.743-13.75c4.593 0 8.525 2.82 10.164 6.823 4.499.297 8.26 3.306 9.658 7.408 1.99-2.016 4.754-3.266 7.811-3.266 3.2 0 6.08 1.37 8.088 3.556 1.35-.594 2.843-.924 4.413-.924 4.725 0 8.752 2.984 10.299 7.17l-77.62.267h-.009c-1.567 0-2.838-1.271-2.838-2.838 0-1.568 1.27-2.838 2.838-2.838l.354.007c1.29.051 2.508.383 3.598.934-.008-.164-.014-.328-.014-.494 0-4.85 3.93-8.781 8.78-8.781 1.41 0 2.743.334 3.924.925 1.316-4.59 5.543-7.949 10.554-7.949z" fill="#fff" fill-opacity=".2" transform="translate(-89.65 -54)"/><path d="m91.41 21.01c-.165-.275-.44-.33-.715-.22-.495-1.705-1.375-3.355-2.75-5.005-3.19-3.905-8.25-7.04-12.98-8.58-3.3-1.1-6.82-1.265-10.175-2.09-2.805-.66-5.28-2.09-8.195-2.42-.22 0-.33.055-.44.165-2.75-.935-5.885-1.155-8.525-1.485-2.75-.33-5.5-.66-8.305-.935-1.815-.165-3.685-.165-5.5 0-1.87.165-3.63.935-5.555.55-.33-.055-.55.11-.66.385-.165 0-.33 0-.44.165l-.055.055c-.33-.055-.715.165-.66.55-1.32 1.155-2.695 2.2-3.96 3.3-1.595 1.375-2.64 3.025-3.795 4.73-5.555 5.335-8.085 12.485-10.45 19.8-2.805 5.61-5.5 11.22-6.985 17.38 0 .055-.055.055-.055.11-.11.165-.11.275-.055.44-.22.99-.44 1.925-.605 2.915-.935 5.885 0 14.85 7.59 15.345 4.125.275 8.36-2.75 11-6.325.22 0 .385-.11.495-.385s.22-.605.33-.88c.66-1.1 1.21-2.255 1.485-3.355.11-.33-.11-.55-.33-.66.77-3.355 1.36-6.842 1.91-10.252.826-5.28 2.274-10.514 2.934-15.794.605-4.895.381-9.594 1.371-14.379.66-3.41 1.21-6.93.605-10.395 4.84 8.36 7.755 17.545 9.46 27.005.88 4.95 1.375 9.955 1.76 14.96.275 3.63-.55 7.315 0 10.89.88 5.83 10.34 3.19 13.75 2.09 5.555-1.76 11.22-5.28 10.56-11.825 0-.22-.165-.385-.33-.495.055-2.97-1.375-5.83-2.915-8.58-.715-2.805-2.365-5.335-4.4-7.425h-.055c-3.795-6.655-9.075-12.87-15.51-17.05-.495-.495-1.045-.99-1.54-1.485-1.925-1.76-3.96-3.245-5.72-5.17-1.155-1.265-2.31-2.585-3.575-3.685 4.84 1.155 9.9 1.76 14.575 3.355 2.805.935 5.5 2.145 8.195 3.3.055.11.11.22.22.33 3.08 2.2 6.545 3.575 10.01 5.06 3.52 1.54 6.6 3.465 9.46 5.995s5.28 5.5 7.04 8.91c.935 1.76 1.43 3.74 1.65 5.72.11 1.155-.22 2.255-.44 3.355-.165.11-.275.165-.44.275-.44.275-.275 1.1.275 1.045v.055c0 .715 1.1.715 1.1 0v-.275c3.52-1.045 6.16-4.675 7.975-7.59 2.145-3.08 4.455-7.975 2.365-11.495z" fill="#e1395b" fill-rule="nonzero" transform="translate(46.2 51.6)"/><path d="m39.545 40.81c-.605-4.07-1.54-8.195-2.53-12.21-1.32-8.47-3.685-16.83-8.36-23.925l-.11-.11v-.11c-.11-.715-1.21-.385-1.045.275.605 3.19.22 6.435-.165 9.625-.44 3.575-.66 7.15-.99 10.725-.77 7.7-2.475 15.455-4.18 22.99-.66 3.025-1.485 5.995-2.42 8.91-.44 1.375-.935 2.915-.385 4.345 1.21 3.135 8.195 3.52 10.89 3.025 10.505-1.87 10.56-15.345 9.295-23.54zm40.955-5.565c-.495-5.83-6.03-12.695-10.485-16.105-5.775-4.345-12.595-7.04-19.14-9.955-3.465-1.54-7.04-2.86-10.56-4.235-2.805-1.045-5.995-1.045-8.69-2.31-.275-.11-.495 0-.66.165-.44-.11-.935.33-.605.77 1.815 2.75 4.455 4.785 6.875 6.985 3.08 2.75 6.27 5.335 9.295 8.14 6.215 5.885 10.89 13.31 14.355 21.065.88 1.98 1.65 4.015 2.31 6.05.385 1.155.55 2.42 1.155 3.52.825 1.43 3.135.99 4.29.44.055-.055.165-.055.22-.11h.11c1.155-.055 2.145-.605 2.97-1.375-.055.495 6.67-4.592 8.21-6.847 1.65-2.53.625-3.283.35-6.198z" fill="#fff" fill-rule="nonzero" transform="translate(46.2 51.6)"/><path d="m53.295 59.51c0 .055 6.93 19.965 10.835 29.755 1.925 4.895 3.96 9.735 5.94 14.575 1.1 2.585 2.145 5.17 3.245 7.755.55 1.265 1.1 2.585 1.65 3.85.44 1.045 1.595 2.805 1.595 3.905 0 .22.11.33.22.44.055.275.275.605.66.495 1.155-.33 2.09-.715 3.355-.715.33 0 .66-.385.55-.715-4.07-9.735-8.69-19.305-13.035-28.93-2.2-4.895-3.905-9.955-5.995-14.85-2.31-5.445-4.62-10.89-5.72-16.72 3.52-1.595-7.865 2.585-3.3 1.155z" fill="#002134" transform="translate(46.2 51.6)"/><path d="m.88 48.4c-.055.055-.11.165-.22.22-.275.11-.385.44-.33.66.11.33.385.44.66.385.33-.055.44-.275.605-.495.55-.55-.22-1.32-.715-.77zm3.685-17.435c-.715 0-.715 1.1 0 1.1s.715-1.1 0-1.1zm5.17 11.55c-.715 0-.715 1.1 0 1.1s.715-1.1 0-1.1zm1.265-30.415c-.22.275-.33.55-.33.935 0 .715 1.1.715 1.1 0v-.165c.44-.55-.33-1.32-.77-.77zm11.165 35.915v.385c0 .715 1.1.715 1.1 0v-.385c0-.715-1.1-.715-1.1 0zm-3.08-8.58c-.44 0-.77.055-1.1.33-.22.22-.22.605 0 .77.22.22.55.22.77 0h.33c.715 0 .715-1.1 0-1.1zm8.415-5.555-.11-.11c-.055-.055-.11-.165-.055 0-.055-.275-.22-.55-.55-.55-.275 0-.605.275-.55.55.055.385.275.66.55.935.44.495 1.265-.33.715-.825zm-5.28-16.28c-.055-.055-.165-.11-.22-.22-.11-.275-.44-.385-.66-.33-.33.11-.44.385-.385.66.055.33.275.44.495.605.495.495 1.265-.275.77-.715zm11.495.715c-.715 0-.715 1.1 0 1.1s.715-1.1 0-1.1zm4.785 27.5c-.055.055-.11.165-.22.22-.275.11-.385.44-.33.66.11.33.385.44.66.385.33-.055.44-.275.605-.495.495-.55-.275-1.32-.715-.77zm10.45-4.4c-.715 0-.715 1.1 0 1.1s.715-1.1 0-1.1zm-9.515-11.55h-.165c-.715 0-.715 1.1 0 1.1h.165c.715 0 .715-1.1 0-1.1zm-5.885-23.65h-.165c-.715 0-.715 1.1 0 1.1h.165c.715 0 .715-1.1 0-1.1zm19.415 5.72c-.715 0-.715 1.1 0 1.1s.715-1.1 0-1.1zm-8.03 4.18c-.715 0-.715 1.1 0 1.1s.715-1.1 0-1.1zm12.65 17.435c-.715 0-.715 1.1 0 1.1s.715-1.1 0-1.1zm8.635 1.76c-.055 0-.055.055 0 0-.55.55.22 1.32.77.825.22-.22.33-.44.33-.77-.055-.66-1.045-.66-1.1-.055zm-10.505-12.21c-.715 0-.715 1.1 0 1.1s.715-1.1 0-1.1zm-15.015-22.935c-.44 0-.66.33-.715.715-.055.275.275.55.55.55.22 0 .385-.11.44-.275.385-.22.33-.99-.275-.99zm11.715 5.17c-.495-.165-.99.495-.55.935.385.385.77.385 1.155 0 .44-.44-.11-1.1-.605-.935zm10.835-.55c-.715 0-.715 1.1 0 1.1s.715-1.1 0-1.1zm5.115 10.78c-.715 0-.715 1.1 0 1.1s.715-1.1 0-1.1zm6.6 13.035c-.275 0-.495.22-.55.495v.055c-.495.495.275 1.265.77.77.22-.22.33-.44.33-.77.055-.275-.275-.55-.55-.55zm4.675-10.725c-.275-.385-1.045-.33-.99.275 0 .44.275.715.715.715.605 0 .715-.77.275-.99zm-7.04-7.59c-.715 0-.715 1.1 0 1.1s.715-1.1 0-1.1zm-56.65-6.6v.385c0 .715 1.1.715 1.1 0v-.385c0-.715-1.1-.715-1.1 0zm-5.665 18.315c-.715 0-.715 1.1 0 1.1s.715-1.1 0-1.1zm12.43 6.435h-.33c-.715 0-.715 1.1 0 1.1h.33c.715 0 .715-1.1 0-1.1zm5.885-18.535c-.715 0-.715 1.1 0 1.1s.715-1.1 0-1.1zm-8.965 46.2-.165-.165c-.495-.495-1.265.275-.77.77l.165.165c.495.495 1.265-.275.77-.77zm25.85-5.665v.165c0 .715 1.1.715 1.1 0v-.165c0-.715-1.1-.715-1.1 0zm-44.385 7.48c-.715 0-.715 1.1 0 1.1s.715-1.1 0-1.1z" fill="#fff" fill-rule="nonzero" transform="translate(54.45 55.45)"/><path d="m120.505 21.395c-.165-.11-.33-.165-.44-.11-.055-.165-.22-.33-.495-.33-4.785.11-9.13-2.145-13.86-2.2-.165 0-.275.055-.385.22-5.225-1.375-10.34-3.245-15.565-4.565-3.63-.935-7.315-1.76-10.835-2.97-2.75-.935-5.06-2.915-7.92-3.52-.275-.275-.495-.66-.605-.99s-.495-.44-.77-.33c-.275-.11-.66-.055-.715.33-1.65 6.655-2.97 13.365-5.005 19.965-2.2 7.095-4.95 13.97-8.58 20.46-.11.165-.11.33 0 .495-.605.935-1.265 1.87-1.705 2.97-.055.055-.055.165 0 .22-.935 1.43-1.815 2.86-2.42 4.51-2.255 3.465-4.345 7.04-7.04 10.23-.495.495-.99.935-1.54 1.375-.22.165-.275.44-.22.66-2.915 3.08-6.27 5.775-9.68 8.25-1.375.99-2.805 1.925-4.29 2.75-.99.385-1.925.99-2.86 1.485-.44.22-.88.44-1.375.605-3.135 1.045-6.6 1.87-10.01 1.98-.275-.11-.495-.165-.77-.33-.385-.22-.715.055-.77.33-.605.11-.55 1.045.11 1.1h.11c1.32.825 2.2 2.09 3.19 3.3.935 1.1 2.255 1.98 3.41 2.86.99.77 1.925 1.54 2.915 2.31-.055.165 0 .33.165.44 7.81 6.49 15.675 13.31 25.355 16.885 5.115 1.87 10.725 2.035 16.115 2.145 2.695.055 5.335.055 7.975-.55 2.09-.495 4.07-1.32 6.05-2.2.165.22.44.385.715.22 8.305-4.07 15.235-11.11 21.285-18.04 2.805-3.19 5.445-6.82 6.985-10.78 1.815-4.675 4.785-8.8 6.38-13.585.935-2.805 1.43-5.555 2.64-8.25.935-2.035 1.705-4.125 2.42-6.215 1.485-4.4 2.2-8.855 3.025-13.365.825-5.17 3.96-13.86-.99-17.765z" fill="#fff" transform="translate(104.5 67.55)"/><path d="m121.99 39.05c-.495 2.475-1.1 5.06-2.2 7.315-.11.22-.385.33-.605.275-9.735-3.41-19.195-7.535-29.095-10.45-5.005-1.485-10.065-2.86-15.18-4.125-4.235-1.045-7.755-2.75-11.55-4.84-.055 0-.055-.055-.11-.11-.33-.055-.605-.44-.385-.77 1.815-2.915 3.135-6.49 3.355-9.9 0-.275.165-.44.385-.55.055 0 .11 0 .165-.055-.055-.385.385-.825.825-.605 5.445 2.475 11.11 4.125 16.83 5.775 5.28 1.54 10.505 3.19 15.785 4.785 5.17 1.54 10.395 3.355 15.675 4.565 1.65.385 5.28.715 6.215 2.365.165.275.055.495-.11.66 1.1 1.375.275 4.235 0 5.665zm-10.01 23.595-6.93-3.3c-4.84-2.255-9.79-4.345-14.74-6.38-10.615-4.345-21.23-8.635-31.845-12.87-.605-.275-.88.715-.385.99-.11.055-.165.11-.22.22-1.76 2.86-2.97 5.995-4.62 8.965-.44 0-.77.55-.385.935 1.485 1.32 3.465 2.2 5.17 3.3 2.42 1.595 4.785 3.3 7.26 4.785 4.73 2.805 9.845 4.895 14.85 7.04 5.445 2.31 10.835 4.84 16.17 7.535 1.815.935 3.465 2.2 5.225 3.245 1.265.77 3.685 1.21 4.565 2.31.22.275.66.165.88-.11 1.87-2.53 3.63-5.06 4.565-8.085.605-1.98 2.145-4.18 2.09-6.325.165-.11.33-.33.22-.605-.275-.935-1.1-1.265-1.87-1.65zm-12.485 28.49c-4.015-1.98-7.755-4.62-11.495-6.985-4.62-2.97-9.24-5.83-14.08-8.47-4.51-2.42-9.24-4.4-13.695-6.875-2.145-1.21-4.015-2.695-6.05-4.07-2.035-1.32-4.345-2.2-6.38-3.575-.44-.275-.825.165-.77.55-.055 0-.11.055-.165.11-3.025 2.42-4.015 7.26-8.03 8.47-.11 0-.22.055-.33.165-.275.22-.275.55-.055.825 0 .055.055.055.11.11 5.775 4.235 11.495 8.525 17.71 12.1 5.995 3.465 12.595 5.83 18.535 9.405 3.08 1.87 5.665 4.235 8.47 6.49 1.54 1.21 3.63 3.08 5.72 2.97 1.87-.055 3.52-2.365 4.675-3.52 1.98-2.035 2.86-4.84 5.5-6.215.165-.11.275-.275.275-.44.385-.33.495-.825.055-1.045zm-23.815 13.75c-2.31-1.705-4.73-3.245-7.205-4.73-4.675-2.75-9.57-5.115-14.135-7.975-2.145-1.32-4.18-2.915-6.325-4.18-2.42-1.43-4.95-2.695-7.37-4.125-2.255-1.32-3.85-2.805-5.555-4.73-.99-1.155-2.035-2.31-3.52-2.75-.385-.11-.66.22-.66.55-.935.22-1.98.935-2.585 1.21-1.43.77-3.85 2.475-5.775 2.64-.055-.055-.165-.055-.22-.055h-.66c-.22 0-.33.11-.44.275-.385.11-.495.88 0 1.1 2.64 1.1 4.455 3.52 6.765 5.17 3.08 2.31 6.325 4.4 9.46 6.6 5.555 3.85 11.77 6.71 17.325 10.615 4.125 2.915 7.81 8.085 13.31 8.03 3.41 0 8.47-1.21 11.275-3.245.165-.11.22-.275.22-.385.275-.165.385-.55.165-.88-1.155-1.32-2.75-2.145-4.07-3.135z" fill="#000" fill-opacity=".2" transform="translate(104.5 67.55)"/><path d="m124.465 16.115c-2.2-.11-4.18 4.73-4.895 6.105-4.4 8.305-8.745 16.5-11.825 25.355v.055c-.935 2.64-1.925 5.225-2.97 7.755-.22.495-.44.99-.605 1.43-.055.11-.055.165-.11.22-.77 1.76-1.54 3.52-2.365 5.225-.605 1.155-1.155 2.31-1.76 3.52-2.53 4.73-5.28 9.295-8.195 13.86-6.215 9.79-12.705 19.36-19.14 28.985-.055.055-.165.055-.22.165-.605.77-1.155 1.54-1.705 2.365-1.485-.605-3.08-.825-4.73-1.045-2.475-.33-4.4-.99-6.765-1.705-1.65-.495-2.42.44-2.365 1.54-.88 1.21.44 2.31 1.815 2.97s2.915.825 4.4 1.1c1.815.33 3.63.715 5.39 1.265l-.33.66c-1.43 2.695-3.19 5.115-5.005 7.535-1.045 1.375-1.98 2.805-2.86 4.29.11-.22.11-.55-.22-.66-1.375-.605-2.695-1.21-3.96-1.925.055-.165 0-.33-.165-.495-.935-.715-1.925-1.265-3.025-1.76-.22-.11-.495-.055-.605.11-5.39-3.19-10.56-6.93-15.95-10.12-3.575-2.145-7.425-3.905-11.33-5.5-1.98-.825-3.905-1.54-5.72-2.75-1.21-.77-2.42-1.54-3.795-1.98 1.925-3.135 3.19-6.875 5.83-9.46.055-.055.11-.11.11-.22.275-.165.44-.55.165-.88-.55-.55-1.21-1.1-1.925-1.485-.11-.33-.55-.605-.935-.275-2.31 2.035-3.465 4.95-5.335 7.425-2.365 3.19-4.4 6.6-6.6 9.9-1.54 2.255-3.19 4.455-4.565 6.82-.605 1.045-1.43 2.475-1.54 3.85-.11.055-.22.165-.22.33-.22 1.21.11 2.695 1.705 2.2 2.695-.825 3.96-3.685 5.335-5.995 1.87-3.19 3.96-6.215 5.995-9.24 2.09 1.705 4.84 2.64 7.26 3.74l1.485.66c5.28 2.75 10.505 5.61 15.675 8.47 3.74 2.035 7.48 4.235 11.33 6.105.66.33 1.32.605 1.98.88 2.31 1.76 4.785 3.355 7.315 4.785h.055c-1.98 3.41-3.795 6.93-5.665 10.395-.165.055-.33.165-.385.385-.495 1.76.605 2.255 2.035 1.815.605.055 1.155-.165 1.485-.715 2.145-1.485 3.3-4.51 4.4-6.71 2.255-4.565 5.115-8.855 7.92-13.145 1.265-1.925 2.53-3.905 3.795-5.83 2.53.55 5.115.825 7.59 1.65 2.805.935 5.555 1.98 8.47 2.64 5.775 1.21 11.33 3.355 16.775 5.72 1.65.715 7.645 3.465 9.075.77.88-1.705-.22-2.585-1.65-3.025-1.265-1.815-2.695-3.465-3.96-5.28-1.925-2.75-3.63-5.445-5.83-7.975-4.95-5.775-10.01-11.495-15.07-17.16-.11-.165-.275-.165-.44-.165.66-.935 1.32-1.815 1.98-2.75 2.695-3.905 4.95-7.975 7.865-11.66 2.64-3.3 4.84-6.985 6.49-10.89.055-.165.055-.385 0-.495.33-.55.605-1.045.825-1.65 1.925-3.465 3.41-7.15 4.895-10.835 2.42-5.885 5.17-11.605 6.82-17.82 1.21-2.86 2.53-5.665 4.18-8.195 2.145-3.19 4.73-6.05 5.94-9.735.605-1.54.33-3.41-1.65-3.52zm-26.235 95.535c1.87 2.09 3.355 4.4 5.06 6.6 1.265 1.595 2.695 3.08 3.96 4.675-1.045-.495-2.53-1.265-3.74-1.375-2.585-1.1-5.225-2.145-8.085-2.255-.055 0-.165 0-.22.055-1.595-.66-3.135-1.375-4.73-1.925-1.21-.385-2.475-.715-3.85-.99-3.685-1.87-7.7-2.75-11.66-3.795-.055 0-.055-.055-.11-.055.055-.11.11-.275.165-.385.605-.935 1.155-1.925 1.485-2.97v-.11c2.2-4.18 5.06-8.03 7.865-11.825.11.11.22.22.385.33.055.055.11.055.165.055 4.455 4.785 9.075 9.24 13.31 13.97zm-71.17-34.155c.495-.44.99-.88 1.43-1.375.605-1.595 1.65-2.805 2.475-4.29 1.1-1.98 2.09-3.96 3.41-5.775.22-.275.495-.275.77-.165 1.76-3.19 3.52-6.38 5.39-9.515 2.31-4.015 4.62-8.03 6.49-12.265 2.035-4.675 3.685-9.46 5.61-14.19 3.685-8.91 7.645-17.71 12.32-26.125.77-1.375 1.65-3.135 3.3-3.3.055-.165.22-.275.495-.275.22 0 .44.11.66.11.275 0 .44.165.55.385.165.55.165 1.045.11 1.54 0 .66-.22 1.375-.385 1.87-.55 2.31-2.145 3.795-3.575 5.5.055.11 0 .275-.055.385-2.2 3.63-4.125 7.425-5.83 11.33-2.86 8.195-5.555 16.555-9.24 24.365-2.2 4.62-4.95 8.8-7.425 13.255-1.815 3.19-3.63 6.325-5.995 9.13 0 .055-.055.165-.055.22-.55.99-.99 2.2-1.65 3.19-.165.55-.44.77-.88 1.045l-.165.165c-.11.11-.22.165-.33.275l-.165.33c-1.155 2.035-3.63 2.86-5.335 4.345-.165.11-.33.165-.495.11-.165.165-.33.275-.495.44-.66.495-1.43-.275-.935-.715z" fill="#002134" transform="translate(104.5 67.55)"/><path d="m125.62 16.06c-2.53-1.265-4.235 1.21-4.95 2.475-.825 1.265-1.32 2.695-2.035 4.07v.055c-.715 1.265-1.375 2.365-1.32 2.42-.385.66-.77 1.375-1.155 2.035-1.815 3.245-3.63 6.38-5.005 9.79-5.06 12.87-9.955 25.355-17.05 37.29-6.71 11.33-14.245 22.165-21.67 33.055-.935 1.375-1.87 2.695-2.75 4.07.055 0 .165.055.22.055 0 .275.165.55.55.55 1.485-.055 2.805.77 4.29.935.165 0 .275-.055.385-.11h.055l.66-.99c.11-.055.22-.055.275-.11.385-.77.77-1.54 1.21-2.255.055-.055.11-.11.165-.11.33-.495.66-.99.99-1.43 7.81-11.44 15.73-22.88 22.715-34.87 6.655-11.44 11.33-23.54 16.06-35.805 1.32-3.355 4.84-9.295 4.84-9.24.385-.55 2.86-4.895 3.575-6.27.495-.88.935-1.815 1.1-2.75.275-.935-.11-2.31-1.155-2.86z" fill="#222039" transform="translate(104.5 67.55)"/><path d="m72.16 113.355c-.22-.11-.44-.165-.715-.22-.22 0-.44.165-.55.385-.055.22-.11.605.055.77 0 .055.055.055.055.055l.055.055s0 .055.055.055c.165.165.385.275.605.275.275 0 .55-.275.55-.55v-.055c0-.055.055-.055.055-.055.165-.22.11-.605-.165-.715zm13.035-20.24c-.055.055-.11.055-.165.11h-.11c-.055 0-.11.055-.165.055 0 0-.22.055-.11.055-.275.055-.55.22-.55.55 0 .055 0 .11.055.22-.22.495.44 1.045.88.605.055 0 .165-.055.22-.11h.055c.11-.055.22-.055.33-.11.275-.165.44-.495.44-.825 0-.495-.495-.715-.88-.55zm-22.935 36.355c0-.275-.275-.55-.55-.55-.165 0-.275.055-.385.055-.055 0-.165 0-.22.055-.165.055-.275.275-.385.385v.055c0 .055-.055.11-.055.165v.165c0 .275.22.55.495.605.11.055.22.11.33.11.33 0 .715-.22.77-.495z" fill="#333" fill-rule="nonzero" transform="translate(104.5 67.55)"/><g filter="url(#h)" transform="matrix(.83867057 .54463904 -.54463904 .83867057 177.28323 58.212002)"><g transform="translate(.432 90.052)"><use fill="#fff" xlink:href="#c"/><g fill="#000" fill-opacity=".1"><path d="m4.264 41.018c.538.02 1.08.03 1.614.026 2.156-.015 4.258-.236 6.021-.725 6.16-1.713 1.897-16.56 1.74-20.999-.088-2.512-1.283-5.205-3.528-6.017-1.481-.536-4.452-1.035-5.669-1.574-1.468-.652 4.963-5.185 5.04-5.547.211.124 1.803 1.47 3.582 2.33s2.149.776 3.955 1.454 3.118.71 3.06 1.012c-1.73 8.986-1.389 19.31 1.624 30.676-5.398.157-11.068.345-17.169.414-.095-.352-.18-.699-.27-1.05z" mask="url(#k)" transform="matrix(.76604444 .64278761 -.64278761 .76604444 18.540251 -2.688921)"/><path d="m23.842 45.31c.16-.534.311-1.069.452-1.603 6.54-.686 8.975-4.957 9.57-6.96 1.49-5.03 1.454-10.34-.833-15.322-.535-1.161-.895-3.33-4.162-4.206-1.426-.383-2.746-.528-4.09-.539-.085-.443-.657-1.505-.746-1.933 2.318-.22 6.263-1.518 8.369-2.309 3.452-1.296 4.943-2.3 8.297-2.882 1.987 8.48 4.441 23.878.871 35.873-5.816.02-12.422-.045-17.728-.118z" mask="url(#k)" transform="matrix(.8660254 .5 -.5 .8660254 18.250556 -13.124002)"/></g></g><g transform="translate(3.027 25.441)"><use fill="#fff" xlink:href="#d"/><g mask="url(#l)"><g transform="translate(8.132 13.059)"><use fill="#fff" xlink:href="#e"/><path d="m10.152 12.01c-2.778-.658-1.292-1.607-6-5.245-3.688-2.852-4.676-4.06-5.743-10.439-.296-1.775-.944-5.368-1.044-8.062-.038-1.03.363-1.95.365-2.555.795 4.768 2.197 9.411 4.423 13.634 3.492 6.626 9.106 10.328 16.086 11.41 1.18.183 2.981.56 4.154.56 6.954 0 13.226-2.85 18.29-8.041 2.284-2.344 3.888-5.185 5.008-8.31-.196.821.815.837.587 1.617-.861 2.954-3.185 6.364-4.603 8.327-4.464 6.178-10.528 8.735-18.58 9.021-8.053.286-11.19-1.47-12.943-1.918zm1.158 56.088c-4.616-2.43-7.313-6.05-8.993-11.06-.676-2.013-.807-4.316-1.457-6.493-1.06-3.55-1.06-4.038-.433-6.13-.014.698 4.156 1.183 4.156 1.977 0 5.725.78 12.008 3.032 14.832 2.085 2.613 7.84 5.11 13.846 4.127 6.006-.982 14.498-5.084 17.259-8.426 2.76-3.342 8.628-12.829 8.463-16.803.241 1.398 1.072 8.132 1.011 9.527v2.971c-.143 3.275-3.51 6.195-5.115 9.07-2.669 4.777-7.986 5.829-13.358 7.262-2.438.651-5.755.8-8.26.8-1.665 0-3.306.033-4.774-.295-1.969-.44-3.692-.473-5.377-1.36z" fill="#000" fill-opacity=".2" mask="url(#m)"/></g></g><path d="m44.221 25.105c.76 0 3.212 1.421 4.386 2.019 1.174.597 1.51.653 3.454 2.33 4.045 3.486 10.246 16.559 9.22 27.317.371 2.822-.957 6.846-1.989 7.65-1.48 1.153-3.312.035-3.926-.647-.614-.683 0-4.053 0-5.04 0-.652.103-2.339.639-3.437.344-10.836-12.352-19.549-12.522-19.676-.823-.614-2.103-10.516.738-10.516zm-37.98-24.992c1.159-.273 1.152-.003 2.311.318 1.404.39 1.617 3.465 1.617 4.403 0 .987.614 4.357 0 5.04-.24.267-.668.601-1.188.84-.875 3.79-3.122 7.846-.682 9.844 5.56 4.556 12.046 6.291 12.188 6.334.986.3 5.624 9.173 2.954 10.13-.713.256-3.51-.252-4.821-.418-1.31-.165-1.645-.105-4.055-1.025-3.09-1.179-8.034-5.034-12.158-10.63-3.177-4.307-2.653-6.765-1.567-11.614.213-.953 1.415-3.252 3.604-6.897l.02-.031c-.56-2.699-.408-5.775 1.777-6.294z" fill="#fff" mask="url(#l)"/><path d="m2.552 38.335c4.966-13.619 9.997-17.855 15.094-12.71.805.813 2.068-.622 3.474 0 2.877 1.276 8.574 1.8 11.005 1.734 4.948-.136 9.266-1.139 12.956-3.008 3.614 1.224 6.079 2.52 7.395 3.887 1.317 1.367 3.8 4.225 7.453 8.574l-6.601 2.89c-.744.388-1.39.68-1.937.879.39.935 2.423 4.123 3.203 7.979.061.303.364 1.924.492 3.683.156 2.157.134 4.519.123 4.867-.123 3.815-.015 3.469-.123 5.304-4.859 2.989-11.441 3.901-24.914 3.901-8.982 0-15.715-2.513-20.198-7.539-1.829-.927-2.64-2.518-2.432-4.775.435-4.726 1.042-6.237 1.842-9.7.577-2.493 1.453-3.78 1.755-5.187.105-.49-.733 2.734-1.165 2.734-.958 0-3.432-1.171-7.422-3.513z" fill="#002134" mask="url(#l)"/></g><g transform="translate(8.37 .183)"><use fill="#fff" xlink:href="#f"/><g fill="#000"><path d="m14.058 50.327c-2.778-.657-1.292-1.607-6-5.245-3.689-2.852-4.677-4.06-5.744-10.439-.296-1.775-.945-5.368-1.044-8.062-.039-1.03.363-1.949.365-2.555.796 4.769 2.198 9.412 4.423 13.634 3.493 6.627 9.106 10.328 16.087 11.41 1.18.183 2.981.56 4.154.56 6.953 0 13.226-2.85 18.29-8.04 2.284-2.345 3.887-5.186 5.008-8.31-.045.189.675-2.267.728-2.144.177.41.034 3.16-.14 3.76-.343 1.173-.415 3.324-1.07 4.521-.994 1.819-2.68 2.622-3.534 3.806-4.464 6.179-10.528 8.736-18.58 9.021-8.053.286-11.19-1.47-12.943-1.917z" fill-opacity=".2" mask="url(#n)"/><path d="m14.753 46.643c-1.075-.553-2.624-1.562-4.314-3.135-1.765-1.643-3.535-3.992-4.69-6.47-.365-.78-1.072-2.23-1.367-3.026-.316-.852-.828-2.17-1.276-3.621-.382-1.241-.703-2.586-.97-3.765-.336-1.487-.408-1.93-.5-2.77.236 1.293.73 2.533 1.01 3.75.495 2.15 1.364 3.896 2.222 5.928.296.7.716 1.708 1.118 2.404 3.504 6.057 8.84 9.952 15.844 10.94 1.184.168 2.367.249 3.544.249 6.977 0 13.72-2.853 18.801-7.598 2.293-2.143 4.743-4.919 5.867-7.775-.009.036.085-.156.074-.117-.106.406-.363 1.211-.52 1.643-.303.84-.683 1.735-.973 2.363-.103.221-.422.83-.51 1.034-.811 1.86-1.59 2.844-2.865 4.206-1.553 1.662-3.572 3.294-5.148 4.477-3.407 2.557-9.113 4.27-13.801 4.27-1.069 0-2.13-.24-3.161-.395-2.17-.328-4.2-.793-5.846-1.434-1.002-.39-1.89-.824-2.539-1.158z" fill-opacity=".1" mask="url(#n)"/></g></g><path d="m33.636 5.043c0 2.66-2.173 4.815-4.852 4.815-2.68 0-4.852-2.156-4.852-4.815 0-2.66 2.172-4.816 4.852-4.816s4.852 2.156 4.852 4.816" fill="#222039" transform="translate(16.22 20.542)"/><path d="m31.888 2.767c0 .734-.6 1.329-1.34 1.329s-1.34-.595-1.34-1.329.6-1.33 1.34-1.33 1.34.596 1.34 1.33m.294 1.842c0 .283-.231.513-.517.513-.285 0-.516-.23-.516-.513s.231-.513.516-.513c.286 0 .517.23.517.513" fill="#fff" transform="translate(16.22 20.542)"/><path d="m9.862 5.029c0 2.59-2.133 4.69-4.766 4.69s-4.768-2.101-4.768-4.691 2.135-4.69 4.768-4.69 4.766 2.1 4.766 4.69" fill="#222039" transform="translate(16.22 20.542)"/><path d="m8.146 2.815c0 .714-.59 1.293-1.317 1.293s-1.316-.58-1.316-1.293c0-.715.589-1.294 1.316-1.294s1.317.58 1.317 1.294m.289 1.792c0 .275-.228.498-.508.498s-.508-.223-.508-.498c0-.276.227-.499.508-.499.28 0 .508.223.508.499" fill="#fff" transform="translate(16.22 20.542)"/><path d="m5.728.8c0 1.559-1.282 2.823-2.864 2.823s-2.864-1.264-2.864-2.823c0-1.56 1.282-.36 2.864-.36s2.864-1.2 2.864.359" fill="#191542" transform="translate(30.688 35.2)"/><path d="m5.197 2.438c-.52.717-1.371 1.185-2.333 1.185-.79 0-1.507-.316-2.025-.827s.443-1.65 2.025-1.65 2.667.83 2.333 1.292" fill="#ed4f62" transform="translate(30.688 35.2)"/><path d="m0 0h19.529v16.5h-19.529z" transform="translate(24.55 29.15)"/><path d="m2.308 3.364c-1.152.099-1.694.983-1.694 2.68 0 4.837 4.1 8.751 9.15 8.751s9.151-3.914 9.151-8.75c0-1.645-.509-2.526-1.588-2.67l-.106-.011c-.733-.063-.565-.11-3.433.814-1.629.524-2.794.773-4.023.773-1.161 0-2.265-.222-3.757-.689l-1.7-.544c-1.404-.444-1.42-.404-2-.354z" fill="#222039" transform="translate(24.55 29.15)"/><g transform="translate(25.666 33)"><path d="m15.76 8.765c0 .515-2.795 2.429-6.694 2.429-3.9 0-6.697-1.897-6.697-2.43 0-1.341 2.425-2.429 6.697-2.429 4.27 0 6.695 1.088 6.695 2.43" fill="#ed4f62" mask="url(#o)"/><path d="m5.17 1.204c-.217 1.033-1.057 1.785-1.875 1.68-.819-.105-1.307-1.026-1.09-2.058.215-1.033 1.055-1.786 1.875-1.68.818.104 1.306 1.026 1.09 2.058m3.87.728c0 1.046-.673 1.894-1.503 1.894s-1.502-.848-1.502-1.894.673-1.894 1.502-1.894c.83 0 1.502.848 1.502 1.894m4.044-.834c.353 1.009-.01 1.965-.81 2.136-.8.17-1.735-.51-2.088-1.518-.353-1.01.009-1.965.809-2.136.8-.17 1.735.509 2.089 1.518m3.655-1.386c.374 1.004.03 1.965-.767 2.145-.796.18-1.744-.488-2.117-1.493-.374-1.005-.03-1.965.767-2.145.796-.18 1.745.488 2.117 1.493" fill="#fff" mask="url(#o)"/></g><path d="m11.41 26.764c-2.04-18.249 12.09-22.942 12.09-22.942-13.45 7.673-12.09 22.942-12.09 22.942" fill="#fff" fill-opacity=".2"/></g><g fill-rule="nonzero"><path d="m21.672 4.65c.295-.836.443-1.518.443-2.046 0-.644-.04-1.512-.12-2.604-.919 1.998-2.354 4.53-4.078 6.05-2.45 2.22-5.776 2.646-8.839 3.842-2.03.802-2.914 2.518-3.256 4.456h5.759c4.604-1.562 8.104-5.336 10.09-9.698z" fill="#ed4f62" transform="matrix(.83867057 .54463904 -.54463904 .83867057 199.090018 62.536498)"/><path d="m21.765 4.086c-2.216 4.411-5.3 8.682-10.434 10.262h3.78c.079 0 .287-.004.625-.01 2.901-.059 5.506-1.792 6.68-4.445-.02-.009.292-.585.45-1.203.157-.619.52-1.994.12-2.825-.38-.792-.787-1.385-1.22-1.779z" fill="#c84454" transform="matrix(.83867057 .54463904 -.54463904 .83867057 199.090018 62.536498)"/><path d="m12.541 4.984c.307-.301.45-.266.642-.654.217-.279.305-1.514.305-1.8 0-.69-.101-1.534-.305-2.53 0 0-1.33 2.673-7.72 2.673-4.983 0-5.333 4.827-5.245 6.95-.07.025.201 1.286.263 1.501.267.906.867 1.804 1.799 2.694.356.34.829.53 1.321.53h1.629c.157-1.535.476-2.966 1.238-4.346 1.392-2.5 4.234-3.034 6.072-5.018z" fill="#ed4f62" transform="matrix(.83867057 .54463904 -.54463904 .83867057 199.090018 62.536498)"/><path d="m21.672.852.323-.852c-5.51.233-8.168 3.186-8.643 3.781-.193.389-.449.751-.766 1.053-1.848 1.986-4.664 2.59-6.073 5.094-.766 1.381-1.17 2.883-1.338 4.42h.88c.345-1.96 1.225-3.695 3.275-4.508 3.08-1.208 6.425-1.64 8.89-3.884 1.733-1.537 2.528-3.094 3.452-5.105z" fill="#c84454" transform="matrix(.83867057 .54463904 -.54463904 .83867057 199.090018 62.536498)"/><g fill="#ed4f62"><path d="m8.441 14.029s-2.971 4.846 3.527 6.696z" transform="matrix(.83867057 .54463904 -.54463904 .83867057 199.090018 62.536498)"/><path d="m14.88 17.48s-2.973.741-6.47-3.132l6.47 3.131z" transform="matrix(.83867057 .54463904 -.54463904 .83867057 199.090018 62.536498)"/></g></g><path d="m4.464 6.05v-6.05h-1.844c-1.45 0-2.62 2.017-2.62 4.515v.406c1.485-.03 2.996.422 4.464 1.129zm37.942 0v-6.05h3.456c2.719 0 4.913 2.017 4.913 4.515v.406c-2.8-.03-5.618.422-8.37 1.129z" fill="#c83446" transform="matrix(.83867057 .54463904 -.54463904 .83867057 177.449682 75.370892)"/><path d="m12.833 18.7c-4.618 0-8.37-3.681-8.37-8.213v-4.987h16.74v4.987c0 4.532-3.751 8.213-8.37 8.213zm21.203 0c-4.618 0-8.37-3.681-8.37-8.213v-4.987h16.74v4.987c0 4.532-3.752 8.213-8.37 8.213z" fill="#222039" transform="matrix(.83867057 .54463904 -.54463904 .83867057 177.449682 75.370892)"/><path d="m14.803 8.408c-.654-.916-1.1-1.948-1.62-2.908h-5.93c2.408 4.406 5.366 8.52 8.323 12.65 1.59-.538 2.957-1.527 3.953-2.806-1.486-2.298-3.002-4.61-4.726-6.936zm17.814-3.458h-5.277c2.738 4.44 5.368 8.864 8.199 13.2 1.553-.312 2.953-1.025 4.076-2.02-2.261-3.77-4.538-7.542-7-11.18z" fill="#fff" fill-opacity=".2" transform="matrix(.83867057 .54463904 -.54463904 .83867057 177.449682 75.370892)"/><path d="m1.674 2.2h42.964v4.4h-42.964z" fill="#00172f" fill-rule="nonzero" transform="matrix(.83867057 .54463904 -.54463904 .83867057 177.449682 75.370892)"/><path d="m9.565 13.712c-.495-1.65-2.39-5.574-3.16-7.114.605-.275-1.815.977-1.21.702.715 1.43 2.29 4.396 2.785 5.881-.77-.055 2.795.696 1.585.531z" fill="#b03241" transform="translate(227.95 170.3)"/><path d="m25.985 23.97c-.165-2.255-.77-4.4-1.65-6.49-.385-.99-1.54-4.18-2.75-4.565-.495-.165-.99 0-1.485.11-1.595.33-3.135.495-4.785.55-2.915.055-6.27 0-9.075-.77h-.22c-.22-.055-.44 0-.55.275-.165.33-.33.715-.55 1.1-3.19 5.335-3.795 13.42.165 18.425.11.165.275.22.44.165 1.815 2.035 4.345 3.19 7.26 3.465 2.31.88 6.16-1.1 8.14-2.2 3.41-1.98 5.28-6.435 5.06-10.065z" fill="#fff" transform="translate(227.95 170.3)"/><path d="m25.82 2.52c-.99-.825-1.925-1.595-3.135-2.145-.22-.11-.495.055-.605.22-1.21 2.255-2.31 4.62-3.19 7.04-.055.11-.11.275-.165.495-.715 1.375-1.375 2.805-1.87 4.29-.44.33-.165 1.155.44.99.605-.22 1.045-.825 1.375-1.54.605-.99 1.045-2.035 1.43-3.135.11-.33.275-.99.495-1.65.495-.935 1.045-1.815 1.595-2.75.825-1.32 1.21-.605 2.31-.165.66.275 1.155-.385 1.43-.88.055-.275.055-.605-.11-.77z" fill="#b03241" transform="translate(227.95 170.3)"/><path d="m9.045 3.455c-1.925-.825-3.685-2.805-5.94-2.75-.165 0-.275.055-.33.11-.11.11-.22.22-.22.385-.055 1.1-.88 2.145-1.375 3.135-.55 1.155-1.1 2.365-1.1 3.63 0 .495.44.66.77.495 2.86.66 6.545-2.42 8.415-4.07.33-.33.11-.77-.22-.935z" fill="#ed4f62" transform="translate(227.95 170.3)"/><path d="m212.85 69.905c0-.715 1.045-.715 1.1-.055h.55c.715 0 .715 1.1 0 1.155-.385 0-.77 0-1.1-.165-.385-.165-.55-.55-.55-.935zm-72.05-.605c.715 0 .715 1.1 0 1.1s-.715-1.1 0-1.1zm2.2 0c.715 0 .715 1.1 0 1.1s-.715-1.1 0-1.1zm-13.2-2.2c.715 0 .715 1.1 0 1.1h-1.1c-.715 0-.715-1.1 0-1.1zm84.7-.55c.715 0 .715 1.1 0 1.1s-.715-1.1 0-1.1zm-9.9-.55c.715 0 .715 1.1 0 1.1h-1.1c-.715 0-.715-1.1 0-1.1zm15.95-1.1c.715-.055.715 1.045 0 1.1-.495 0-.935.605-1.265.935-.495.495-1.265-.275-.77-.77.55-.55 1.155-1.21 2.035-1.265zm7.15-.55c.715 0 .715 1.1 0 1.1h-1.1c-.715 0-.715-1.1 0-1.1zm3.85-.55c.715 0 .715 1.1 0 1.1s-.715-1.1 0-1.1zm-94.6 0c.715 0 .715 1.1 0 1.1s-.715-1.1 0-1.1zm8.03-5.06c3.465-.275 6.93-.165 10.395-.165.715 0 .715 1.1.11 1.045-2.695-.055-5.335-.11-7.975 0-2.255.11-6.985 0-8.47 2.2 2.64.66 5.335 1.21 8.14 1.375.715.055.715 1.155 0 1.1-3.575-.165-7.095-.88-10.56-1.815-3.135-.88-6.545-1.43-9.515.385-.605.385-1.155-.55-.55-.935 2.42-1.43 5.5-1.65 8.195-1.045 1.045.22 2.09.44 3.135.715l.116-.216c1.268-2.166 4.794-2.43 6.979-2.644zm6.82 1.76c.715 0 .715 1.1 0 1.1h-.55c-.715 0-.715-1.1 0-1.1zm20.9-7.15c.715 0 .715 1.1 0 1.1s-.715-1.1 0-1.1zm-66 0c.715 0 .715 1.1 0 1.1h-1.1c-.715 0-.715-1.1 0-1.1zm134.255-6.49c3.37-.427 6.7-.24 9.917.703-.282-.487.407-1.104.863-.648l.55.55c.189.189.194.418.1.6l.01.005c.66.22.33 1.265-.33 1.045-4.4-1.595-9.075-1.65-13.64-.77-3.795.715-6.985 3.355-10.78 3.905-3.135.44-6.49.165-9.57-.495-2.75-.605-6.655-2.53-9.24-.715-.605.44-1.1-.55-.55-.935 2.42-1.76 5.61-.495 8.195.165.825.22 1.705.44 2.585.605 4.068.643 7.732 1.375 13.695-1.595 2.585-1.1 5.115-2.035 8.195-2.42zm-57.805 3.74c.715 0 .715 1.1 0 1.1h-.55c-.715 0-.715-1.1 0-1.1zm-66.55-.55c.715 0 .715 1.1 0 1.1s-.715-1.1 0-1.1zm70.015.385c-.55-.495.275-1.265.77-.77.385.33.77.385 1.265.385.715 0 .715 1.1 0 1.1-.77 0-1.43-.165-2.035-.715zm6.05 0c-.495-.495.275-1.265.77-.77l.55.55c.495.495-.275 1.265-.77.77zm80.685-2.035c.715 0 .715 1.1 0 1.1-.495 0-.88.055-1.265.385-.495.495-1.265-.275-.77-.77.605-.55 1.265-.715 2.035-.715zm-73.425-2.31c.715-.11.715.99.055 1.1-3.74.385-7.7-.385-11.385.55-2.97.715-5.775 1.87-8.855 1.76-.715 0-.715-1.1 0-1.1 3.575.11 6.82-1.54 10.285-2.035 3.245-.495 6.6.055 9.9-.275zm-88.275 1.76c.715-.055.715 1.045-.055 1.045-6.16.495-12.375-.44-18.535.55-.66.11-.99-.935-.275-1.045 6.27-.99 12.595-.055 18.865-.55zm175.45-1.65c.715 0 .715 1.1 0 1.1-4.785.055-9.57.495-14.3 1.1-.715.11-.715-.99 0-1.1 4.73-.605 9.515-1.045 14.3-1.1zm3.3.55c.715 0 .715 1.1 0 1.1h-2.2c-.715 0-.715-1.1 0-1.1zm-112.741-.107c.104-.606 1.091-.57 1.091.107 0 .605-.495 1.045-1.1 1.1-.715.055-.715-1.045 0-1.1zm-131.624-.993c.66-.22.99.825.33 1.1-2.915 1.045-5.94 1.1-8.965 1.1-.715 0-.715-1.1 0-1.1 2.915 0 5.83-.055 8.635-1.1zm61.6 0c.715-.165.99.935.33 1.1-2.09.495-4.125.55-6.215.55-.715 0-.715-1.1 0-1.1 1.98 0 3.905-.11 5.885-.55zm51.315 0c.715 0 .715 1.1 0 1.1s-.715-1.1 0-1.1zm-80.3-2.2c.715 0 .715 1.1 0 1.1h-.55c-.715 0-.715-1.1 0-1.1zm-39.6-.55c.715 0 .715 1.1 0 1.1s-.715-1.1 0-1.1zm28.93-3.3c4.4-.11 8.635-1.595 13.035-.99 4.29.55 8.47 1.76 12.76 2.475.715.11.385 1.155-.275 1.045-4.455-.715-8.91-2.31-13.42-2.53-4.07-.22-8.03.99-12.1 1.1-.715 0-.715-1.1 0-1.1zm-6.38.385c.715 0 .715 1.1 0 1.1h-.385c-.715 0-.715-1.1 0-1.1zm45.1-3.685c.715 0 .715 1.1 0 1.1s-.715-1.1 0-1.1zm28.6-.55c.715 0 .715 1.1 0 1.1h-.55c-.715 0-.715-1.1 0-1.1zm-89.65-1.1c.715 0 .715 1.1 0 1.1s-.715-1.1 0-1.1zm222.2-1.65c.715 0 .715 1.1 0 1.1s-.715-1.1 0-1.1zm-252.93-1.108.095.008c3.245.495 6.49.055 9.735 0 .715 0 .715 1.1.055 1.045-3.41.055-6.71.495-10.065 0-.715-.11-.44-1.155.275-1.045zm279.33-3.842c.715 0 .715 1.1 0 1.1s-.715-1.1 0-1.1zm-29.425-2.145c4.345-.55 8.525-.99 12.815 0 .66.165.385 1.21-.33 1.1-4.18-.99-8.25-.55-12.485 0-.715.11-.715-.99 0-1.1zm-199.925-.055c.715 0 .715 1.1 0 1.1h-8.25c-.715 0-.715-1.1 0-1.1zm-39.435-1.265c-.55-.495.275-1.265.77-.77.385.33.77.385 1.265.385.715 0 .715 1.1 0 1.1-.77 0-1.43-.165-2.035-.715zm36.135-4.235c.715 0 .715 1.1 0 1.1h-1.1c-.715 0-.715-1.1 0-1.1zm-43.89-8.965c3.63 0 7.205-.055 10.78.22 5.005.385 10.01.88 15.015.165.66-.11.99.935.22 1.1-7.92 1.155-16.06-.385-24.09-.385-5.775 0-13.64-.605-18.645 2.86-.605.44-1.155-.55-.55-.935 4.675-3.245 11.88-2.97 17.27-3.025zm294.525.55c.715-.22.99.88.275 1.045-8.25 2.475-17.105 1.155-25.52 1.1-4.785-.055-9.515.055-14.3-.22-5.445-.33-10.835-.55-16.28.22-.66.11-.99-.935-.275-1.045 5.17-.77 10.34-.66 15.565-.33 4.895.33 9.68.22 14.52.275 8.525.055 17.655 1.43 26.015-1.045zm-101.645.695c0-.715 1.1-.715 1.155.055 0 .275 0 .55-.165.825-.11.275-.33.44-.55.66-.495.495-1.265-.275-.77-.77.055-.11.165-.22.275-.33l.039-.057.016-.023zm-136.34.02c.715 0 .715 1.1 0 1.1s-.715-1.1 0-1.1zm134.585-11c10.23-2.53 20.625-.66 30.965-1.1.715-.055.715 1.045-.055 1.045-10.23.495-20.515-1.43-30.635 1.1-.66.165-.99-.88-.275-1.045z" fill="#e08f13" transform="translate(17.05 155)"/></g></g></svg>