<svg height="274" viewBox="0 0 410 274" width="410" xmlns="http://www.w3.org/2000/svg" xmlns:xlink="http://www.w3.org/1999/xlink"><defs><path id="a" d="m10.25 0h389.342c5.661 0 10.25 4.59 10.25 10.25v252.7c0 5.66-4.589 10.25-10.25 10.25h-389.342c-5.66 0-10.25-4.59-10.25-10.25v-252.7c0-5.66 4.59-10.25 10.25-10.25z"/><path id="b" d="m17.175.003c2.669.237 16.909 9.711 16.55 11.47-.058.28-12.227 15.715-12.87 39.216-.12 4.424 0 8.659 0 13.61 0 2.024.915 6.903-1.74 7.2-.176.02-8.684 3.482-14.496 3.476-3.249-.005-5.428-1.795-3.389-3.475s11.253-4.544 10.85-6.114c-7.265-28.249-5.631-50.566-5.347-51.956.36-1.76 7.777-13.663 10.442-13.427zm40.374 16.097c.283 1.39 2.767 21.03-4.496 49.272-.403 1.57 7.892 3.196 10.136 6.113.791 1.028-1.295 3.283-4.86 3.474-5.415.289-14.038-3.456-14.205-3.474-2.653-.297-.683-5.01-.683-7.185 0-5.806.161-10.071 0-14.539-.684-18.877-6.205-31.562-6.261-31.83-.36-1.758 8.109-17.691 10.777-17.928 2.67-.236 9.233 14.337 9.593 16.097z"/><path id="c" d="m78.18 3.635c14.205 6.395 23.874 24.6 18.845 52.395-2.908 16.085-11.957 25.83-22.217 31.128l.02.2c.296 3.785 1.392 5.705 3.045 7.843 1.894.71 5 2.51 6.666 3.371 2.104 1.086 2.705 1.189 6.191 4.237 7.255 6.344 18.381 30.145 16.52 49.715.68 5.132-1.707 12.477-3.56 13.941-2.653 2.097-5.936.064-7.036-1.177s0-7.368 0-9.164c0-1.185.183-4.25 1.142-6.245.23-6.69-2.236-12.935-5.61-18.28 1.884 12.117 2.615 24.278 2.407 28.689-.278 5.894-4.539 19.197-8.117 23.332-6.027 6.964-10.834 8.62-20.578 11.048-10.62 2.648-23.682 3.824-33.448-2.392-9.446-6.012-16.045-15.913-17.41-29.46-1.427-14.156-1.292-21.373.793-30.283-3.208 5.353-5.44 11.553-4.997 18.163.672 1.936.812 4.396.812 5.428 0 1.796 1.1 7.923 0 9.164s-4.383 3.274-7.036 1.177c-1.99-1.572-4.594-9.922-3.36-15.035-1.358-19.353 9.49-42.395 16.612-48.621 3.486-3.048 4.087-3.15 6.19-4.237 2.039-1.052 6.23-3.51 7.725-3.662 1.513-2.037 2.882-3.935 4.01-6.24l.01-.021c-6.036-2.713-11.84-6.99-16.68-12.714-4.431-5.24-8.996-18.56-9.153-27.273-.492-27.325 4.123-32.068 13.691-39.972 9.568-7.905 40.318-11.45 54.523-5.055z"/><path id="d" d="m23.748 8.357c9.568-7.904 40.318-11.45 54.522-5.055 14.205 6.396 23.874 24.6 18.845 52.396-2.908 16.084-11.957 25.829-22.217 31.128l.02.2c.676 8.648 5.53 7.56 11.648 21.577 6.118 14.018 8.47 43.863 8.118 51.352-.279 5.895-4.54 19.197-8.118 23.332-6.026 6.965-10.833 8.62-20.577 11.049-10.621 2.648-23.683 3.824-33.448-2.392-9.447-6.013-16.045-15.914-17.41-29.46-2.176-21.575-.721-27.032 5.734-46.933 5.405-16.664 11.427-19.883 15.014-27.213l.011-.022c-6.036-2.712-11.84-6.989-16.68-12.713-4.432-5.24-8.997-18.56-9.154-27.273-.492-27.325 4.124-32.068 13.692-39.973z"/><path id="e" d="m3.546.902c1.36 0 5.756 2.584 7.86 3.67 2.103 1.086 2.704 1.189 6.19 4.237 7.256 6.344 18.382 30.145 16.521 49.715.679 5.132-1.708 12.477-3.56 13.941-2.654 2.097-5.937.064-7.037-1.177s0-7.368 0-9.164c0-1.185.184-4.25 1.143-6.245.68-19.742-22.135-35.625-22.441-35.857-1.475-1.116-3.768-19.12 1.324-19.12z"/><path id="f" d="m31.914.757c5.092 0 2.8 18.003 1.324 19.119-.31.235-23.753 16.555-22.402 36.674.672 1.936.812 4.396.812 5.429 0 1.796 1.1 7.922 0 9.163s-4.383 3.274-7.036 1.178c-1.99-1.573-4.594-9.922-3.36-15.035-1.358-19.354 9.49-42.396 16.612-48.622 3.486-3.048 4.087-3.15 6.19-4.236 2.104-1.086 6.5-3.67 7.86-3.67z"/><filter id="g" height="122.4%" width="150%" x="-25%" y="-11.2%"><feOffset in="SourceAlpha" result="shadowOffsetOuter1"/><feGaussianBlur in="shadowOffsetOuter1" result="shadowBlurOuter1" stdDeviation="7"/><feColorMatrix in="shadowBlurOuter1" result="shadowMatrixOuter1" values="0 0 0 0 0.468523551 0 0 0 0 0.467095125 0 0 0 0 0.467095125 0 0 0 0.5 0"/><feMerge><feMergeNode in="shadowMatrixOuter1"/><feMergeNode in="SourceGraphic"/></feMerge></filter><mask id="h" fill="#fff"><use fill="#fff" fill-rule="evenodd" xlink:href="#a"/></mask><mask id="i" fill="#fff"><use fill="#fff" fill-rule="evenodd" xlink:href="#b"/></mask><mask id="j" fill="#fff"><use fill="#fff" fill-rule="evenodd" xlink:href="#c"/></mask><mask id="k" fill="#fff"><use fill="#fff" fill-rule="evenodd" xlink:href="#d"/></mask><mask id="l" fill="#fff"><use fill="#fff" fill-rule="evenodd" xlink:href="#e"/></mask><mask id="m" fill="#fff"><use fill="#fff" fill-rule="evenodd" xlink:href="#f"/></mask></defs><g fill="none" fill-rule="evenodd"><use fill="#e3e9ec" xlink:href="#a"/><g fill="#000" mask="url(#h)"><path d="m140.179.12c22.16-1.7 41.512 14.885 43.193 37.019.123 1.74.103 3.44.021 5.139l2.214 2.17c1.168-5.467 6.006-9.562 11.828-9.562 6.191 0 11.296 4.648 11.993 10.647 2.357-2.313 5.494-3.849 9.061-4.115 1.312-.103 2.583.04 3.813.266 2.788-6.306 8.815-10.975 16.195-11.527 2.173-.164 4.243.102 6.232.614 2.767-12.121 13.14-21.56 26.199-22.543 3.054-.246 6.027.02 8.856.676.246 3.398.39 6.838.451 10.34 0 3.705-.164 7.37-.451 10.994l-.064-.028c-1.726 22.162-8.613 42.871-19.452 60.942h-241.224c-7.318-12.203-12.833-25.615-16.174-39.845l.028.005c-1.306-5.49-2.265-11.102-2.898-16.835.287-.041.574-.082.861-.103 5.022-.389 9.655 1.536 12.956 4.833 1.25-2.949 4.182-5.017 7.585-5.017.861 0 1.681.123 2.46.369-.41-11.098 8.015-20.619 19.188-21.479 9.471-.737 17.896 5.017 21.053 13.473 2.727-2.764 6.52-4.484 10.722-4.484 8.159 0 14.801 6.49 15.026 14.599l14.596-7.044c4.367-15.93 18.307-28.173 35.733-29.504zm-130.485 55.33.014.02c1.017 1.368 1.718 3 1.977 4.804.123.737.102 1.475.061 2.212.024-.132.049-.264.076-.395.017-.579-.008-1.157-.096-1.755-.264-1.84-.985-3.501-2.032-4.886z" fill-opacity=".05" transform="translate(-16.4 77.805)"/><path d="m269.103 28.703c-9.307 1.351-16.01 9.193-16.297 18.264-1.681-.676-3.547-.983-5.474-.697-3.485.512-6.314 2.662-7.83 5.57-1.169-.697-2.584-1.024-4.039-.82-3.342.492-5.679 3.543-5.269 6.88-2.583-3.194-6.539-5.262-10.988-5.262-5.617 0-10.455 3.297-12.73 8.047-1.743-1.29-3.895-2.068-6.232-2.068-4.428 0-8.22 2.743-9.738 6.634l-10.25-1.536-9.983-12.653c.143-.983.205-2.007.061-3.051-.82-5.672-6.109-9.603-11.787-8.784-1.599.225-3.055.84-4.305 1.7-3.362-8.416-12.095-13.78-21.464-12.408-9.717 1.412-16.748 9.561-17.097 19.02h-.04l-17.549 7.065-9.553.204c-1.783-3.46-5.391-5.835-9.573-5.835-3.178 0-6.027 1.392-7.995 3.563-1.148-2.519-3.875-4.095-6.745-3.665-1.804.266-3.3 1.249-4.284 2.62-1.558-4.852-6.417-8.026-11.644-7.268-3.731.553-6.724 2.969-8.159 6.163-1.128-.737-2.48-1.167-3.936-1.167-2.809 0-5.248 1.597-6.458 3.91-1.64-.757-3.464-1.207-5.412-1.207-6.314 0-11.541 4.565-12.587 10.565.041-.737.062-1.475-.061-2.212-.677-4.709-4.367-8.251-8.815-8.968 3.341 14.23 8.856 27.642 16.174 39.845h241.224c10.844-18.08 17.732-38.8 19.454-60.975-3.198-1.413-6.847-2.006-10.619-1.474z" fill-opacity=".1" transform="translate(-16.4 77.805)"/></g><path d="m0 169.26h410v103.74h-410z" fill="#fff" fill-opacity=".5" mask="url(#h)" transform="matrix(1 0 0 -1 0 442.26)"/><path d="m130.672 273c8.168-19.23 11.453-54.227 29.29-72.36 7.37-7.492 20.523-12.948 34.959-14.854 12.792-1.69 22.143-4.112 33.39-4.112 11.248 0 13.999 2.422 21.898-3.77 6.317-4.95 5.632-9.482 7.408-9.86h27.804c-.828 6.207-.828 9.86-5.39 13.63-5.66 4.678-13.741 13.428-25.579 16.162-12.142 2.804-27.996 7.724-32.369 10.966-7.482 5.547-6.273 16.09-4.634 24.122 2.743 13.44 7.358 24.29 13.518 40.076-6.505.358-77.912 4.824-100.295 0z" fill="#000" fill-opacity=".05" mask="url(#h)"/><g mask="url(#h)"><path d="m6.228 152.82v-93.083l43.107-33.33 43.106 33.33v2.434h99.556v90.65h-185.769z" fill="#fff" transform="translate(222.083 15.697)"/><g fill="#000"><path d="m92.441 152.82h99.556v-90.649h-99.556z" fill-opacity=".2" transform="translate(222.083 15.697)"/><path d="m135.46 112.476v20.15h-23.393v-20.15zm49.243-2.317v13.905h-27.805v-13.904h27.805zm-39.371-31.786v13.907h-27.804v-13.907zm21.825 16.575h17.546v-5.34h-17.546z" fill-opacity=".1" transform="translate(222.083 15.697)"/><path d="m26.24 127.218v5.014h-12.027v-5.014zm14.571-48.845v20.148h-23.395v-20.148h23.394zm40.914 0v6.718h-22.065v-6.718z" fill-opacity=".05" transform="translate(222.083 15.697)"/><path d="m49.434 105.924c-7.678 0-13.9 6.217-13.9 13.884v33.226h27.804v-33.226c0-7.667-6.227-13.884-13.904-13.884" fill-opacity=".1" transform="translate(222.083 15.697)"/></g><path d="m124.158 112.476v9.677h11.302v.791h-11.302v9.68h-.791v-9.68h-11.3v-.79l11.3-.001v-9.677zm47.036-2.317v6.557h13.509v.789h-13.51l.001 6.56h-.79v-6.56h-13.506v-.789h13.506v-6.557zm-39.37-31.786-.001 6.56h13.509v.788h-13.51l.002 6.558h-.79v-6.558h-13.506v-.788h13.506v-6.56z" fill="#fff" fill-opacity=".2" transform="translate(222.083 15.697)"/><path d="m29.507 78.373v9.68h11.303v.789h-11.303v9.68h-.79v-9.68h-11.3v-.789h11.302v-9.68h.79z" fill="#fff" transform="translate(222.083 15.697)"/><path d="m92.441 80.618-43.106-33.7-43.107 33.7v-12.814l43.107-33.7 43.106 33.7v-5.633h99.556v18.445h-99.557v.002z" fill="#000" fill-opacity=".05" transform="translate(222.083 15.697)"/><path d="m92.441 70.122-43.106-33.701-43.107 33.701-6.228-7.945 49.337-38.572 49.336 38.572z" fill="#b03241" transform="translate(222.083 15.697)"/><path d="m92.441 57.36-43.108-33.76h99.555l49.333 33.759h-.002l-6.226 12.757h-99.556v-12.756z" fill="#ed4f62" transform="translate(222.083 15.697)"/><path d="m92.437 57.36v12.757h99.556l6.226-12.757z" fill="#c83446" transform="translate(222.083 15.697)"/><path d="m125.672 23.601h16.546v-11.919h-16.546z" fill="#b03241" transform="translate(222.083 15.697)"/><path d="m125.672 15.514h16.546v-3.832h-16.546z" fill="#000" fill-opacity=".1" transform="translate(222.083 15.697)"/><path d="m122.649 11.682h22.59v-11.682h-22.59z" fill="#c83446" transform="translate(222.083 15.697)"/></g><g mask="url(#h)"><path d="m199.465 84.14c0-2.362-1.92-4.28-4.285-4.28h-190.896c-2.367 0-4.284 1.918-4.284 4.28 0 2.361 1.917 4.279 4.284 4.279h190.896c2.365 0 4.285-1.918 4.285-4.28" fill="#000" fill-opacity=".1" transform="translate(-69.017 148.102)"/><path d="m180.862 62.67v9.19h-160.061v-9.19zm0-42.057v9.189h-160.061v-9.19h160.061z" fill="#ebb25a" transform="translate(-69.017 148.102)"/><path d="m174.591 62.67v9.19h-2.042v-9.19zm-83.402 0v9.19h-2.045v-9.19zm-27.803 0v9.19h-2.042v-9.19zm-27.802 0v9.19h-2.042v-9.19zm83.405 0v9.19h-2.045v-9.19zm27.8 0v9.19h-2.042v-9.19h2.041zm27.802-42.057v9.189h-2.042v-9.19h2.042zm-83.402 0v9.189h-2.045v-9.19h2.045zm-27.803 0v9.189h-2.042v-9.19h2.042zm-27.802 0v9.189h-2.042v-9.19h2.042zm83.405 0v9.189h-2.045v-9.19h2.045zm27.8 0v9.189h-2.042v-9.19h2.041z" fill="#000" fill-opacity=".1" transform="translate(-69.017 148.102)"/><path d="m183.041 0 8.448 7.89v76.19h-16.899v-76.189l.399-.375 8.051-7.516zm-83.401 0 8.447 7.89v76.19h-16.897v-76.189l.398-.375zm-27.807 0 8.448 7.89v76.19h-16.895v-76.189l.398-.375 8.05-7.516zm55.606 0 8.447 7.89v76.19h-16.897v-76.189l.398-.375 8.053-7.516zm27.803 0 8.447 7.89v76.19h-16.9v-76.189l.4-.375zm-111.205 0 8.447 7.89v76.19h-16.9v-76.189l.404-.375zm-27.803 0 8.447 7.89v76.19h-16.897v-76.189l.398-.375z" fill="#e08f13" transform="translate(-69.017 148.102)"/><path d="m174.99 7.516 8.051 11.668v64.895h-8.45v-76.188zm-83.403 0 8.052 11.668v64.895h-8.45v-76.188zm-27.803 0 8.05 11.668v64.895h-8.448v-76.188zm55.603 0 8.052 11.668v64.895h-8.45v-76.188zm27.802 0 8.053 11.668v64.895h-8.454v-76.188zm-111.201 0 8.049 11.668v64.895h-8.453v-76.188zm-27.806 0 8.052 11.668v64.895h-8.45v-76.188z" fill="#000" fill-opacity=".1" transform="translate(-69.017 148.102)"/></g><g mask="url(#h)"><path d="m50.115 129.531h9.782v-66.331h-9.782z" fill="#205a7b" transform="translate(14.651 118.475)"/><path d="m79.76 69.001h-63.948v-47.31h47.71c8.968 0 16.238 7.26 16.238 16.217v31.092" fill="#1a5a80" transform="translate(14.651 118.475)"/><path d="m31.376 69.001h-31.128v-32.91c0-7.954 6.455-14.4 14.418-14.4h2.292c7.963 0 14.418 6.446 14.418 14.4v32.909" fill="#002134" transform="translate(14.651 118.475)"/><path d="m31.376 68.726h48.384v-30.308h-48.384z" fill="#224862" transform="translate(14.651 118.475)"/><path d="m31.376 39.77h48.384v-1.352h-48.384z" fill="#2a5e90" transform="translate(14.651 118.475)"/><path d="m44.91 21.69h.846v23.487h-.846z" fill="#000" fill-opacity=".1" transform="translate(14.651 118.475)"/><path d="m65.718 15.269h-23.007v-12.165h23.007l-5.92 6.251z" fill="#ed4f62" transform="translate(14.651 118.475)"/><path d="m44.91 45.346h-4.398v-42.75c0-1.213.984-2.196 2.199-2.196s2.2.983 2.2 2.197v42.749" fill="#e08f13" transform="translate(14.651 118.475)"/><path d="m41.527 3.273c0-1.214.984-2.197 2.199-2.197.23 0 .453.036.662.102-.403-.476-1.004-.778-1.677-.778-1.215 0-2.2.984-2.2 2.197v42.749h1.016zm3.383 11.996h1.015v-12.165h-1.015z" fill="#000" fill-opacity=".1" transform="translate(14.651 118.475)"/><path d="m43.472 25.914c-.42 0-.761-.34-.761-.76v-12.674c0-.42.34-.76.761-.76.42 0 .762.34.762.76v12.673c0 .42-.341.76-.762.76" fill="#fff" fill-opacity=".2" transform="translate(14.651 118.475)"/><path d="m45.925 46.275c0 1.82-1.477 3.295-3.299 3.295s-3.299-1.475-3.299-3.295 1.477-3.295 3.3-3.295c1.821 0 3.298 1.475 3.298 3.295" fill="#002134" transform="translate(14.651 118.475)"/><path d="m46.433 46.275c0 1.82-1.477 3.295-3.299 3.295s-3.299-1.475-3.299-3.295 1.477-3.295 3.299-3.295 3.299 1.475 3.299 3.295" fill="#205a7b" transform="translate(14.651 118.475)"/><path d="m44.91 46.19c0 .934-.757 1.69-1.692 1.69-.934 0-1.691-.756-1.691-1.69 0-.933.757-1.69 1.691-1.69.935 0 1.692.757 1.692 1.69" fill="#002134" transform="translate(14.651 118.475)"/><path d="m9.951 16.998c.638-6.878.773-12.92.777-16.727h2.99c8.967 0 16.237 7.26 16.237 16.217v31.094h-26.925c.486-1.094.941-2.224 1.368-3.38 2.983-8.08 4.579-17.497 5.422-25.852.045-.453.089-.905.13-1.352zm.14 33.062h-2.917c-.392-.78-.714-1.612-.867-2.478h3.784zm-3.067 0h-3.567c.091-.823.128-1.651.11-2.478h2.603c.15.867.467 1.699.854 2.478m-3.7 0h-3.016v-2.478h3.125c.017.827-.02 1.655-.11 2.478" fill="#000" fill-opacity=".1" transform="translate(64.457 139.894)"/></g><g filter="url(#g)" transform="translate(126 20)"><g transform="translate(21.775 165.731)"><use fill="#fff" xlink:href="#b"/><path d="m-2.449 73.64c.97.037 1.946.058 2.91.058 3.886 0 7.674-.32 10.846-1.062 11.084-2.6 3.209-25.767 2.867-32.68-.189-3.913.732-7.849-2.763-11.682-.965-1.06-2.698-1.994-4.899-2.848-2.655-1.03-.134-5.412 0-5.974.383.195 3.27 2.308 6.488 3.668 3.219 1.359 3.884 1.23 7.15 2.306 3.264 1.077 5.63 1.142 5.53 1.61-3.005 13.974-2.257 30.054 3.32 47.788-9.73.184-19.95.414-30.949.455-.177-.55-.335-1.09-.5-1.638zm38.092.9c.242-.832.469-1.666.68-2.498 10.076-1.007 13.79-7.65 14.688-10.772 2.247-7.835 2.142-16.124-1.432-23.923-.837-1.817-1.411-5.204-6.456-6.604-2.203-.611-4.24-.85-6.31-.881-.137-.692-1.029-2.355-1.17-3.025 3.571-.32 9.64-2.308 12.88-3.522 5.31-1.99 7.599-3.541 12.764-4.418 3.145 13.254 7.077 37.312 1.689 56-8.967-.026-19.153-.19-27.333-.356z" fill="#000" fill-opacity=".1" mask="url(#i)"/></g><use fill="#fff" xlink:href="#c"/><g mask="url(#j)"><g transform="translate(-.09 .332)"><path d="m23.748 8.357c9.568-7.904 40.318-11.45 54.522-5.055 14.205 6.396 23.874 24.6 18.845 52.396-2.908 16.084-11.957 25.829-22.217 31.128l.02.2c.676 8.648 5.53 7.56 11.648 21.577 6.118 14.018 8.47 43.863 8.118 51.352-.279 5.895-4.54 19.197-8.118 23.332-6.026 6.965-10.833 8.62-20.577 11.049-10.621 2.648-23.683 3.824-33.448-2.392-9.447-6.013-16.045-15.914-17.41-29.46-2.176-21.575-.721-27.032 5.734-46.933 5.405-16.664 11.427-19.883 15.014-27.213l.011-.022c-6.036-2.712-11.84-6.989-16.68-12.713-4.432-5.24-8.997-18.56-9.154-27.273-.492-27.325 4.124-32.068 13.692-39.973z" fill="#fff"/><use fill="#fff" xlink:href="#d"/><g fill="#000"><path d="m32.285 91.503c-4.979-1.195-2.316-2.92-10.752-9.536-6.612-5.185-8.384-7.382-10.295-18.98-.532-3.227-1.694-9.76-1.873-14.657-.068-1.874.651-3.544.655-4.646 1.426 8.67 3.94 17.112 7.928 24.79 6.259 12.047 16.32 18.777 28.83 20.744 2.114.333 5.343 1.018 7.445 1.018 12.462 0 23.703-5.181 32.778-14.62 4.095-4.262 6.969-9.427 8.976-15.107-.35 1.492 1.461 1.52 1.053 2.94-1.544 5.37-5.708 11.57-8.25 15.138-8 11.234-18.868 15.883-33.3 16.403-14.432.519-20.052-2.675-23.195-3.487z" fill-opacity=".2" mask="url(#k)"/><path d="m33.531 84.806c-1.928-1.006-4.704-2.84-7.733-5.701-3.163-2.986-6.335-7.259-8.406-11.762-.652-1.42-1.92-4.055-2.45-5.503-.565-1.549-1.483-3.944-2.285-6.584-.685-2.257-1.26-4.7-1.739-6.846-.603-2.702-.73-3.51-.898-5.034.424 2.349 1.31 4.603 1.812 6.816.888 3.91 2.444 7.085 3.983 10.779.53 1.271 1.283 3.106 2.003 4.37 6.28 11.013 15.844 18.095 28.396 19.893 2.122.304 4.242.451 6.35.451 12.505 0 24.591-5.187 33.697-13.814 4.109-3.896 8.317-8.663 10.332-13.855-.19.739-.309 1.633-.616 2.493-.544 1.527-1.257 3.082-1.766 4.272-.173.404-.772 1.5-.93 1.87-1.455 3.382-2.813 5.205-5.096 7.683-2.785 3.021-6.403 5.987-9.228 8.139-6.105 4.65-16.332 7.763-24.734 7.763-1.915 0-3.818-.434-5.665-.718-3.889-.597-7.526-1.443-10.477-2.608-1.797-.709-3.386-1.496-4.55-2.104z" fill-opacity=".1" mask="url(#k)"/><path d="m33.365 193.456c-8.471-4.44-13.42-11.054-16.505-20.207-1.24-3.679-1.48-7.888-2.673-11.865-1.946-6.487-1.946-7.379-.795-11.2-.025 1.274 1.44 3.763 1.782 5.199 2.28 9.561 7.233 19.82 11.367 24.978 3.827 4.775 16.983 10.875 25.878 10.875 8.896 0 28.755-7.668 34.089-15.625 4.193-6.256 8.523-20.706 8.21-28.196.443 2.555.933 8.41.821 10.958v2.138c-.262 5.984-3.165 14.014-6.11 19.266-4.897 8.73-12.414 12.621-22.274 15.24-4.475 1.19-10.562 1.463-15.16 1.463-3.055 0-6.067.06-8.76-.54-3.615-.805-6.778-.864-9.87-2.484z" fill-opacity=".2" mask="url(#k)"/></g><g transform="translate(73.224 93.668)"><use fill="#fff" xlink:href="#e"/><path d="m18.057 72.68c.039 0-4.01-5.551-4.01-15.146s3.708-21.064 10.812-30.545c3.12-4.169 4.068-5.012 2.46-1.106-1.194 2.9-1.56 4.225-3.393 9.02-1.899 4.964-2.51 6.371-4.38 13.99-.946 3.858 2.737 19.924 1.417 20.24-.371.09-3.331 3.548-2.906 3.548z" fill="#000" fill-opacity=".1" mask="url(#l)" transform="matrix(-1 0 0 1 42.137 0)"/></g><g transform="translate(.09 93.813)"><use fill="#fff" xlink:href="#f"/><path d="m11.19 72.535c.04 0-4.01-5.552-4.01-15.147 0-9.594 3.708-21.063 10.812-30.545 3.121-4.169 4.069-5.012 2.46-1.105-1.194 2.899-1.559 4.225-3.392 9.019-1.9 4.965-2.51 6.371-4.38 13.99-.947 3.859 2.736 19.924 1.416 20.24-.37.09-3.33 3.548-2.905 3.548z" fill="#000" fill-opacity=".1" mask="url(#m)"/></g><path d="m4.09 115.625c8.9-24.762 17.917-32.465 27.052-23.109 4.394 4.501 15.719 7.765 22.204 7.583 8.868-.247 16.577-3.403 23.128-9.468 7.485 2.875 12.407 5.555 14.766 8.04 2.359 2.486 5.332 7.662 8.92 15.527l-11.66 7.366c.267.492.624 1.283 1.071 2.374.697 1.7 2.597 5.562 3.994 12.573 2.006 10.065 1.991 22.312 1.154 26.214-8.707 5.433-17.963 10.748-42.11 10.748-16.097 0-28.504-1.935-37.22-5.805-1.943-11.604-2.727-19.457-2.355-23.56.78-8.592 1.867-11.34 3.302-17.636 1.032-4.533 2.602-6.873 3.144-9.431.189-.89-1.313 4.97-2.087 4.97-1.717 0-6.151-2.129-13.302-6.386z" fill="#1a5a80"/></g></g><g mask="url(#j)"><path d="m60.282 9.17c0 4.834-3.893 8.754-8.696 8.754-4.802 0-8.695-3.92-8.695-8.755 0-4.836 3.893-8.756 8.695-8.756 4.803 0 8.696 3.92 8.696 8.756" fill="#222039" transform="translate(23.07 37.348)"/><path d="m57.15 5.031c0 1.335-1.075 2.416-2.402 2.416-1.325 0-2.4-1.08-2.4-2.416 0-1.335 1.075-2.417 2.4-2.417 1.327 0 2.402 1.082 2.402 2.417m.526 3.349c0 .514-.414.932-.925.932s-.925-.418-.925-.932c0-.515.414-.933.925-.933s.925.418.925.933" fill="#fff" transform="translate(23.07 37.348)"/><path d="m17.675 9.144c0 4.709-3.824 8.526-8.543 8.526-4.718 0-8.544-3.817-8.544-8.526 0-4.71 3.826-8.527 8.544-8.527 4.72 0 8.543 3.818 8.543 8.527" fill="#222039" transform="translate(23.07 37.348)"/><path d="m14.599 5.118c0 1.298-1.057 2.351-2.36 2.351s-2.359-1.053-2.359-2.349c0-1.3 1.056-2.353 2.36-2.353 1.302 0 2.359 1.053 2.359 2.352m.518 3.257c0 .5-.408.907-.91.907-.503 0-.91-.407-.91-.907 0-.501.407-.907.91-.907.502 0 .91.406.91.907" fill="#fff" transform="translate(23.07 37.348)"/><path d="m0 0h35v30h-35z" transform="translate(38 53)"/><path d="m25.04 13.272c0 4.43-3.591 8.02-8.02 8.02s-8.02-3.59-8.02-8.02c0-4.429 3.591-1.019 8.02-1.019s8.02-3.41 8.02 1.02" fill="#222039" transform="translate(38 53)"/><path d="m23.552 17.925c-1.454 2.038-3.838 3.367-6.532 3.367-2.214 0-4.219-.898-5.671-2.35-1.451-1.45 1.242-4.689 5.671-4.689s7.469 2.36 6.532 3.672" fill="#ed4f62" transform="translate(38 53)"/></g></g><g transform="translate(158 3)"><path d="m11.85 36.22s-6.754 0-9.598-4.719c-1.502-1.84-2.252-4.29-2.252-7.35 0-3.061 1.699-4.963 5.096-5.704 0 0-5.13-10.546 7.406-8.203 0 0 2.096-11.512 15.166-10.129 0 0 11.51 1.398 8.725 11.938 0 0 4.07-2.555 6.964 1.171 0 0 4.607 4.045-1.606 9.9 0 0 9.591 11.928-7.874 13.096h-22.026z" fill="#ed4f62"/><path d="m19.92 36.22s-7.827-14.773-7.418-25.976c0 0 2.096-11.512 15.166-10.129 0 0 11.51 1.398 8.725 11.938 0 0-3.815 24.167-7.782 24.167z" fill="#b03241"/><path d="m11.85 36.22s-6.754 0-9.598-4.719c-1.502-1.84-2.252-4.29-2.252-7.35 0-3.061 1.699-4.963 5.096-5.704 0 0 4.443.342 9.534 4.534 5.29 4.357 9.835 13.239 7.255 13.239z" fill="#c83446"/><path d="m20.93 36.22s.452-3.194 2.164-6.198c3.552-6.231 12.573-13.333 18.657-6.898 0 0 9.591 11.928-7.874 13.096z" fill="#c83446"/></g></g></svg>