<svg height="220" viewBox="0 0 330 220" width="330" xmlns="http://www.w3.org/2000/svg" xmlns:xlink="http://www.w3.org/1999/xlink"><defs><path id="a" d="m9.643.002c1.498.133 9.493 5.454 9.292 6.442-.033.157-6.865 8.826-7.226 22.026-.068 2.484 0 4.863 0 7.644 0 1.137.514 3.877-.977 4.045-.099.01-4.876 1.954-8.139 1.951-1.823-.002-3.047-1.008-1.903-1.95 1.145-.944 6.318-2.552 6.092-3.434-4.079-15.868-3.162-28.402-3.002-29.183.202-.989 4.366-7.674 5.863-7.541zm17.282 0c1.498-.133 5.183 8.052 5.385 9.04.16.782 1.553 11.812-2.524 27.675-.226.882 4.43 1.795 5.69 3.433.445.578-.727 1.844-2.728 1.951-3.04.162-7.882-1.94-7.975-1.95-1.49-.168-.384-2.815-.384-4.037 0-3.26.09-5.656 0-8.165-.383-10.603-3.484-17.727-3.515-17.878-.201-.987 4.553-9.936 6.051-10.07z"/><path id="b" d="m8.23 4.694c5.37-4.44 22.635-6.431 30.61-2.84 7.976 3.593 13.404 13.818 10.58 29.43-1.632 9.033-6.713 14.507-12.473 17.483l.012.112c.379 4.857 3.105 4.246 6.54 12.119 3.434 7.873 4.754 24.636 4.557 28.842-.157 3.31-2.549 10.782-4.558 13.105-3.384 3.912-6.082 4.841-11.553 6.206-5.963 1.487-13.296 2.147-18.779-1.344-5.303-3.377-9.008-8.938-9.775-16.547-1.22-12.117-.404-15.182 3.22-26.36 3.035-9.359 6.415-11.167 8.43-15.284l.005-.012c-3.388-1.524-6.647-3.926-9.364-7.14-2.488-2.944-5.052-10.427-5.14-15.321-.276-15.344 2.316-18.008 7.688-22.448z"/><path id="c" d="m14.6.158c.763 0 .655 1.197 1.836 1.807s1.519.667 3.476 2.38c2.869 2.509 6.394 9.526 8.113 17.507.633 2.94 1.154 6.124 1.141 9.123 1.25 2.005.302 6.793-.88 7.728-1.49 1.177-1.966.649-2.584-.048-.618-.698-1.713-1.154-1.84-3.666-.029-.551.051-1.979.396-3.164-.179-2.536-1.581-4.882-2.54-7.17-1.9-4.535-4.597-9.01-7.195-11.366-1.818-1.648-1.762-3.237-1.817-3.28-.828-.625-.966-9.85 1.894-9.85z"/><path id="d" d="m17.918.425c2.859 0 1.571 10.112.743 10.738-.174.133-13.336 9.3-12.577 20.599.377 1.087.456 2.469.456 3.049 0 1.009.617 4.45 0 5.147-.618.697-2.461 1.839-3.95.66-1.093-.863-2.515-5.365-1.93-8.25l.043-.194c-.762-10.87 5.328-23.811 9.327-27.308 1.958-1.712 2.295-1.77 3.476-2.38s3.65-2.06 4.413-2.06z"/><path id="e" d="m9.643.002c1.498.133 9.493 5.454 9.292 6.442-.033.157-6.865 8.826-7.226 22.026-.068 2.484 0 4.863 0 7.644 0 1.137.514 3.877-.977 4.045-.099.01-4.876 1.954-8.139 1.951-1.823-.002-3.047-1.008-1.903-1.95 1.145-.944 6.318-2.552 6.092-3.434-4.079-15.868-3.162-28.402-3.002-29.183.202-.989 4.366-7.674 5.863-7.541zm17.282 0c1.498-.133 5.183 8.052 5.385 9.04.16.782 1.553 11.812-2.524 27.675-.226.882 4.43 1.795 5.69 3.433.445.578-.727 1.844-2.728 1.951-3.04.162-7.882-1.94-7.975-1.95-1.49-.168-.384-2.815-.384-4.037 0-3.26.09-5.656 0-8.165-.383-10.603-3.484-17.727-3.515-17.878-.201-.987 4.553-9.936 6.051-10.07z"/><path id="f" d="m8.23 4.694c5.37-4.44 22.635-6.431 30.61-2.84 7.976 3.593 13.404 13.818 10.58 29.43-1.632 9.033-6.713 14.507-12.473 17.483l.012.112c.379 4.857 3.105 4.246 6.54 12.119 3.434 7.873 4.754 24.636 4.557 28.842-.157 3.31-2.549 10.782-4.558 13.105-3.384 3.912-6.082 4.841-11.553 6.206-5.963 1.487-13.296 2.147-18.779-1.344-5.303-3.377-9.008-8.938-9.775-16.547-1.22-12.117-.404-15.182 3.22-26.36 3.035-9.359 6.415-11.167 8.43-15.284l.005-.012c-3.388-1.524-6.647-3.926-9.364-7.14-2.488-2.944-5.052-10.427-5.14-15.321-.276-15.344 2.316-18.008 7.688-22.448z"/><path id="g" d="m14.6.158c.763 0 .655 1.197 1.836 1.807s1.519.667 3.476 2.38c2.869 2.509 6.394 9.526 8.113 17.507.633 2.94 1.154 6.124 1.141 9.123 1.25 2.005.302 6.793-.88 7.728-1.49 1.177-1.966.649-2.584-.048-.618-.698-1.713-1.154-1.84-3.666-.029-.551.051-1.979.396-3.164-.179-2.536-1.581-4.882-2.54-7.17-1.9-4.535-4.597-9.01-7.195-11.366-1.818-1.648-1.762-3.237-1.817-3.28-.828-.625-.966-9.85 1.894-9.85z"/><path id="h" d="m14.6.158c.763 0 .655 1.197 1.836 1.807s1.519.667 3.476 2.38c2.869 2.509 6.394 9.526 8.113 17.507.633 2.94 1.154 6.124 1.141 9.123 1.25 2.005.302 6.793-.88 7.728-1.49 1.177-1.966.649-2.584-.048-.618-.698-1.713-1.154-1.84-3.666-.029-.551.051-1.979.396-3.164-.179-2.536-1.581-4.882-2.54-7.17-1.9-4.535-4.597-9.01-7.195-11.366-1.818-1.648-1.762-3.237-1.817-3.28-.828-.625-.966-9.85 1.894-9.85z"/><path id="i" d="m9.643.002c1.498.133 9.493 5.454 9.292 6.442-.033.157-6.865 8.826-7.226 22.026-.068 2.484 0 4.863 0 7.644 0 1.137.514 3.877-.977 4.045-.099.01-4.876 1.954-8.139 1.951-1.823-.002-3.047-1.008-1.903-1.95 1.145-.944 6.318-2.552 6.092-3.434-4.079-15.868-3.162-28.402-3.002-29.183.202-.989 4.366-7.674 5.863-7.541zm17.282 0c1.498-.133 5.183 8.052 5.385 9.04.16.782 1.553 11.812-2.524 27.675-.226.882 4.43 1.795 5.69 3.433.445.578-.727 1.844-2.728 1.951-3.04.162-7.882-1.94-7.975-1.95-1.49-.168-.384-2.815-.384-4.037 0-3.26.09-5.656 0-8.165-.383-10.603-3.484-17.727-3.515-17.878-.201-.987 4.553-9.936 6.051-10.07z"/><path id="j" d="m8.077 4.694c5.372-4.44 22.636-6.431 30.611-2.84 7.975 3.593 13.404 13.818 10.58 29.43-1.632 9.033-6.713 14.507-12.473 17.483l.011.112c.38 4.857 3.105 4.246 6.54 12.119s4.755 24.636 4.558 28.842c-.157 3.31-2.55 10.782-4.558 13.105-3.384 3.912-6.082 4.841-11.553 6.206-5.963 1.487-13.296 2.147-18.779-1.344-5.303-3.377-9.008-8.938-9.775-16.547-1.22-12.117-.404-15.182 3.22-26.36 3.035-9.359 6.415-11.167 8.43-15.284l.005-.012c-3.388-1.524-6.647-3.926-9.364-7.14-2.49-2.944-5.052-10.427-5.14-15.321-.276-15.344 2.316-18.008 7.687-22.448z"/><path id="k" d="m14.6.158c.763 0 .655 1.197 1.836 1.807s1.519.667 3.476 2.38c2.869 2.509 6.394 9.526 8.113 17.507.633 2.94 1.154 6.124 1.141 9.123 1.25 2.005.302 6.793-.88 7.728-1.49 1.177-1.966.649-2.584-.048-.618-.698-1.713-1.154-1.84-3.666-.029-.551.051-1.979.396-3.164-.179-2.536-1.581-4.882-2.54-7.17-1.9-4.535-4.597-9.01-7.195-11.366-1.818-1.648-1.762-3.237-1.817-3.28-.828-.625-.966-9.85 1.894-9.85z"/><path id="l" d="m14.6.158c.763 0 .655 1.197 1.836 1.807s1.519.667 3.476 2.38c2.869 2.509 6.394 9.526 8.113 17.507.633 2.94 1.154 6.124 1.141 9.123 1.25 2.005.302 6.793-.88 7.728-1.49 1.177-1.966.649-2.584-.048-.618-.698-1.713-1.154-1.84-3.666-.029-.551.051-1.979.396-3.164-.179-2.536-1.581-4.882-2.54-7.17-1.9-4.535-4.597-9.01-7.195-11.366-1.818-1.648-1.762-3.237-1.817-3.28-.828-.625-.966-9.85 1.894-9.85z"/><path id="m" d="m10.377 5.45c-.742 1.259-2.194-2.048-5.168-.976s-5.209-.217-5.209-1.688c0-1.47 1.167-2.663 2.605-2.663 1.439 0 9.7 2.058 7.772 5.326"/><path id="n" d="m9.643.002c1.498.133 9.493 5.454 9.292 6.442-.033.157-6.865 8.826-7.226 22.026-.068 2.484 0 4.863 0 7.644 0 1.137.514 3.877-.977 4.045-.099.01-4.876 1.954-8.139 1.951-1.823-.002-3.047-1.008-1.903-1.95 1.145-.944 6.318-2.552 6.092-3.434-4.079-15.868-3.162-28.402-3.002-29.183.202-.989 4.366-7.674 5.863-7.541zm17.282 0c1.498-.133 5.183 8.052 5.385 9.04.16.782 1.553 11.812-2.524 27.675-.226.882 4.43 1.795 5.69 3.433.445.578-.727 1.844-2.728 1.951-3.04.162-7.882-1.94-7.975-1.95-1.49-.168-.384-2.815-.384-4.037 0-3.26.09-5.656 0-8.165-.383-10.603-3.484-17.727-3.515-17.878-.201-.987 4.553-9.936 6.051-10.07z"/><path id="o" d="m8.23 4.694c5.37-4.44 22.635-6.431 30.61-2.84 7.976 3.593 13.404 13.818 10.58 29.43-1.632 9.033-6.713 14.507-12.473 17.483l.012.112c.379 4.857 3.105 4.246 6.54 12.119 3.434 7.873 4.754 24.636 4.557 28.842-.157 3.31-2.549 10.782-4.558 13.105-3.384 3.912-6.082 4.841-11.553 6.206-5.963 1.487-13.296 2.147-18.779-1.344-5.303-3.377-9.008-8.938-9.775-16.547-1.22-12.117-.404-15.182 3.22-26.36 3.035-9.359 6.415-11.167 8.43-15.284l.005-.012c-3.388-1.524-6.647-3.926-9.364-7.14-2.488-2.944-5.052-10.427-5.14-15.321-.276-15.344 2.316-18.008 7.688-22.448z"/><path id="p" d="m14.6.158c.763 0 .655 1.197 1.836 1.807s1.519.667 3.476 2.38c2.869 2.509 6.394 9.526 8.113 17.507.633 2.94 1.154 6.124 1.141 9.123 1.25 2.005.302 6.793-.88 7.728-1.49 1.177-1.966.649-2.584-.048-.618-.698-1.713-1.154-1.84-3.666-.029-.551.051-1.979.396-3.164-.179-2.536-1.581-4.882-2.54-7.17-1.9-4.535-4.597-9.01-7.195-11.366-1.818-1.648-1.762-3.237-1.817-3.28-.828-.625-.966-9.85 1.894-9.85z"/><path id="q" d="m14.6.158c.763 0 .655 1.197 1.836 1.807s1.519.667 3.476 2.38c2.869 2.509 6.394 9.526 8.113 17.507.633 2.94 1.154 6.124 1.141 9.123 1.25 2.005.302 6.793-.88 7.728-1.49 1.177-1.966.649-2.584-.048-.618-.698-1.713-1.154-1.84-3.666-.029-.551.051-1.979.396-3.164-.179-2.536-1.581-4.882-2.54-7.17-1.9-4.535-4.597-9.01-7.195-11.366-1.818-1.648-1.762-3.237-1.817-3.28-.828-.625-.966-9.85 1.894-9.85z"/><path id="r" d="m9.643.002c1.498.133 9.493 5.454 9.292 6.442-.033.157-6.865 8.826-7.226 22.026-.068 2.484 0 4.863 0 7.644 0 1.137.514 3.877-.977 4.045-.099.01-4.876 1.954-8.139 1.951-1.823-.002-3.047-1.008-1.903-1.95 1.145-.944 6.318-2.552 6.092-3.434-4.079-15.868-3.162-28.402-3.002-29.183.202-.989 4.366-7.674 5.863-7.541zm17.282 0c1.498-.133 5.183 8.052 5.385 9.04.16.782 1.553 11.812-2.524 27.675-.226.882 4.43 1.795 5.69 3.433.445.578-.727 1.844-2.728 1.951-3.04.162-7.882-1.94-7.975-1.95-1.49-.168-.384-2.815-.384-4.037 0-3.26.09-5.656 0-8.165-.383-10.603-3.484-17.727-3.515-17.878-.201-.987 4.553-9.936 6.051-10.07z"/><path id="s" d="m8.077 4.694c5.372-4.44 22.636-6.431 30.611-2.84 7.975 3.593 13.404 13.818 10.58 29.43-1.632 9.033-6.713 14.507-12.473 17.483l.011.112c.38 4.857 3.105 4.246 6.54 12.119s4.755 24.636 4.558 28.842c-.157 3.31-2.55 10.782-4.558 13.105-3.384 3.912-6.082 4.841-11.553 6.206-5.963 1.487-13.296 2.147-18.779-1.344-5.303-3.377-9.008-8.938-9.775-16.547-1.22-12.117-.404-15.182 3.22-26.36 3.035-9.359 6.415-11.167 8.43-15.284l.005-.012c-3.388-1.524-6.647-3.926-9.364-7.14-2.49-2.944-5.052-10.427-5.14-15.321-.276-15.344 2.316-18.008 7.687-22.448z"/><path id="t" d="m17.918.425c2.859 0 1.571 10.112.743 10.738-.174.133-13.336 9.3-12.577 20.599.377 1.087.456 2.469.456 3.049 0 1.009.617 4.45 0 5.147-.618.697-2.461 1.839-3.95.66-1.093-.863-2.515-5.365-1.93-8.25l.043-.194c-.762-10.87 5.328-23.811 9.327-27.308 1.958-1.712 2.295-1.77 3.476-2.38s3.65-2.06 4.413-2.06z"/><path id="u" d="m14.6.158c.763 0 .655 1.197 1.836 1.807s1.519.667 3.476 2.38c2.869 2.509 6.394 9.526 8.113 17.507.633 2.94 1.154 6.124 1.141 9.123 1.25 2.005.302 6.793-.88 7.728-1.49 1.177-1.966.649-2.584-.048-.618-.698-1.713-1.154-1.84-3.666-.029-.551.051-1.979.396-3.164-.179-2.536-1.581-4.882-2.54-7.17-1.9-4.535-4.597-9.01-7.195-11.366-1.818-1.648-1.762-3.237-1.817-3.28-.828-.625-.966-9.85 1.894-9.85z"/><path id="v" d="m9.191 12.918c-1.063 0-1.996-.078-2.85-.24-2.637-.497-4.507-2.5-4.653-4.985-.03-.657.142-1.174.526-1.573.803-.836 2.366-1.012 3.534-1.012.318 0 .646.014.977.04.319.024.634.07.969.119.41.058.833.12 1.266.14.107.006.212.008.317.008.639 0 1.253-.088 1.847-.175.314-.045.64-.092.958-.124.41-.04.814-.061 1.2-.061.226 0 .45.007.668.02 1.51.099 2.489.439 2.99 1.04.298.358.487 1.01.462 1.586-.056 1.249-.674 2.684-1.537 3.571-.855.88-2.024 1.341-3.79 1.498-1.165.102-2.054.148-2.884.148"/><path id="w" d="m2.46 5.259 1.022-3.912c.016-.06.077-.096.137-.08.04.01.07.04.08.08l.992 3.789c.016.06.077.096.137.08.04-.01.07-.04.08-.08l.992-3.789c.016-.06.077-.096.137-.08.04.01.07.04.08.08l.991 3.789c.016.06.077.096.137.08.04-.01.07-.041.08-.08l.99-3.789c.016-.06.077-.096.137-.08.04.01.07.041.08.08l.991 3.789c.016.06.077.096.137.08.04-.01.07-.04.08-.08l.99-3.789c.017-.06.078-.096.138-.08.04.01.07.04.08.08l.991 3.789c.016.06.078.096.138.08.039-.01.07-.04.08-.08l.99-3.789c.016-.06.077-.096.137-.08.04.01.07.04.08.08l.992 3.79c.015.06.077.095.137.08.04-.011.07-.042.08-.08l.992-3.79c.016-.06.077-.096.137-.08.04.01.07.04.08.08l.992 3.79c.016.06.077.095.137.08.04-.01.07-.042.08-.08l.992-3.79c.016-.06.077-.096.137-.08.04.01.07.04.08.08l1.022 3.906c.016.06.078.096.138.08.032-.008.058-.03.073-.06l1.823-3.851c.027-.056.094-.08.15-.054.037.018.061.054.064.095l.23 3.785c.004.062.057.11.12.105.032-.002.062-.018.082-.044l2.6-3.437c.037-.05.107-.059.157-.022.028.022.044.055.044.09l-.005 1.686c-.467 3.442-.894 6.1-1.28 7.977-1.059 5.152-5.572 8.865-10.832 8.91l-.195.002c-5.253.045-9.76-3.732-10.635-8.912-.36-2.125-.736-5.176-1.133-9.153-.006-.062.039-.117.1-.123.047-.005.092.02.112.062l1.415 2.891c.027.056.094.08.15.052.03-.014.051-.04.06-.072z"/><filter id="x" height="137.3%" width="117.9%" x="-8.9%" y="-18.7%"><feOffset dy="2" in="SourceAlpha" result="shadowOffsetOuter1"/><feGaussianBlur in="shadowOffsetOuter1" result="shadowBlurOuter1" stdDeviation="6.5"/><feColorMatrix in="shadowBlurOuter1" result="shadowMatrixOuter1" values="0 0 0 0 0.45839069 0 0 0 0 0.481375507 0 0 0 0 0.530740489 0 0 0 0.4 0"/><feMerge><feMergeNode in="shadowMatrixOuter1"/><feMergeNode in="SourceGraphic"/></feMerge></filter><mask id="y" fill="#fff"><use fill="#fff" fill-rule="evenodd" xlink:href="#a"/></mask><mask id="z" fill="#fff"><use fill="#fff" fill-rule="evenodd" xlink:href="#b"/></mask><mask id="A" fill="#fff"><use fill="#fff" fill-rule="evenodd" xlink:href="#c"/></mask><mask id="B" fill="#fff"><use fill="#fff" fill-rule="evenodd" xlink:href="#d"/></mask><mask id="C" fill="#fff"><path d="m35.704 2.634c2.25 2.676 5.528 3.684 5.783 6.929.166 2.126.782 3.204 1.71 4.406 1.064.398 2.807 1.41 3.743 1.892 1.18.61 1.518.668 3.475 2.38 4.074 3.563 10.32 16.932 9.276 27.924.38 2.882-.96 7.006-2 7.829-1.49 1.178-3.332.036-3.95-.661s0-4.138 0-5.147c0-.587.08-1.994.468-3.087-.1-3.927-1.828-9.676-3.498-13.739 1.445 7.707 2.007 16.315 1.873 19.164-.156 3.31-2.548 10.782-4.557 13.105-3.384 3.912-6.082 4.841-11.553 6.205-5.963 1.488-13.296 2.148-18.779-1.343-5.303-3.377-9.008-8.938-9.775-16.547-.801-7.95-.725-12.004.446-17.009-1.802 3.007-3.055 6.49-2.806 10.202.377 1.087.456 2.469.456 3.049 0 1.009.618 4.45 0 5.147s-2.461 1.839-3.95.66c-1.093-.863-2.515-5.365-1.93-8.25l.043-.194c-.762-10.87 5.329-23.811 9.327-27.308 1.957-1.712 2.294-1.77 3.475-2.38 1.145-.591 3.5-1.973 4.338-2.057.848-1.142 1.617-2.21 2.25-3.504 2.015-4.117 4.818-9.401 8.223-9.86 2.45-.33 6.197.155 7.912 2.194z" fill="#fff" fill-rule="evenodd"/></mask><mask id="D" fill="#fff"><use fill="#fff" fill-rule="evenodd" xlink:href="#e"/></mask><mask id="E" fill="#fff"><use fill="#fff" fill-rule="evenodd" xlink:href="#f"/></mask><mask id="F" fill="#fff"><use fill="#fff" fill-rule="evenodd" xlink:href="#g"/></mask><mask id="G" fill="#fff"><use fill="#fff" fill-rule="evenodd" xlink:href="#h"/></mask><mask id="H" fill="#fff"><path d="m35.704 2.634c2.25 2.676 5.528 3.684 5.783 6.929.166 2.126.782 3.204 1.71 4.406 1.064.398 2.807 1.41 3.743 1.892 1.18.61 1.518.668 3.475 2.38 4.074 3.563 10.32 16.932 9.276 27.924.38 2.882-.96 7.006-2 7.829-1.49 1.178-3.332.036-3.95-.661s0-4.138 0-5.147c0-.587.08-1.994.468-3.087-.1-3.927-1.828-9.676-3.498-13.739 1.445 7.707 2.007 16.315 1.873 19.164-.156 3.31-2.548 10.782-4.557 13.105-3.384 3.912-6.082 4.841-11.553 6.205-5.963 1.488-13.296 2.148-18.779-1.343-5.303-3.377-9.008-8.938-9.775-16.547-.801-7.95-.725-12.004.446-17.009-1.802 3.007-3.055 6.49-2.806 10.202.377 1.087.456 2.469.456 3.049 0 1.009.618 4.45 0 5.147s-2.461 1.839-3.95.66c-1.093-.863-2.515-5.365-1.93-8.25l.043-.194c-.762-10.87 5.329-23.811 9.327-27.308 1.957-1.712 2.294-1.77 3.475-2.38 1.145-.591 3.5-1.973 4.338-2.057.848-1.142 1.617-2.21 2.25-3.504 2.015-4.117 4.818-9.401 8.223-9.86 2.45-.33 6.197.155 7.912 2.194z" fill="#fff" fill-rule="evenodd"/></mask><mask id="I" fill="#fff"><use fill="#fff" fill-rule="evenodd" xlink:href="#i"/></mask><mask id="J" fill="#fff"><use fill="#fff" fill-rule="evenodd" xlink:href="#j"/></mask><mask id="K" fill="#fff"><use fill="#fff" fill-rule="evenodd" xlink:href="#k"/></mask><mask id="L" fill="#fff"><use fill="#fff" fill-rule="evenodd" xlink:href="#l"/></mask><mask id="M" fill="#fff"><use fill="#fff" fill-rule="evenodd" xlink:href="#m"/></mask><mask id="N" fill="#fff"><path d="m35.704 2.634c2.25 2.676 5.528 3.684 5.783 6.929.166 2.126.782 3.204 1.71 4.406 1.064.398 2.807 1.41 3.743 1.892 1.18.61 1.518.668 3.475 2.38 4.074 3.563 10.32 16.932 9.276 27.924.38 2.882-.96 7.006-2 7.829-1.49 1.178-3.332.036-3.95-.661s0-4.138 0-5.147c0-.587.08-1.994.468-3.087-.1-3.927-1.828-9.676-3.498-13.739 1.445 7.707 2.007 16.315 1.873 19.164-.156 3.31-2.548 10.782-4.557 13.105-3.384 3.912-6.082 4.841-11.553 6.205-5.963 1.488-13.296 2.148-18.779-1.343-5.303-3.377-9.008-8.938-9.775-16.547-.801-7.95-.725-12.004.446-17.009-1.802 3.007-3.055 6.49-2.806 10.202.377 1.087.456 2.469.456 3.049 0 1.009.618 4.45 0 5.147s-2.461 1.839-3.95.66c-1.093-.863-2.515-5.365-1.93-8.25l.043-.194c-.762-10.87 5.329-23.811 9.327-27.308 1.957-1.712 2.294-1.77 3.475-2.38 1.145-.591 3.5-1.973 4.338-2.057.848-1.142 1.617-2.21 2.25-3.504 2.015-4.117 4.818-9.401 8.223-9.86 2.45-.33 6.197.155 7.912 2.194z" fill="#fff" fill-rule="evenodd"/></mask><mask id="O" fill="#fff"><use fill="#fff" fill-rule="evenodd" xlink:href="#n"/></mask><mask id="P" fill="#fff"><use fill="#fff" fill-rule="evenodd" xlink:href="#o"/></mask><mask id="Q" fill="#fff"><use fill="#fff" fill-rule="evenodd" xlink:href="#p"/></mask><mask id="R" fill="#fff"><use fill="#fff" fill-rule="evenodd" xlink:href="#q"/></mask><mask id="S" fill="#fff"><path d="m17.632 2.255c0 4.607-3.934 8.341-8.787 8.341s-8.787-3.734-8.787-8.34c0-4.607 3.934-.605 8.787-.605s8.787-4.002 8.787.604" fill="#fff" fill-rule="evenodd"/></mask><mask id="T" fill="#fff"><path d="m35.704 2.634c2.25 2.676 5.528 3.684 5.783 6.929.166 2.126.782 3.204 1.71 4.406 1.064.398 2.807 1.41 3.743 1.892 1.18.61 1.518.668 3.475 2.38 4.074 3.563 10.32 16.932 9.276 27.924.38 2.882-.96 7.006-2 7.829-1.49 1.178-3.332.036-3.95-.661s0-4.138 0-5.147c0-.587.08-1.994.468-3.087-.1-3.927-1.828-9.676-3.498-13.739 1.445 7.707 2.007 16.315 1.873 19.164-.156 3.31-2.548 10.782-4.557 13.105-3.384 3.912-6.082 4.841-11.553 6.205-5.963 1.488-13.296 2.148-18.779-1.343-5.303-3.377-9.008-8.938-9.775-16.547-.801-7.95-.725-12.004.446-17.009-1.802 3.007-3.055 6.49-2.806 10.202.377 1.087.456 2.469.456 3.049 0 1.009.618 4.45 0 5.147s-2.461 1.839-3.95.66c-1.093-.863-2.515-5.365-1.93-8.25l.043-.194c-.762-10.87 5.329-23.811 9.327-27.308 1.957-1.712 2.294-1.77 3.475-2.38 1.145-.591 3.5-1.973 4.338-2.057.848-1.142 1.617-2.21 2.25-3.504 2.015-4.117 4.818-9.401 8.223-9.86 2.45-.33 6.197.155 7.912 2.194z" fill="#fff" fill-rule="evenodd"/></mask><mask id="U" fill="#fff"><use fill="#fff" fill-rule="evenodd" xlink:href="#r"/></mask><mask id="V" fill="#fff"><use fill="#fff" fill-rule="evenodd" xlink:href="#s"/></mask><mask id="W" fill="#fff"><use fill="#fff" fill-rule="evenodd" xlink:href="#t"/></mask><mask id="X" fill="#fff"><use fill="#fff" fill-rule="evenodd" xlink:href="#u"/></mask><mask id="Y" fill="#fff"><use fill="#fff" fill-rule="evenodd" xlink:href="#v"/></mask><mask id="Z" fill="#fff"><path d="m35.704 2.634c2.25 2.676 5.528 3.684 5.783 6.929.166 2.126.782 3.204 1.71 4.406 1.064.398 2.807 1.41 3.743 1.892 1.18.61 1.518.668 3.475 2.38 4.074 3.563 10.32 16.932 9.276 27.924.38 2.882-.96 7.006-2 7.829-1.49 1.178-3.332.036-3.95-.661s0-4.138 0-5.147c0-.587.08-1.994.468-3.087-.1-3.927-1.828-9.676-3.498-13.739 1.445 7.707 2.007 16.315 1.873 19.164-.156 3.31-2.548 10.782-4.557 13.105-3.384 3.912-6.082 4.841-11.553 6.205-5.963 1.488-13.296 2.148-18.779-1.343-5.303-3.377-9.008-8.938-9.775-16.547-.801-7.95-.725-12.004.446-17.009-1.802 3.007-3.055 6.49-2.806 10.202.377 1.087.456 2.469.456 3.049 0 1.009.618 4.45 0 5.147s-2.461 1.839-3.95.66c-1.093-.863-2.515-5.365-1.93-8.25l.043-.194c-.762-10.87 5.329-23.811 9.327-27.308 1.957-1.712 2.294-1.77 3.475-2.38 1.145-.591 3.5-1.973 4.338-2.057.848-1.142 1.617-2.21 2.25-3.504 2.015-4.117 4.818-9.401 8.223-9.86 2.45-.33 6.197.155 7.912 2.194z" fill="#fff" fill-rule="evenodd"/></mask><mask id="aa" fill="#fff"><use fill="#fff" fill-rule="evenodd" xlink:href="#w"/></mask></defs><g fill="none" fill-rule="evenodd"><path d="m330 184.25c0 6.075-73.873 11-165 11s-165-4.925-165-11 73.873-11 165-11 165 4.925 165 11" fill="#000" fill-opacity=".05"/><g filter="url(#x)" transform="translate(0 37.4)"><g transform="translate(20.773 105.03)"><use fill="#fff" xlink:href="#a"/><path d="m-1.375 41.36c.545.021 1.093.033 1.634.033 2.181 0 4.308-.18 6.09-.596 6.222-1.46 1.8-14.472 1.609-18.355-.106-2.198.41-4.409-1.552-6.562-.541-.595-1.514-1.12-2.75-1.599-1.49-.579-.075-3.04 0-3.356.215.11 1.836 1.297 3.643 2.06 1.807.764 2.18.692 4.013 1.296s3.162.641 3.105.904c-1.687 7.849-1.267 16.88 1.865 26.84-5.463.103-11.201.232-17.376.255-.1-.308-.188-.612-.28-.92zm21.386.506c.136-.467.263-.936.382-1.403 5.657-.566 7.742-4.297 8.246-6.05 1.262-4.4 1.203-9.056-.803-13.437-.47-1.02-.793-2.923-3.625-3.709-1.237-.343-2.38-.477-3.543-.495-.077-.388-.578-1.322-.657-1.699 2.005-.18 5.413-1.296 7.231-1.978 2.981-1.118 4.267-1.989 7.167-2.481 1.765 7.444 3.973 20.956.948 31.453-5.034-.015-10.753-.107-15.346-.2z" fill="#000" fill-opacity=".1" mask="url(#y)"/></g><g transform="translate(13.474 11.795)"><use fill="#fff" xlink:href="#b"/><g fill="#000"><path d="m13.023 51.393c-2.796-.67-1.3-1.64-6.037-5.355-3.712-2.912-4.707-4.146-5.78-10.66-.299-1.813-.95-5.482-1.051-8.233-.039-1.052.365-1.99.367-2.61.8 4.87 2.212 9.611 4.451 13.923 3.514 6.767 9.163 10.547 16.186 11.652 1.187.187 3 .572 4.18.572 6.997 0 13.308-2.91 18.403-8.211 2.3-2.394 3.913-5.296 5.04-8.486-.197.839.82.854.59 1.651-.866 3.017-3.204 6.499-4.631 8.503-4.492 6.31-10.593 8.921-18.696 9.213-8.102.291-11.258-1.502-13.022-1.959z" fill-opacity=".2" mask="url(#z)"/><path d="m13.722 47.632c-1.082-.565-2.64-1.595-4.342-3.202-1.775-1.677-3.556-4.077-4.719-6.606-.366-.797-1.078-2.278-1.375-3.09-.318-.87-.833-2.216-1.283-3.7-.385-1.266-.708-2.64-.977-3.844-.338-1.518-.41-1.971-.504-2.827.238 1.319.736 2.585 1.018 3.828.498 2.196 1.372 3.979 2.236 6.054.297.714.72 1.745 1.125 2.455 3.525 6.185 8.895 10.162 15.942 11.172 1.191.171 2.381.254 3.565.254 7.02 0 13.806-2.914 18.919-7.76 2.306-2.187 4.67-4.865 5.8-7.78-.107.414-.173.916-.345 1.4-.306.857-.706 1.73-.992 2.399-.097.227-.433.842-.523 1.05-.816 1.9-1.578 2.924-2.86 4.315-1.564 1.697-3.595 3.363-5.181 4.572-3.428 2.611-9.17 4.36-13.887 4.36-1.075 0-2.143-.244-3.18-.403-2.184-.335-4.226-.81-5.882-1.465-1.009-.398-1.901-.84-2.555-1.182z" fill-opacity=".1" mask="url(#z)"/><path d="m13.629 108.656c-4.756-2.493-7.535-6.208-9.266-11.35-.696-2.065-.832-4.43-1.501-6.663-1.093-3.644-1.093-4.145-.447-6.29-.014.715.809 2.113 1.001 2.92 1.28 5.37 4.06 11.131 6.382 14.029 2.148 2.681 9.534 6.107 14.529 6.107 4.994 0 16.144-4.306 19.138-8.776 2.355-3.513 4.786-11.63 4.61-15.836.248 1.435.524 4.724.46 6.155v1.2c-.146 3.361-1.776 7.871-3.43 10.821-2.75 4.903-6.97 7.09-12.505 8.56-2.512.668-5.93.822-8.511.822-1.716 0-3.407.033-4.92-.304-2.028-.452-3.804-.485-5.54-1.395z" fill-opacity=".2" mask="url(#z)"/></g></g><g transform="translate(42.795 66.276)"><use fill="#fff" transform="matrix(-.64278761 .76604444 .76604444 .64278761 19.301256 -9.000323)" xlink:href="#c"/><path d="m20.386 43.287c.03 0-3.046-3.605-3.046-9.833 0-5.439 1.584-12.765 5.721-18.39.601-.817 1.807-.658 2.492-1.439 2.37-2.706 2.019-2.996.797-.46-.907 1.881.353 2.684-1.04 5.796-.577 1.29-1.875 2.077-2.353 2.995-.715 1.377-1.218 4.387-1.393 7.016-.221 3.326 2.032 11.806 1.03 12.012-.283.058-2.531 2.303-2.208 2.303z" fill="#000" fill-opacity=".1" mask="url(#A)" transform="matrix(.8660254 -.5 -.5 -.8660254 16.666976 62.202)"/></g><g transform="translate(8.472 64.673)"><use fill="#fff" xlink:href="#d"/><path d="m6.283 40.74c.022 0-2.252-3.118-2.252-8.507 0-5.39 2.082-11.83 6.07-17.156 1.753-2.342 2.285-2.815 1.382-.621-.67 1.628-.876 2.373-1.905 5.065-1.066 2.789-1.41 3.58-2.459 7.859-.531 2.166 1.536 11.19.795 11.368-.208.05-1.87 1.992-1.631 1.992z" fill="#000" fill-opacity=".1" mask="url(#B)"/></g><path d="m33.844 5.15c0 2.716-2.185 4.917-4.882 4.917-2.696 0-4.881-2.201-4.881-4.917s2.185-4.918 4.881-4.918c2.697 0 4.882 2.202 4.882 4.918" fill="#222039" transform="translate(21.335 32.576)"/><path d="m32.086 2.826c0 .75-.603 1.357-1.348 1.357-.744 0-1.348-.607-1.348-1.357s.604-1.358 1.348-1.358c.745 0 1.348.608 1.348 1.358m.296 1.88c0 .29-.233.524-.52.524s-.52-.235-.52-.524.233-.523.52-.523.52.234.52.523" fill="#fff" transform="translate(21.335 32.576)"/><path d="m9.924 5.136c0 2.645-2.147 4.788-4.797 4.788-2.649 0-4.797-2.143-4.797-4.788 0-2.646 2.148-4.79 4.797-4.79 2.65 0 4.797 2.145 4.797 4.79" fill="#222039" transform="translate(21.335 32.576)"/><path d="m8.196 2.875c0 .729-.593 1.32-1.324 1.32-.732 0-1.325-.591-1.325-1.32 0-.73.593-1.321 1.325-1.321.731 0 1.324.59 1.324 1.32m.291 1.83c0 .281-.229.51-.511.51s-.511-.229-.511-.51.229-.509.511-.509.511.228.511.51" fill="#fff" transform="translate(21.335 32.576)"/><path d="m0 0h19.65v16.85h-19.65z" transform="translate(29.717 41.366)"/><path d="m14.058 7.455c0 2.487-2.016 4.504-4.502 4.504-2.487 0-4.503-2.017-4.503-4.504 0-2.488 2.016-.573 4.503-.573 2.486 0 4.502-1.915 4.502.573" fill="#222039" transform="translate(29.717 41.366)"/><path d="m13.223 10.068c-.816 1.145-2.155 1.891-3.667 1.891-1.243 0-2.369-.504-3.184-1.32-.815-.815.697-2.633 3.184-2.633 2.486 0 4.193 1.325 3.667 2.062" fill="#ed4f62" transform="translate(29.717 41.366)"/><g transform="translate(8.983 51.11)"><path d="m2.37 25.383c4.996-13.908 10.059-18.234 15.187-12.98 2.468 2.529 8.826 4.362 12.467 4.26 4.978-.139 9.307-1.912 12.985-5.318 4.202 1.615 6.965 3.12 8.29 4.516 1.324 1.396 2.994 4.303 5.008 8.72l-6.547 4.139-1.337-2.303c0-.158.646 1.054 1.938 3.636.465.93.534 3.049 2.243 7.062 2.287 5.373.47 12.766 0 14.957-4.889 3.052-9.438 5.803-22.994 5.803-9.038 0-16.445-1.253-22.22-3.759-.209-6.185-.209-10.43 0-12.734.438-4.826 1.049-6.37 1.854-9.905.58-2.547 1.461-3.86 1.766-5.298.105-.5-.738 2.792-1.172 2.792-.964 0-3.454-1.196-7.468-3.587z" fill="#ed4f62" mask="url(#C)"/><g mask="url(#C)"><path d="m0 0h19.955v19.963h-19.955z" transform="translate(20.81 25.65)"/><path d="m10.15 9.658c-1.516-.283-1.954-2.311-.899-3.208 1.055-.898 1.87-.23 2.822-.23.953 0 1.711-.543 1.933-.829s.742-1.032.103-1.977c-.639-.946-2.691-1.503-3.931-1.503s-2.237.31-3.104.806-2.223 1.695-2.46 3.373c-.072.515-.072 1.013 0 1.745.073.732.376 2.182 1.615 3.584.942 1.065 2.25 1.764 3.763 1.961s3.024-.181 4.201-.96c1.178-.778 1.9-1.728 2.31-2.298.25-.346.341-.382 1.2-1.75.057-.112.185-.217.161 0-.023.218-.151.977-.351 1.645s-.954 2.914-2.142 5.35c-.562 1.15-1.223 2.3-1.984 3.445-.584.88-1.569 1.408-2.623 1.408h-1.167c-1.057 0-2.044-.53-2.627-1.413-.756-1.144-1.417-2.291-1.98-3.44-1.194-2.435-1.839-4.258-2.168-5.35-.201-.667-.354-1.365-.408-2.182-.053-.813-.046-1.333.126-2.254.173-.921.508-1.75 1.14-2.587.635-.837 1.452-1.519 2.55-2.104 1.097-.584 2.617-.89 3.948-.89 1.33 0 2.812.306 3.89.89 1.079.585 1.768 1.332 2.11 2.104.343.772.478 1.414.232 2.587-.246 1.172-1.495 2.564-2.59 3.272-1.094.708-2.153 1.087-3.67.805z" fill="#fff" transform="translate(20.81 25.65)"/></g></g><path d="m12.9 18.532s-1.672-3.178.084-.38l1.258.049s2.853-1.469 3.059-4.198c.33-4.382 4.672-4.213 3.954-.92-.764 3.498-5.169 5.36-6.266 5.413" fill="#ed4f62" transform="translate(26.388)"/><path d="m12.9 18.532s-1.672-3.178.084-.38c0 0-.499-5.744-6.408-6.726-5.91-.982-6.09-2.15-6.537-3.476-.449-1.326 2.993-6.871 10.106-3.52 7.983 3.763 4.097 13.771 4.097 13.771v.331z" fill="#b03241" transform="translate(26.388)"/><path d="m6.576 17.759c-4.418.245-3.87-3.731 1.426-3.044 0 0 3.226.639 4.982 3.437l-.084.38s-1.907-1.018-6.324-.773z" fill="#ed4f62" transform="translate(26.388)"/><g transform="translate(209.537 104.88)"><use fill="#fff" xlink:href="#e"/><path d="m-1.375 41.36c.545.021 1.093.033 1.634.033 2.181 0 4.308-.18 6.09-.596 6.222-1.46 1.8-14.472 1.609-18.355-.106-2.198.41-4.409-1.552-6.562-.541-.595-1.514-1.12-2.75-1.599-1.49-.579-.075-3.04 0-3.356.215.11 1.836 1.297 3.643 2.06 1.807.764 2.18.692 4.013 1.296s3.162.641 3.105.904c-1.687 7.849-1.267 16.88 1.865 26.84-5.463.103-11.201.232-17.376.255-.1-.308-.188-.612-.28-.92zm21.386.506c.136-.467.263-.936.382-1.403 5.657-.566 7.742-4.297 8.246-6.05 1.262-4.4 1.203-9.056-.803-13.437-.47-1.02-.793-2.923-3.625-3.709-1.237-.343-2.38-.477-3.543-.495-.077-.388-.578-1.322-.657-1.699 2.005-.18 5.413-1.296 7.231-1.978 2.981-1.118 4.267-1.989 7.167-2.481 1.765 7.444 3.973 20.956.948 31.453-5.034-.015-10.753-.107-15.346-.2z" fill="#000" fill-opacity=".1" mask="url(#D)"/></g><g transform="translate(202.364 11.981)"><use fill="#fff" xlink:href="#f"/><g fill="#000"><path d="m13.023 51.393c-2.796-.67-1.3-1.64-6.037-5.355-3.712-2.912-4.707-4.146-5.78-10.66-.299-1.813-.95-5.482-1.051-8.233-.039-1.052.365-1.99.367-2.61.8 4.87 2.212 9.611 4.451 13.923 3.514 6.767 9.163 10.547 16.186 11.652 1.187.187 3 .572 4.18.572 6.997 0 13.308-2.91 18.403-8.211 2.3-2.394 3.913-5.296 5.04-8.486-.197.839.82.854.59 1.651-.866 3.017-3.204 6.499-4.631 8.503-4.492 6.31-10.593 8.921-18.696 9.213-8.102.291-11.258-1.502-13.022-1.959z" fill-opacity=".2" mask="url(#E)"/><path d="m13.722 47.632c-1.082-.565-2.64-1.595-4.342-3.202-1.775-1.677-3.556-4.077-4.719-6.606-.366-.797-1.078-2.278-1.375-3.09-.318-.87-.833-2.216-1.283-3.7-.385-1.266-.708-2.64-.977-3.844-.338-1.518-.41-1.971-.504-2.827.238 1.319.736 2.585 1.018 3.828.498 2.196 1.372 3.979 2.236 6.054.297.714.72 1.745 1.125 2.455 3.525 6.185 8.895 10.162 15.942 11.172 1.191.171 2.381.254 3.565.254 7.02 0 13.806-2.914 18.919-7.76 2.306-2.187 4.67-4.865 5.8-7.78-.107.414-.173.916-.345 1.4-.306.857-.706 1.73-.992 2.399-.097.227-.433.842-.523 1.05-.816 1.9-1.578 2.924-2.86 4.315-1.564 1.697-3.595 3.363-5.181 4.572-3.428 2.611-9.17 4.36-13.887 4.36-1.075 0-2.143-.244-3.18-.403-2.184-.335-4.226-.81-5.882-1.465-1.009-.398-1.901-.84-2.555-1.182z" fill-opacity=".1" mask="url(#E)"/><path d="m13.629 108.656c-4.756-2.493-7.535-6.208-9.266-11.35-.696-2.065-.832-4.43-1.501-6.663-1.093-3.644-1.093-4.145-.447-6.29-.014.715.809 2.113 1.001 2.92 1.28 5.37 4.06 11.131 6.382 14.029 2.148 2.681 9.534 6.107 14.529 6.107 4.994 0 16.144-4.306 19.138-8.776 2.355-3.513 4.786-11.63 4.61-15.836.248 1.435.524 4.724.46 6.155v1.2c-.146 3.361-1.776 7.871-3.43 10.821-2.75 4.903-6.97 7.09-12.505 8.56-2.512.668-5.93.822-8.511.822-1.716 0-3.407.033-4.92-.304-2.028-.452-3.804-.485-5.54-1.395z" fill-opacity=".2" mask="url(#E)"/></g></g><g transform="translate(231.685 66.276)"><use fill="#fff" transform="matrix(-.64278761 .76604444 .76604444 .64278761 19.301256 -9.000323)" xlink:href="#g"/><path d="m20.386 43.287c.03 0-3.046-3.605-3.046-9.833 0-5.439 1.584-12.765 5.721-18.39.601-.817 1.807-.658 2.492-1.439 2.37-2.706 2.019-2.996.797-.46-.907 1.881.353 2.684-1.04 5.796-.577 1.29-1.875 2.077-2.353 2.995-.715 1.377-1.218 4.387-1.393 7.016-.221 3.326 2.032 11.806 1.03 12.012-.283.058-2.531 2.303-2.208 2.303z" fill="#000" fill-opacity=".1" mask="url(#F)" transform="matrix(.8660254 -.5 -.5 -.8660254 16.666976 62.202)"/></g><g transform="matrix(-1 0 0 1 223.264 66.276)"><use fill="#fff" transform="matrix(-.64278761 .76604444 .76604444 .64278761 19.301256 -9.000323)" xlink:href="#h"/><path d="m20.386 43.287c.03 0-3.046-3.605-3.046-9.833 0-5.439 1.584-12.765 5.721-18.39.601-.817 1.807-.658 2.492-1.439 2.37-2.706 2.019-2.996.797-.46-.907 1.881.353 2.684-1.04 5.796-.577 1.29-1.875 2.077-2.353 2.995-.715 1.377-1.218 4.387-1.393 7.016-.221 3.326 2.032 11.806 1.03 12.012-.283.058-2.531 2.303-2.208 2.303z" fill="#000" fill-opacity=".1" mask="url(#G)" transform="matrix(.8660254 -.5 -.5 -.8660254 16.666976 62.202)"/></g><path d="m33.844 5.15c0 2.716-2.185 4.917-4.882 4.917-2.696 0-4.881-2.201-4.881-4.917s2.185-4.918 4.881-4.918c2.697 0 4.882 2.202 4.882 4.918" fill="#222039" transform="translate(210.264 32.772)"/><path d="m32.086 2.826c0 .75-.603 1.357-1.348 1.357-.744 0-1.348-.607-1.348-1.357s.604-1.358 1.348-1.358c.745 0 1.348.608 1.348 1.358m.296 1.88c0 .29-.233.524-.52.524s-.52-.235-.52-.524.233-.523.52-.523.52.234.52.523" fill="#fff" transform="translate(210.264 32.772)"/><path d="m9.924 5.136c0 2.645-2.147 4.788-4.797 4.788-2.649 0-4.797-2.143-4.797-4.788 0-2.646 2.148-4.79 4.797-4.79 2.65 0 4.797 2.145 4.797 4.79" fill="#222039" transform="translate(210.264 32.772)"/><path d="m8.196 2.875c0 .729-.593 1.32-1.324 1.32-.732 0-1.325-.591-1.325-1.32 0-.73.593-1.321 1.325-1.321.731 0 1.324.59 1.324 1.32m.291 1.83c0 .281-.229.51-.511.51s-.511-.229-.511-.51.229-.509.511-.509.511.228.511.51" fill="#fff" transform="translate(210.264 32.772)"/><path d="m0 0h19.65v16.85h-19.65z" transform="translate(218.646 41.562)"/><path d="m14.058 7.455c0 2.487-2.016 4.504-4.502 4.504-2.487 0-4.503-2.017-4.503-4.504 0-2.488 2.016-.573 4.503-.573 2.486 0 4.502-1.915 4.502.573" fill="#222039" transform="translate(218.646 41.562)"/><path d="m13.223 10.068c-.816 1.145-2.155 1.891-3.667 1.891-1.243 0-2.369-.504-3.184-1.32-.815-.815.697-2.633 3.184-2.633 2.486 0 4.193 1.325 3.667 2.062" fill="#ed4f62" transform="translate(218.646 41.562)"/><g transform="translate(197.873 51.11)"><path d="m2.37 25.383c4.996-13.908 10.059-18.234 15.187-12.98 2.468 2.529 8.826 4.362 12.467 4.26 4.978-.139 9.307-1.912 12.985-5.318 4.202 1.615 6.965 3.12 8.29 4.516 1.324 1.396 2.994 4.303 5.008 8.72l-6.547 4.139-1.337-2.303c0-.158.646 1.054 1.938 3.636.465.93.534 3.049 2.243 7.062 2.287 5.373.47 12.766 0 14.957-4.889 3.052-9.438 5.803-22.994 5.803-9.038 0-16.445-1.253-22.22-3.759-.209-6.185-.209-10.43 0-12.734.438-4.826 1.049-6.37 1.854-9.905.58-2.547 1.461-3.86 1.766-5.298.105-.5-.738 2.792-1.172 2.792-.964 0-3.454-1.196-7.468-3.587z" fill="#ed4f62" mask="url(#H)"/><g mask="url(#H)"><path d="m0 0h19.955v19.963h-19.955z" transform="translate(20.81 25.65)"/><path d="m10.15 9.658c-1.516-.283-1.954-2.311-.899-3.208 1.055-.898 1.87-.23 2.822-.23.953 0 1.711-.543 1.933-.829s.742-1.032.103-1.977c-.639-.946-2.691-1.503-3.931-1.503s-2.237.31-3.104.806-2.223 1.695-2.46 3.373c-.072.515-.072 1.013 0 1.745.073.732.376 2.182 1.615 3.584.942 1.065 2.25 1.764 3.763 1.961s3.024-.181 4.201-.96c1.178-.778 1.9-1.728 2.31-2.298.25-.346.341-.382 1.2-1.75.057-.112.185-.217.161 0-.023.218-.151.977-.351 1.645s-.954 2.914-2.142 5.35c-.562 1.15-1.223 2.3-1.984 3.445-.584.88-1.569 1.408-2.623 1.408h-1.167c-1.057 0-2.044-.53-2.627-1.413-.756-1.144-1.417-2.291-1.98-3.44-1.194-2.435-1.839-4.258-2.168-5.35-.201-.667-.354-1.365-.408-2.182-.053-.813-.046-1.333.126-2.254.173-.921.508-1.75 1.14-2.587.635-.837 1.452-1.519 2.55-2.104 1.097-.584 2.617-.89 3.948-.89 1.33 0 2.812.306 3.89.89 1.079.585 1.768 1.332 2.11 2.104.343.772.478 1.414.232 2.587-.246 1.172-1.495 2.564-2.59 3.272-1.094.708-2.153 1.087-3.67.805z" fill="#fff" transform="translate(20.81 25.65)"/></g></g><path d="m19.314 16.469s.464-2.198.464-4.686c-5.19-1.645-14.088-.187-16.41-6.185-2.323-5.997-4.955 1.125-2.168 9.372.577 1.707 1.421 3.095 2.45 4.163 3.943 4.098 10.63 3.431 15.664-2.663z" fill="#ed4f62" transform="translate(215.278)"/><path d="m7.33 20.66s.026-1.2 1.27-2.11c1.267-.929 3.372-1.851 4.995-3.345 2.784-2.561 4.786-7.159 7.048-7.159 1.929 0 2.83.41 3.326.769 2.79 2.016 1.893 11.07-9.695 12.91-1.592.326-6.383 1.244-6.944-1.064z" fill="#b03241" transform="translate(215.278)"/><g transform="translate(83.61 104.88)"><use fill="#fff" xlink:href="#i"/><path d="m-1.375 41.36c.545.021 1.093.033 1.634.033 2.181 0 4.308-.18 6.09-.596 6.222-1.46 1.8-14.472 1.609-18.355-.106-2.198.41-4.409-1.552-6.562-.541-.595-1.514-1.12-2.75-1.599-1.49-.579-.075-3.04 0-3.356.215.11 1.836 1.297 3.643 2.06 1.807.764 2.18.692 4.013 1.296s3.162.641 3.105.904c-1.687 7.849-1.267 16.88 1.865 26.84-5.463.103-11.201.232-17.376.255-.1-.308-.188-.612-.28-.92zm21.386.506c.136-.467.263-.936.382-1.403 5.657-.566 7.742-4.297 8.246-6.05 1.262-4.4 1.203-9.056-.803-13.437-.47-1.02-.793-2.923-3.625-3.709-1.237-.343-2.38-.477-3.543-.495-.077-.388-.578-1.322-.657-1.699 2.005-.18 5.413-1.296 7.231-1.978 2.981-1.118 4.267-1.989 7.167-2.481 1.765 7.444 3.973 20.956.948 31.453-5.034-.015-10.753-.107-15.346-.2z" fill="#000" fill-opacity=".1" mask="url(#I)"/></g><g transform="translate(76.589 11.981)"><use fill="#fff" xlink:href="#j"/><g fill="#000"><path d="m12.87 51.393c-2.795-.67-1.3-1.64-6.036-5.355-3.712-2.912-4.707-4.146-5.78-10.66-.299-1.813-.951-5.482-1.051-8.233-.039-1.052.365-1.99.367-2.61.8 4.87 2.212 9.611 4.451 13.923 3.514 6.767 9.163 10.547 16.186 11.652 1.187.187 3 .572 4.18.572 6.997 0 13.308-2.91 18.403-8.211 2.3-2.394 3.913-5.296 5.04-8.486-.197.839.82.854.59 1.651-.866 3.017-3.204 6.499-4.631 8.503-4.492 6.31-10.593 8.921-18.696 9.213-8.102.291-11.258-1.502-13.023-1.959z" fill-opacity=".2" mask="url(#J)"/><path d="m13.57 47.632c-1.082-.565-2.64-1.595-4.342-3.202-1.775-1.677-3.556-4.077-4.719-6.606-.366-.797-1.078-2.278-1.375-3.09-.318-.87-.833-2.216-1.283-3.7-.385-1.266-.708-2.64-.977-3.844-.338-1.518-.41-1.971-.504-2.827.238 1.319.736 2.585 1.018 3.828.498 2.196 1.372 3.979 2.236 6.054.297.714.72 1.745 1.124 2.455 3.526 6.185 8.896 10.162 15.943 11.172 1.191.171 2.381.254 3.565.254 7.02 0 13.806-2.914 18.919-7.76 2.306-2.187 4.67-4.865 5.8-7.78-.107.414-.173.916-.345 1.4-.306.857-.706 1.73-.992 2.399-.097.227-.433.842-.523 1.05-.816 1.9-1.579 2.924-2.86 4.315-1.564 1.697-3.595 3.363-5.181 4.572-3.428 2.611-9.17 4.36-13.887 4.36-1.075 0-2.143-.244-3.18-.403-2.184-.335-4.226-.81-5.882-1.465-1.01-.398-1.902-.84-2.555-1.182z" fill-opacity=".1" mask="url(#J)"/><path d="m13.477 108.656c-4.756-2.493-7.535-6.208-9.267-11.35-.696-2.065-.83-4.43-1.5-6.663-1.093-3.644-1.093-4.145-.447-6.29-.014.715.809 2.113 1 2.92 1.281 5.37 4.062 11.131 6.383 14.029 2.148 2.681 9.534 6.107 14.528 6.107 4.995 0 16.145-4.306 19.14-8.776 2.353-3.513 4.785-11.63 4.609-15.836.248 1.435.524 4.724.46 6.155v1.2c-.146 3.361-1.777 7.871-3.43 10.821-2.75 4.903-6.97 7.09-12.505 8.56-2.513.668-5.93.822-8.511.822-1.716 0-3.407.033-4.92-.304-2.028-.452-3.804-.485-5.54-1.395z" fill-opacity=".2" mask="url(#J)"/></g></g><g transform="translate(105.758 66.276)"><use fill="#fff" transform="matrix(-.64278761 .76604444 .76604444 .64278761 19.301256 -9.000323)" xlink:href="#k"/><path d="m20.386 43.287c.03 0-3.046-3.605-3.046-9.833 0-5.439 1.584-12.765 5.721-18.39.601-.817 1.807-.658 2.492-1.439 2.37-2.706 2.019-2.996.797-.46-.907 1.881.353 2.684-1.04 5.796-.577 1.29-1.875 2.077-2.353 2.995-.715 1.377-1.218 4.387-1.393 7.016-.221 3.326 2.032 11.806 1.03 12.012-.283.058-2.531 2.303-2.208 2.303z" fill="#000" fill-opacity=".1" mask="url(#K)" transform="matrix(.8660254 -.5 -.5 -.8660254 16.666976 62.202)"/></g><g transform="matrix(-1 0 0 1 97.337 66.276)"><use fill="#fff" transform="matrix(-.64278761 .76604444 .76604444 .64278761 19.301256 -9.000323)" xlink:href="#l"/><path d="m20.386 43.287c.03 0-3.046-3.605-3.046-9.833 0-5.439 1.584-12.765 5.721-18.39.601-.817 1.807-.658 2.492-1.439 2.37-2.706 2.019-2.996.797-.46-.907 1.881.353 2.684-1.04 5.796-.577 1.29-1.875 2.077-2.353 2.995-.715 1.377-1.218 4.387-1.393 7.016-.221 3.326 2.032 11.806 1.03 12.012-.283.058-2.531 2.303-2.208 2.303z" fill="#000" fill-opacity=".1" mask="url(#L)" transform="matrix(.8660254 -.5 -.5 -.8660254 16.666976 62.202)"/></g><path d="m33.844 5.15c0 2.716-2.185 4.917-4.882 4.917-2.696 0-4.881-2.201-4.881-4.917s2.185-4.918 4.881-4.918c2.697 0 4.882 2.202 4.882 4.918" fill="#222039" transform="translate(84.337 32.772)"/><path d="m32.086 2.826c0 .75-.603 1.357-1.348 1.357-.744 0-1.348-.607-1.348-1.357s.604-1.358 1.348-1.358c.745 0 1.348.608 1.348 1.358m.296 1.88c0 .29-.233.524-.52.524s-.52-.235-.52-.524.233-.523.52-.523.52.234.52.523" fill="#fff" transform="translate(84.337 32.772)"/><path d="m9.924 5.136c0 2.645-2.147 4.788-4.797 4.788-2.649 0-4.797-2.143-4.797-4.788 0-2.646 2.148-4.79 4.797-4.79 2.65 0 4.797 2.145 4.797 4.79" fill="#222039" transform="translate(84.337 32.772)"/><path d="m8.196 2.875c0 .729-.593 1.32-1.324 1.32-.732 0-1.325-.591-1.325-1.32 0-.73.593-1.321 1.325-1.321.731 0 1.324.59 1.324 1.32m.291 1.83c0 .281-.229.51-.511.51s-.511-.229-.511-.51.229-.509.511-.509.511.228.511.51" fill="#fff" transform="translate(84.337 32.772)"/><path d="m0 0h19.65v16.85h-19.65z" transform="translate(92.719 41.562)"/><g transform="matrix(.98162718 .190809 .190809 -.98162718 96.749096 52.515851)"><use fill="#222039" xlink:href="#m"/><path d="m9.65 2.17c-4.865 1.24-8.746-.213-8.746-1.648 0-1.432 2.186-1.379 4.375-1.086 2.356.316 5.499 2.446 4.37 2.733" fill="#ed4f62" mask="url(#M)"/></g><g transform="translate(71.946 51.11)"><path d="m2.37 25.383c4.996-13.908 10.059-18.234 15.187-12.98 2.468 2.529 8.826 4.362 12.467 4.26 4.978-.139 9.307-1.912 12.985-5.318 4.202 1.615 6.965 3.12 8.29 4.516 1.324 1.396 2.994 4.303 5.008 8.72l-6.547 4.139-1.337-2.303c0-.158.646 1.054 1.938 3.636.465.93.534 3.049 2.243 7.062 2.287 5.373.47 12.766 0 14.957-4.889 3.052-9.438 5.803-22.994 5.803-9.038 0-16.445-1.253-22.22-3.759-.209-6.185-.209-10.43 0-12.734.438-4.826 1.049-6.37 1.854-9.905.58-2.547 1.461-3.86 1.766-5.298.105-.5-.738 2.792-1.172 2.792-.964 0-3.454-1.196-7.468-3.587z" fill="#ed4f62" mask="url(#N)"/><g mask="url(#N)"><path d="m0 0h19.955v19.963h-19.955z" transform="translate(20.81 25.65)"/><path d="m10.15 9.658c-1.516-.283-1.954-2.311-.899-3.208 1.055-.898 1.87-.23 2.822-.23.953 0 1.711-.543 1.933-.829s.742-1.032.103-1.977c-.639-.946-2.691-1.503-3.931-1.503s-2.237.31-3.104.806-2.223 1.695-2.46 3.373c-.072.515-.072 1.013 0 1.745.073.732.376 2.182 1.615 3.584.942 1.065 2.25 1.764 3.763 1.961s3.024-.181 4.201-.96c1.178-.778 1.9-1.728 2.31-2.298.25-.346.341-.382 1.2-1.75.057-.112.185-.217.161 0-.023.218-.151.977-.351 1.645s-.954 2.914-2.142 5.35c-.562 1.15-1.223 2.3-1.984 3.445-.584.88-1.569 1.408-2.623 1.408h-1.167c-1.057 0-2.044-.53-2.627-1.413-.756-1.144-1.417-2.291-1.98-3.44-1.194-2.435-1.839-4.258-2.168-5.35-.201-.667-.354-1.365-.408-2.182-.053-.813-.046-1.333.126-2.254.173-.921.508-1.75 1.14-2.587.635-.837 1.452-1.519 2.55-2.104 1.097-.584 2.617-.89 3.948-.89 1.33 0 2.812.306 3.89.89 1.079.585 1.768 1.332 2.11 2.104.343.772.478 1.414.232 2.587-.246 1.172-1.495 2.564-2.59 3.272-1.094.708-2.153 1.087-3.67.805z" fill="#fff" transform="translate(20.81 25.65)"/></g></g><path d="m20.063 17.411s-.162-4.328 5.202-4.638c0 0-4.08-2.75-6.462-.039 0 0-.183-3.976 1.927-7.539 0 0-4.878-1.188-6.73 3.356 0 0-2.592-4.596-7.495-2.995 0 0 2.929 2.685 2.843 6.352 0 0-2.197-6.868-9.348-3.719 0 0 4.402 1.24 4.588 3.925.185 2.685-2.52-.206-2.52-.206s-.488 3.622 2.227 5.502h15.768" fill="#ed4f62" transform="translate(89.351)"/><path d="m5.615 14.709s1.513 1.235 1.915.483c.402-.75.556-2.96 0-3.721 0 0 1.792.19 2.255 1.637 0 0 2.323-2.148 1.545-4.683 0 0 2.348 1.617 2.812 3.816 0 0 .618-2.636 3.012-3.36 0 0-.356 2.78 1.035 3.923 0 0 2.046-1.208 3.707-.542 0 0-2.132 1.769-2.363 4.069l-.116.636s1.885.777 2.228 2.039c0 0-1.764-1.061-3.058-1.023-2.292.408-3.903.627-4.832.657-3.138.103-6.964-.772-6.964-.772s-1.207-1.103-1.176-3.16z" fill="#b03241" transform="translate(89.351)"/><g transform="translate(146.573 104.88)"><use fill="#fff" xlink:href="#n"/><path d="m-1.375 41.36c.545.021 1.093.033 1.634.033 2.181 0 4.308-.18 6.09-.596 6.222-1.46 1.8-14.472 1.609-18.355-.106-2.198.41-4.409-1.552-6.562-.541-.595-1.514-1.12-2.75-1.599-1.49-.579-.075-3.04 0-3.356.215.11 1.836 1.297 3.643 2.06 1.807.764 2.18.692 4.013 1.296s3.162.641 3.105.904c-1.687 7.849-1.267 16.88 1.865 26.84-5.463.103-11.201.232-17.376.255-.1-.308-.188-.612-.28-.92zm21.386.506c.136-.467.263-.936.382-1.403 5.657-.566 7.742-4.297 8.246-6.05 1.262-4.4 1.203-9.056-.803-13.437-.47-1.02-.793-2.923-3.625-3.709-1.237-.343-2.38-.477-3.543-.495-.077-.388-.578-1.322-.657-1.699 2.005-.18 5.413-1.296 7.231-1.978 2.981-1.118 4.267-1.989 7.167-2.481 1.765 7.444 3.973 20.956.948 31.453-5.034-.015-10.753-.107-15.346-.2z" fill="#000" fill-opacity=".1" mask="url(#O)"/></g><g transform="translate(139.4 11.981)"><use fill="#fff" xlink:href="#o"/><g fill="#000"><path d="m13.023 51.393c-2.796-.67-1.3-1.64-6.037-5.355-3.712-2.912-4.707-4.146-5.78-10.66-.299-1.813-.95-5.482-1.051-8.233-.039-1.052.365-1.99.367-2.61.8 4.87 2.212 9.611 4.451 13.923 3.514 6.767 9.163 10.547 16.186 11.652 1.187.187 3 .572 4.18.572 6.997 0 13.308-2.91 18.403-8.211 2.3-2.394 3.913-5.296 5.04-8.486-.197.839.82.854.59 1.651-.866 3.017-3.204 6.499-4.631 8.503-4.492 6.31-10.593 8.921-18.696 9.213-8.102.291-11.258-1.502-13.022-1.959z" fill-opacity=".2" mask="url(#P)"/><path d="m13.722 47.632c-1.082-.565-2.64-1.595-4.342-3.202-1.775-1.677-3.556-4.077-4.719-6.606-.366-.797-1.078-2.278-1.375-3.09-.318-.87-.833-2.216-1.283-3.7-.385-1.266-.708-2.64-.977-3.844-.338-1.518-.41-1.971-.504-2.827.238 1.319.736 2.585 1.018 3.828.498 2.196 1.372 3.979 2.236 6.054.297.714.72 1.745 1.125 2.455 3.525 6.185 8.895 10.162 15.942 11.172 1.191.171 2.381.254 3.565.254 7.02 0 13.806-2.914 18.919-7.76 2.306-2.187 4.67-4.865 5.8-7.78-.107.414-.173.916-.345 1.4-.306.857-.706 1.73-.992 2.399-.097.227-.433.842-.523 1.05-.816 1.9-1.578 2.924-2.86 4.315-1.564 1.697-3.595 3.363-5.181 4.572-3.428 2.611-9.17 4.36-13.887 4.36-1.075 0-2.143-.244-3.18-.403-2.184-.335-4.226-.81-5.882-1.465-1.009-.398-1.901-.84-2.555-1.182z" fill-opacity=".1" mask="url(#P)"/><path d="m13.629 108.656c-4.756-2.493-7.535-6.208-9.266-11.35-.696-2.065-.832-4.43-1.501-6.663-1.093-3.644-1.093-4.145-.447-6.29-.014.715.809 2.113 1.001 2.92 1.28 5.37 4.06 11.131 6.382 14.029 2.148 2.681 9.534 6.107 14.529 6.107 4.994 0 16.144-4.306 19.138-8.776 2.355-3.513 4.786-11.63 4.61-15.836.248 1.435.524 4.724.46 6.155v1.2c-.146 3.361-1.776 7.871-3.43 10.821-2.75 4.903-6.97 7.09-12.505 8.56-2.512.668-5.93.822-8.511.822-1.716 0-3.407.033-4.92-.304-2.028-.452-3.804-.485-5.54-1.395z" fill-opacity=".2" mask="url(#P)"/></g></g><g transform="translate(168.721 66.276)"><use fill="#fff" transform="matrix(-.64278761 .76604444 .76604444 .64278761 19.301256 -9.000323)" xlink:href="#p"/><path d="m20.386 43.287c.03 0-3.046-3.605-3.046-9.833 0-5.439 1.584-12.765 5.721-18.39.601-.817 1.807-.658 2.492-1.439 2.37-2.706 2.019-2.996.797-.46-.907 1.881.353 2.684-1.04 5.796-.577 1.29-1.875 2.077-2.353 2.995-.715 1.377-1.218 4.387-1.393 7.016-.221 3.326 2.032 11.806 1.03 12.012-.283.058-2.531 2.303-2.208 2.303z" fill="#000" fill-opacity=".1" mask="url(#Q)" transform="matrix(.8660254 -.5 -.5 -.8660254 16.666976 62.202)"/></g><g transform="matrix(-1 0 0 1 160.3 66.276)"><use fill="#fff" transform="matrix(-.64278761 .76604444 .76604444 .64278761 19.301256 -9.000323)" xlink:href="#q"/><path d="m20.386 43.287c.03 0-3.046-3.605-3.046-9.833 0-5.439 1.584-12.765 5.721-18.39.601-.817 1.807-.658 2.492-1.439 2.37-2.706 2.019-2.996.797-.46-.907 1.881.353 2.684-1.04 5.796-.577 1.29-1.875 2.077-2.353 2.995-.715 1.377-1.218 4.387-1.393 7.016-.221 3.326 2.032 11.806 1.03 12.012-.283.058-2.531 2.303-2.208 2.303z" fill="#000" fill-opacity=".1" mask="url(#R)" transform="matrix(.8660254 -.5 -.5 -.8660254 16.666976 62.202)"/></g><path d="m33.844 5.15c0 2.716-2.185 4.917-4.882 4.917-2.696 0-4.881-2.201-4.881-4.917s2.185-4.918 4.881-4.918c2.697 0 4.882 2.202 4.882 4.918" fill="#222039" transform="translate(147.3 32.772)"/><path d="m32.086 2.826c0 .75-.603 1.357-1.348 1.357-.744 0-1.348-.607-1.348-1.357s.604-1.358 1.348-1.358c.745 0 1.348.608 1.348 1.358m.296 1.88c0 .29-.233.524-.52.524s-.52-.235-.52-.524.233-.523.52-.523.52.234.52.523" fill="#fff" transform="translate(147.3 32.772)"/><path d="m9.924 5.136c0 2.645-2.147 4.788-4.797 4.788-2.649 0-4.797-2.143-4.797-4.788 0-2.646 2.148-4.79 4.797-4.79 2.65 0 4.797 2.145 4.797 4.79" fill="#222039" transform="translate(147.3 32.772)"/><path d="m8.196 2.875c0 .729-.593 1.32-1.324 1.32-.732 0-1.325-.591-1.325-1.32 0-.73.593-1.321 1.325-1.321.731 0 1.324.59 1.324 1.32m.291 1.83c0 .281-.229.51-.511.51s-.511-.229-.511-.51.229-.509.511-.509.511.228.511.51" fill="#fff" transform="translate(147.3 32.772)"/><path d="m0 0h19.65v16.85h-19.65z" transform="translate(155.682 41.562)"/><path d="m2.322 3.435c-1.159.1-1.704 1.005-1.704 2.737 0 4.94 4.126 8.937 9.207 8.937 5.082 0 9.208-3.998 9.208-8.937 0-1.678-.513-2.579-1.598-2.725l-.107-.012c-.738-.064-.568-.112-3.454.831-1.64.536-2.812.79-4.049.79-1.168 0-2.279-.227-3.78-.703l-1.71-.556c-1.413-.454-1.429-.413-2.013-.362z" fill="#222039" transform="translate(155.682 41.562)"/><g transform="translate(156.805 45.494)"><path d="m15.858 8.95c0 .527-2.812 2.48-6.736 2.48-3.925 0-6.738-1.936-6.738-2.48 0-1.37 2.44-2.48 6.738-2.48 4.297 0 6.736 1.11 6.736 2.48" fill="#ed4f62" mask="url(#S)"/><path d="m5.201 1.23c-.217 1.054-1.061 1.822-1.886 1.715-.824-.107-1.314-1.048-1.095-2.102.217-1.054 1.06-1.822 1.885-1.715.824.107 1.314 1.048 1.096 2.102m3.894.743c0 1.068-.676 1.934-1.51 1.934-.836 0-1.512-.866-1.512-1.934s.676-1.934 1.511-1.934 1.511.866 1.511 1.934m4.069-.852c.355 1.03-.01 2.007-.814 2.182-.805.174-1.746-.52-2.102-1.55-.355-1.031.01-2.008.814-2.182.805-.174 1.746.52 2.102 1.55m3.678-1.415c.376 1.026.03 2.007-.771 2.19-.802.184-1.756-.498-2.131-1.524-.376-1.026-.03-2.007.771-2.191.802-.184 1.756.499 2.131 1.525" fill="#fff" mask="url(#S)"/></g><g transform="translate(134.909 51.11)"><path d="m2.37 25.383c4.996-13.908 10.059-18.234 15.187-12.98 2.468 2.529 8.826 4.362 12.467 4.26 4.978-.139 9.307-1.912 12.985-5.318 4.202 1.615 6.965 3.12 8.29 4.516 1.324 1.396 2.994 4.303 5.008 8.72l-6.547 4.139-1.337-2.303c0-.158.646 1.054 1.938 3.636.465.93.534 3.049 2.243 7.062 2.287 5.373.47 12.766 0 14.957-4.889 3.052-9.438 5.803-22.994 5.803-9.038 0-16.445-1.253-22.22-3.759-.209-6.185-.209-10.43 0-12.734.438-4.826 1.049-6.37 1.854-9.905.58-2.547 1.461-3.86 1.766-5.298.105-.5-.738 2.792-1.172 2.792-.964 0-3.454-1.196-7.468-3.587z" fill="#ed4f62" mask="url(#T)"/><g mask="url(#T)"><path d="m0 0h19.955v19.963h-19.955z" transform="translate(20.81 25.65)"/><path d="m10.15 9.658c-1.516-.283-1.954-2.311-.899-3.208 1.055-.898 1.87-.23 2.822-.23.953 0 1.711-.543 1.933-.829s.742-1.032.103-1.977c-.639-.946-2.691-1.503-3.931-1.503s-2.237.31-3.104.806-2.223 1.695-2.46 3.373c-.072.515-.072 1.013 0 1.745.073.732.376 2.182 1.615 3.584.942 1.065 2.25 1.764 3.763 1.961s3.024-.181 4.201-.96c1.178-.778 1.9-1.728 2.31-2.298.25-.346.341-.382 1.2-1.75.057-.112.185-.217.161 0-.023.218-.151.977-.351 1.645s-.954 2.914-2.142 5.35c-.562 1.15-1.223 2.3-1.984 3.445-.584.88-1.569 1.408-2.623 1.408h-1.167c-1.057 0-2.044-.53-2.627-1.413-.756-1.144-1.417-2.291-1.98-3.44-1.194-2.435-1.839-4.258-2.168-5.35-.201-.667-.354-1.365-.408-2.182-.053-.813-.046-1.333.126-2.254.173-.921.508-1.75 1.14-2.587.635-.837 1.452-1.519 2.55-2.104 1.097-.584 2.617-.89 3.948-.89 1.33 0 2.812.306 3.89.89 1.079.585 1.768 1.332 2.11 2.104.343.772.478 1.414.232 2.587-.246 1.172-1.495 2.564-2.59 3.272-1.094.708-2.153 1.087-3.67.805z" fill="#fff" transform="translate(20.81 25.65)"/></g></g><path d="m21.533 10.244s1.494-2.852-.345-5.02c-1.839-2.167-4.827.343-4.827.343s0-3.765-3.218-3.88c-3.218-.113-4.022 3.195-4.022 3.195s-2.759-2.396-5.402 0c-2.644 2.396.345 5.818.345 5.818s-2.989-.913-3.908 2.396c-.92 3.308 2.528 4.677 2.528 4.677-2.061.91-1.953 5.102 2.255 5.245l.044.002c12.434.334 14.043-.042 14.412 0 .89.103 4.098-.406 4.667-1.939.804-2.167-1.035-3.764-1.035-3.764s2.644-2.282 2.184-4.564c-.46-2.281-3.678-2.51-3.678-2.51z" fill="#ed4f62" transform="translate(152.314)"/><path d="m20.034 13.118s1.195-2.313-.276-4.07c-1.471-1.758-3.862.277-3.862.277s0-3.052-2.574-3.144c-2.575-.093-3.218 2.59-3.218 2.59s-2.207-1.943-4.322 0c-2.115 1.942.276 4.717.276 4.717s-2.39-.74-3.126 1.942 2.023 3.792 2.023 3.792c-1.65.737-1.563 4.137 1.804 4.253l.035.002c9.947.27 11.234-.035 11.529 0 .712.083 3.278-.33 3.734-1.573.643-1.757-.828-3.052-.828-3.052s2.115-1.85 1.747-3.7-2.942-2.034-2.942-2.034z" fill="#b03241" transform="translate(152.314)"/><g transform="translate(272.499 104.88)"><use fill="#fff" xlink:href="#r"/><path d="m-1.375 41.36c.545.021 1.093.033 1.634.033 2.181 0 4.308-.18 6.09-.596 6.222-1.46 1.8-14.472 1.609-18.355-.106-2.198.41-4.409-1.552-6.562-.541-.595-1.514-1.12-2.75-1.599-1.49-.579-.075-3.04 0-3.356.215.11 1.836 1.297 3.643 2.06 1.807.764 2.18.692 4.013 1.296s3.162.641 3.105.904c-1.687 7.849-1.267 16.88 1.865 26.84-5.463.103-11.201.232-17.376.255-.1-.308-.188-.612-.28-.92zm21.386.506c.136-.467.263-.936.382-1.403 5.657-.566 7.742-4.297 8.246-6.05 1.262-4.4 1.203-9.056-.803-13.437-.47-1.02-.793-2.923-3.625-3.709-1.237-.343-2.38-.477-3.543-.495-.077-.388-.578-1.322-.657-1.699 2.005-.18 5.413-1.296 7.231-1.978 2.981-1.118 4.267-1.989 7.167-2.481 1.765 7.444 3.973 20.956.948 31.453-5.034-.015-10.753-.107-15.346-.2z" fill="#000" fill-opacity=".1" mask="url(#U)"/></g><g transform="translate(265.478 11.981)"><use fill="#fff" xlink:href="#s"/><g fill="#000"><path d="m12.87 51.393c-2.795-.67-1.3-1.64-6.036-5.355-3.712-2.912-4.707-4.146-5.78-10.66-.299-1.813-.951-5.482-1.051-8.233-.039-1.052.365-1.99.367-2.61.8 4.87 2.212 9.611 4.451 13.923 3.514 6.767 9.163 10.547 16.186 11.652 1.187.187 3 .572 4.18.572 6.997 0 13.308-2.91 18.403-8.211 2.3-2.394 3.913-5.296 5.04-8.486-.197.839.82.854.59 1.651-.866 3.017-3.204 6.499-4.631 8.503-4.492 6.31-10.593 8.921-18.696 9.213-8.102.291-11.258-1.502-13.023-1.959z" fill-opacity=".2" mask="url(#V)"/><path d="m13.57 47.632c-1.082-.565-2.64-1.595-4.342-3.202-1.775-1.677-3.556-4.077-4.719-6.606-.366-.797-1.078-2.278-1.375-3.09-.318-.87-.833-2.216-1.283-3.7-.385-1.266-.708-2.64-.977-3.844-.338-1.518-.41-1.971-.504-2.827.238 1.319.736 2.585 1.018 3.828.498 2.196 1.372 3.979 2.236 6.054.297.714.72 1.745 1.124 2.455 3.526 6.185 8.896 10.162 15.943 11.172 1.191.171 2.381.254 3.565.254 7.02 0 13.806-2.914 18.919-7.76 2.306-2.187 4.67-4.865 5.8-7.78-.107.414-.173.916-.345 1.4-.306.857-.706 1.73-.992 2.399-.097.227-.433.842-.523 1.05-.816 1.9-1.579 2.924-2.86 4.315-1.564 1.697-3.595 3.363-5.181 4.572-3.428 2.611-9.17 4.36-13.887 4.36-1.075 0-2.143-.244-3.18-.403-2.184-.335-4.226-.81-5.882-1.465-1.01-.398-1.902-.84-2.555-1.182z" fill-opacity=".1" mask="url(#V)"/><path d="m13.477 108.656c-4.756-2.493-7.535-6.208-9.267-11.35-.696-2.065-.83-4.43-1.5-6.663-1.093-3.644-1.093-4.145-.447-6.29-.014.715.809 2.113 1 2.92 1.281 5.37 4.062 11.131 6.383 14.029 2.148 2.681 9.534 6.107 14.528 6.107 4.995 0 16.145-4.306 19.14-8.776 2.353-3.513 4.785-11.63 4.609-15.836.248 1.435.524 4.724.46 6.155v1.2c-.146 3.361-1.777 7.871-3.43 10.821-2.75 4.903-6.97 7.09-12.505 8.56-2.513.668-5.93.822-8.511.822-1.716 0-3.407.033-4.92-.304-2.028-.452-3.804-.485-5.54-1.395z" fill-opacity=".2" mask="url(#V)"/></g></g><g transform="matrix(-1 0 0 1 320.859 64.673)"><use fill="#fff" xlink:href="#t"/><path d="m6.283 40.74c.022 0-2.252-3.118-2.252-8.507 0-5.39 2.082-11.83 6.07-17.156 1.753-2.342 2.285-2.815 1.382-.621-.67 1.628-.876 2.373-1.905 5.065-1.066 2.789-1.41 3.58-2.459 7.859-.531 2.166 1.536 11.19.795 11.368-.208.05-1.87 1.992-1.631 1.992z" fill="#000" fill-opacity=".1" mask="url(#W)"/></g><g transform="matrix(-1 0 0 1 286.226 66.276)"><use fill="#fff" transform="matrix(-.64278761 .76604444 .76604444 .64278761 19.301256 -9.000323)" xlink:href="#u"/><path d="m20.386 43.287c.03 0-3.046-3.605-3.046-9.833 0-5.439 1.584-12.765 5.721-18.39.601-.817 1.807-.658 2.492-1.439 2.37-2.706 2.019-2.996.797-.46-.907 1.881.353 2.684-1.04 5.796-.577 1.29-1.875 2.077-2.353 2.995-.715 1.377-1.218 4.387-1.393 7.016-.221 3.326 2.032 11.806 1.03 12.012-.283.058-2.531 2.303-2.208 2.303z" fill="#000" fill-opacity=".1" mask="url(#X)" transform="matrix(.8660254 -.5 -.5 -.8660254 16.666976 62.202)"/></g><path d="m33.844 5.15c0 2.716-2.185 4.917-4.882 4.917-2.696 0-4.881-2.201-4.881-4.917s2.185-4.918 4.881-4.918c2.697 0 4.882 2.202 4.882 4.918" fill="#222039" transform="translate(273.226 32.772)"/><path d="m32.086 2.826c0 .75-.603 1.357-1.348 1.357-.744 0-1.348-.607-1.348-1.357s.604-1.358 1.348-1.358c.745 0 1.348.608 1.348 1.358m.296 1.88c0 .29-.233.524-.52.524s-.52-.235-.52-.524.233-.523.52-.523.52.234.52.523" fill="#fff" transform="translate(273.226 32.772)"/><path d="m9.924 5.136c0 2.645-2.147 4.788-4.797 4.788-2.649 0-4.797-2.143-4.797-4.788 0-2.646 2.148-4.79 4.797-4.79 2.65 0 4.797 2.145 4.797 4.79" fill="#222039" transform="translate(273.226 32.772)"/><path d="m8.196 2.875c0 .729-.593 1.32-1.324 1.32-.732 0-1.325-.591-1.325-1.32 0-.73.593-1.321 1.325-1.321.731 0 1.324.59 1.324 1.32m.291 1.83c0 .281-.229.51-.511.51s-.511-.229-.511-.51.229-.509.511-.509.511.228.511.51" fill="#fff" transform="translate(273.226 32.772)"/><g transform="translate(281.608 41.562)"><path d="m0 0h19.65v16.85h-19.65z"/><path d="m9.166 13.48c-1.14 0-2.138-.09-3.055-.275-2.824-.567-4.827-2.857-4.985-5.697-.031-.75.153-1.341.564-1.798.861-.955 2.535-1.156 3.787-1.156.34 0 .692.015 1.047.045.341.029.68.08 1.038.136.438.067.892.137 1.357.161.113.006.226.009.339.009.684 0 1.342-.101 1.98-.2.336-.052.684-.105 1.025-.142.44-.046.872-.07 1.287-.07.241 0 .481.008.714.024 1.618.112 2.667.5 3.205 1.189.318.408.522 1.152.495 1.811-.061 1.427-.723 3.068-1.647 4.082-.916 1.004-2.169 1.532-4.062 1.711-1.247.118-2.2.17-3.089.17" fill="#222039"/><use fill="#222039" xlink:href="#v"/><path d="m12.025 7.302c-.356 0-.768-.013-1.125-.107-.165-.043-.206-.083-.207-.084-.037-.063-.025-.364-.02-.492.023-.586.04-1.183.054-1.813l.03-.001c.46-.022.908-.086 1.342-.148.353-.05.688-.098 1.025-.124.297-.023.594-.037.886-.04l.007.167c.02.512.038.996-.02 1.466-.108.864-.486 1.16-1.499 1.171l-.119.001c-.116.002-.235.004-.354.004m-4.399.561c-.12 0-.238-.002-.355-.003l-.119-.001c-1.013-.012-1.39-.307-1.498-1.171-.059-.472-.04-.957-.02-1.47l.006-.163c.292.003.589.016.885.04.339.026.673.074 1.027.124.433.062.882.126 1.34.148h.031c.014.636.032 1.234.054 1.813.005.128.017.43-.021.495 0 0-.044.04-.205.082-.358.094-.77.106-1.125.106" fill="#fff" mask="url(#Y)"/><path d="m9.213 12.918c-1.127 0-2.115-.078-3.022-.24-.813-.145-1.583-.428-2.26-.829 1.002-.679 2.364-1.21 3.988-1.553.585-.124 1.2-.186 1.827-.186 1.71 0 3.598.472 5.463 1.366.165.08.334.166.511.26-.843.582-1.941.907-3.45 1.033-1.234.103-2.177.15-3.056.15" fill="#ed4f62" mask="url(#Y)"/></g><g transform="translate(260.835 51.11)"><path d="m2.37 25.383c4.996-13.908 10.059-18.234 15.187-12.98 2.468 2.529 8.826 4.362 12.467 4.26 4.978-.139 9.307-1.912 12.985-5.318 4.202 1.615 6.965 3.12 8.29 4.516 1.324 1.396 2.994 4.303 5.008 8.72l-6.547 4.139-1.337-2.303c0-.158.646 1.054 1.938 3.636.465.93.534 3.049 2.243 7.062 2.287 5.373.47 12.766 0 14.957-4.889 3.052-9.438 5.803-22.994 5.803-9.038 0-16.445-1.253-22.22-3.759-.209-6.185-.209-10.43 0-12.734.438-4.826 1.049-6.37 1.854-9.905.58-2.547 1.461-3.86 1.766-5.298.105-.5-.738 2.792-1.172 2.792-.964 0-3.454-1.196-7.468-3.587z" fill="#ed4f62" mask="url(#Z)"/><g mask="url(#Z)"><path d="m0 0h19.955v19.963h-19.955z" transform="translate(20.81 25.65)"/><path d="m10.15 9.658c-1.516-.283-1.954-2.311-.899-3.208 1.055-.898 1.87-.23 2.822-.23.953 0 1.711-.543 1.933-.829s.742-1.032.103-1.977c-.639-.946-2.691-1.503-3.931-1.503s-2.237.31-3.104.806-2.223 1.695-2.46 3.373c-.072.515-.072 1.013 0 1.745.073.732.376 2.182 1.615 3.584.942 1.065 2.25 1.764 3.763 1.961s3.024-.181 4.201-.96c1.178-.778 1.9-1.728 2.31-2.298.25-.346.341-.382 1.2-1.75.057-.112.185-.217.161 0-.023.218-.151.977-.351 1.645s-.954 2.914-2.142 5.35c-.562 1.15-1.223 2.3-1.984 3.445-.584.88-1.569 1.408-2.623 1.408h-1.167c-1.057 0-2.044-.53-2.627-1.413-.756-1.144-1.417-2.291-1.98-3.44-1.194-2.435-1.839-4.258-2.168-5.35-.201-.667-.354-1.365-.408-2.182-.053-.813-.046-1.333.126-2.254.173-.921.508-1.75 1.14-2.587.635-.837 1.452-1.519 2.55-2.104 1.097-.584 2.617-.89 3.948-.89 1.33 0 2.812.306 3.89.89 1.079.585 1.768 1.332 2.11 2.104.343.772.478 1.414.232 2.587-.246 1.172-1.495 2.564-2.59 3.272-1.094.708-2.153 1.087-3.67.805z" fill="#fff" transform="translate(20.81 25.65)"/></g></g><g transform="translate(278.24 3)"><use fill="#ed4f62" xlink:href="#w"/><path d="m1.573 9.706 1.235-2.959c.02-.046.072-.067.118-.048.021.009.039.026.048.048l1.211 2.902c.02.046.072.068.118.049.021-.01.039-.027.048-.049l1.21-2.902c.02-.046.073-.067.118-.048.022.009.04.026.049.048l1.21 2.902c.02.046.072.068.118.048.022-.009.04-.026.048-.048l1.21-2.902c.019-.046.071-.067.117-.048.022.009.04.026.049.048l1.21 2.903c.02.046.072.068.118.049.022-.01.04-.027.048-.049l1.21-2.902c.02-.046.072-.067.118-.048.022.009.04.026.049.048l1.211 2.902c.02.046.072.068.118.049.021-.01.039-.027.048-.049l1.21-2.902c.02-.046.072-.067.118-.048.022.009.04.026.048.048l1.211 2.902c.02.046.072.068.118.049.022-.01.04-.027.048-.049l1.212-2.902c.02-.046.072-.068.118-.048.022.009.039.026.048.048l1.212 2.902c.02.046.072.068.118.049.021-.01.039-.027.048-.049l1.212-2.902c.02-.046.072-.068.118-.048.021.009.039.026.048.048l1.234 2.957c.02.045.072.067.118.048.014-.006.027-.016.037-.029l2.208-2.924c.03-.04.086-.047.126-.018.02.016.033.038.035.063l.275 2.834c.005.05.05.086.099.081.017-.002.034-.009.048-.02l3.124-2.589c.038-.031.095-.026.126.012.014.016.021.037.021.058l-.006 1.243c0 .006 0 .012-.002.019-.532 2.453-1.017 4.35-1.456 5.688-1.236 3.768-4.743 6.323-8.708 6.344l-7.597.041c-3.92.022-7.36-2.6-8.38-6.385-.414-1.536-.85-3.749-1.307-6.639-.007-.049.026-.095.075-.102.032-.005.065.007.085.033l1.768 2.264c.03.039.087.046.126.015.012-.01.021-.022.027-.036z" fill="#b03241" mask="url(#aa)"/></g></g></g></svg>